<?xml version="1.0" encoding="UTF-8" standalone="no"?>
<!-- Created with Inkscape (http://www.inkscape.org/) -->

<svg
   xmlns:dc="http://purl.org/dc/elements/1.1/"
   xmlns:cc="http://creativecommons.org/ns#"
   xmlns:rdf="http://www.w3.org/1999/02/22-rdf-syntax-ns#"
   xmlns:svg="http://www.w3.org/2000/svg"
   xmlns="http://www.w3.org/2000/svg"
   xmlns:sodipodi="http://sodipodi.sourceforge.net/DTD/sodipodi-0.dtd"
   xmlns:inkscape="http://www.inkscape.org/namespaces/inkscape"
   width="256mm"
   height="256mm"
   viewBox="0 0 256.00001 256.00002"
   version="1.1"
   id="svg952"
   inkscape:version="0.92.5 (2060ec1f9f, 2020-04-08)"
   sodipodi:docname="Abah's Landing.svg">
  <defs
     id="defs946" />
  <sodipodi:namedview
     id="base"
     pagecolor="#ffffff"
     bordercolor="#666666"
     borderopacity="1.0"
     inkscape:pageopacity="0.0"
     inkscape:pageshadow="2"
     inkscape:zoom="1.4142136"
     inkscape:cx="165.16918"
     inkscape:cy="437.9342"
     inkscape:document-units="mm"
     inkscape:current-layer="layer1"
     showgrid="false"
     units="mm"
     inkscape:window-width="3840"
     inkscape:window-height="2056"
     inkscape:window-x="0"
     inkscape:window-y="50"
     inkscape:window-maximized="1"
     showguides="true"
     inkscape:guide-bbox="true" />
  <metadata
     id="metadata949">
    <rdf:RDF>
      <cc:Work
         rdf:about="">
        <dc:format>image/svg+xml</dc:format>
        <dc:type
           rdf:resource="http://purl.org/dc/dcmitype/StillImage" />
        <dc:title></dc:title>
      </cc:Work>
    </rdf:RDF>
  </metadata>
  <g
     inkscape:label="Layer 1"
     inkscape:groupmode="layer"
     id="layer1"
     transform="translate(0,-40.999976)">
    <g
       id="g5311"
       style="fill:#c58940;fill-opacity:1;stroke:#2f0e07;stroke-width:1.5;stroke-miterlimit:4;stroke-dasharray:none;stroke-opacity:1;paint-order:stroke fill markers"
       transform="matrix(0.95791913,0,0,0.95791913,6.0017723,7.2431031)">
      <g
         id="g5203"
         style="fill:#c58940;fill-opacity:1;stroke:#2f0e07;stroke-width:1.5;stroke-miterlimit:4;stroke-dasharray:none;stroke-opacity:1;paint-order:stroke fill markers">
        <path
           inkscape:connector-curvature="0"
           style="clip-rule:evenodd;fill:#c58940;fill-opacity:1;fill-rule:evenodd;stroke:#2f0e07;stroke-width:1.5;stroke-miterlimit:4;stroke-dasharray:none;stroke-opacity:1;paint-order:stroke fill markers"
           d="m 188.81758,93.106127 c -1.59174,0.27317 -2.00257,2.310296 -3.25538,2.059976 -0.0926,-1.643696 2.65646,-3.908956 2.33001,-4.269966 -0.43071,0.70573 -0.78607,1.02419 -1.21315,1.21122 l -0.25014,-0.88646 c 0.11494,-1.20583 1.5704,-2.928686 0.31453,-3.296417 -0.17862,0.853087 -0.86235,2.202938 -0.58927,3.153527 l -0.34211,1.27647 c -0.0753,0.0159 -0.1527,0.0322 -0.23402,0.0492 -1.29898,-4.798362 0.24613,1.844016 -0.85153,2.732276 -0.46329,-0.97382 -0.46337,-2.796126 -1.22383,-3.225356 -0.38302,1.9225 1.48,5.070566 -0.38924,6.181486 -0.73719,-1.54443 0.0206,-3.39178 -1.0146,-4.389976 -0.6283,2.427846 1.28272,6.241326 -0.37464,8.107633 -0.84424,-2.476237 -0.25936,-2.942687 -1.05921,-5.479957 -2.27262,1.81468 1.28366,6.810237 -1.06156,8.585317 -0.85946,-2.24756 -0.62011,-5.023827 -1.35765,-6.495347 -1.8447,2.616607 1.9509,8.310967 -1.12157,10.257617 -0.0867,-2.32054 -0.39911,-4.76448 -1.07382,-7.40611 -3.08587,2.08213 2.14252,9.8354 -1.48003,10.91454 -0.24687,-2.48085 -0.21185,-5.93917 -1.62611,-8.34688 -2.54419,2.59085 1.97781,10.172 -1.25618,11.67607 -0.5152,-3.42842 -0.54429,-5.27528 -1.5215,-8.92917 -3.86889,2.43555 2.52664,10.47233 -1.79388,12.66144 -0.61138,-4.15908 -0.82464,-7.12414 -2.04379,-10.70608 -3.65979,3.74553 3.05821,12.54821 -2.21234,14.99065 -0.13165,-3.69503 -0.42595,-7.47905 -1.83456,-11.87069 -2.88227,2.65381 -0.70867,9.40406 -0.25621,14.1399 -0.86863,0.24698 -1.46953,1.74162 -2.38921,1.25383 0.14162,-3.83024 -0.56739,-8.12444 -2.13302,-12.88607 -2.82757,3.43004 -0.57479,9.63249 -0.0324,14.90143 -0.60508,0.73548 -1.17665,1.48924 -2.49384,1.83614 -1.2e-4,-4.33407 -1.389,-10.56129 -2.40147,-14.7376 -2.84751,4.31728 -1.19349,9.79808 0.0869,16.24527 -0.59141,0.81391 -1.21032,1.61302 -2.41922,2.08997 -0.35834,-4.81342 -1.6619,-10.1424 -2.5507,-15.24528 -3.16243,3.71876 -1.53648,9.98411 0.31071,17.00681 -1.37038,0.60218 -1.63228,1.80902 -3.18076,2.31381 0.70253,-4.4871 -1.51629,-10.26436 -2.52069,-16.08143 -3.42017,3.39546 -1.83448,11.3571 0.17608,18.42525 -1.33673,0.69131 -1.4985,2.02398 -3.10613,2.56766 0.3367,-4.78965 -1.91461,-12.12707 -3.72992,-17.38065 -3.40832,4.98569 -1.56895,12.85814 1.45992,19.97833 -1.13733,0.80394 -2.62489,2.72744 -3.56726,3.74509 -1.27727,1.32378 -0.11431,0.10491 -2.67196,2.64053 -1.06312,0.8406 -1.71444,1.82308 -2.63152,2.84044 -0.79348,0.85449 -0.79094,1.22329 -2.55384,3.50842 -3.00042,6.51807 -1.75554,4.62924 -2.6897,9.61545 7.88326,2.14544 17.95855,5.88918 27.95134,0.33317 -7.81964,-2.15697 -16.21825,-5.60346 -25.72596,-4.02084 1.02653,-1.85545 1.76443,-3.86821 3.37538,-5.40456 7.05878,3.15996 16.12666,7.43478 25.20366,2.24392 -8.03833,-0.89224 -13.60631,-6.31162 -23.1129,-4.51312 1.3837,-5.63076 5.52954,-3.30647 8.70533,-2.28304 4.93133,1.58901 10.9676,4.15904 17.12603,1.03313 -6.48465,-2.43768 -12.49668,-5.74151 -20.39523,-5.58773 0.8961,-1.35822 1.85033,-2.68472 3.31539,-3.73226 5.95991,2.41349 12.09778,6.39597 20.30599,3.40773 -3.59279,-1.654 -6.72197,-2.56013 -9.91377,-3.70462 -1.13349,-0.40645 -2.21137,-1.37612 -3.53842,-1.71769 -1.48408,-0.38228 -3.06775,0.31707 -4.40458,-0.91155 0.4658,-1.09578 1.94398,-1.63894 2.85229,-2.49305 4.98917,2.53447 11.09082,6.89189 17.69294,3.90003 -5.41864,-1.52712 -9.67884,-5.17682 -15.70679,-5.58693 0.62172,-1.15265 1.90168,-1.94612 3.03153,-2.82151 4.76151,2.21033 8.62151,6.07281 15.2291,4.90002 -3.20598,-2.7183 -8.42554,-5.12935 -12.98911,-6.66154 3.80484,-3.73991 6.55934,0.76934 10.48145,1.8831 2.46248,0.6992 4.4883,0.49175 7.01764,0.41925 -3.55251,-3.12414 -8.03839,-4.53743 -12.51143,-5.97461 1.26534,-0.37505 1.36224,-1.38797 2.8223,-1.6569 4.35426,1.10532 9.53921,4.51132 14.40835,2.10772 -3.91929,-1.67082 -7.96827,-3.10359 -12.24297,-4.12309 4.31834,-5.31799 9.82079,3.12938 15.51374,-0.69917 -3.59824,-1.32726 -6.42003,-3.11193 -11.10838,-3.07771 3.00521,-5.36167 8.94363,2.03756 14.37914,-1.74455 -3.36048,-1.00252 -6.7701,-1.9142 -10.37684,-2.46541 2.38273,-4.84115 8.78501,1.79159 12.63223,-2.0584 -2.91301,-0.91094 -6.07067,-1.37353 -9.49609,-1.34541 0.96546,-5.32359 7.8621,0.81249 11.24378,-3.02916 -2.85519,-0.23574 -5.44116,-0.96482 -8.51071,-0.80772 0.50461,-4.90712 7.64006,-0.26286 10.51225,-3.64148 -2.40971,-1.23178 -6.04518,1.18536 -7.85379,-0.44925 0.92423,-3.00571 7.41647,-1.08266 9.01918,-4.02994 -2.29982,0.17877 -4.84527,0.80729 -6.97303,0.67073 0.13007,-2.77089 6.49115,-2.14128 7.52611,-4.41839 -1.84612,0.16482 -4.36671,1.15749 -5.65919,1.38765 0.43183,-2.748177 5.33824,-3.054697 6.06305,-5.643007 -2.07804,0.29063 -3.01812,2.32668 -4.5992,2.1792 0.0818,-2.51293 4.00557,-2.92939 4.53998,-5.195326 z m -60.63211,65.807003 c 0.21514,0.11741 -0.13762,-0.0751 0,0 z m 33.0053,-42.51881 c -0.13762,-0.0751 0.21514,0.1174 0,0 z m 2.26842,6.77919 c -0.13762,-0.0751 0.21514,0.1174 0,0 z m 2.82308,-6.34533 c -0.13762,-0.0751 0.21514,0.1174 0,0 z"
           id="path22"
           sodipodi:nodetypes="ccccccccccccccccccccccccccccccccccccccccccccccccccccccccccccccccccccccccccccccccccccccccccccccccccc" />
        <path
           inkscape:connector-curvature="0"
           style="clip-rule:evenodd;fill:#c58940;fill-opacity:1;fill-rule:evenodd;stroke:#2f0e07;stroke-width:1.5;stroke-miterlimit:4;stroke-dasharray:none;stroke-opacity:1;paint-order:stroke fill markers"
           d="m 65.897508,93.10574 c 1.59173,0.27317 2.00256,2.31029 3.25537,2.05997 0.0926,-1.64369 -2.65646,-3.90895 -2.33,-4.26996 0.43071,0.70573 0.78606,1.02419 1.21314,1.21122 l 0.25014,-0.88646 c -0.11494,-1.20583 -1.5704,-2.92869 -0.31452,-3.29642 0.17862,0.85309 0.86234,2.20294 0.58926,3.15353 l 0.34211,1.27647 c 0.0753,0.0159 0.15271,0.0322 0.23403,0.0492 1.29897,-4.79837 -0.24614,1.84401 0.85152,2.73227 0.4633,-0.97382 0.46337,-2.79612 1.22383,-3.22535 0.38302,1.9225 -1.47999,5.07056 0.38924,6.181479 0.73719,-1.544429 -0.0206,-3.391779 1.0146,-4.389969 0.62831,2.42784 -1.28271,6.241319 0.37464,8.10763 0.84424,-2.476241 0.25936,-2.942691 1.05922,-5.47996 2.27262,1.814679 -1.28366,6.81024 1.06155,8.58532 0.85947,-2.24756 0.62012,-5.023831 1.35766,-6.495351 1.84469,2.616611 -1.9509,8.310971 1.12156,10.257621 0.0867,-2.32054 0.39911,-4.76448 1.07383,-7.40611 3.08587,2.08213 -2.14253,9.8354 1.48003,10.91454 0.24686,-2.48085 0.21184,-5.93917 1.62611,-8.34688 2.54418,2.59085 -1.97781,10.172 1.25617,11.67607 0.51521,-3.42842 0.54429,-5.27528 1.52151,-8.92917 3.86888,2.43555 -2.52664,10.47233 1.79387,12.66144 0.61138,-4.15908 0.82464,-7.12414 2.0438,-10.70608 3.65978,3.74553 -3.05821,12.54821 2.21234,14.99065 0.13165,-3.69503 0.42595,-7.47905 1.83456,-11.87069 2.88226,2.65381 0.70866,9.40406 0.25621,14.1399 0.86863,0.24698 1.46953,1.74162 2.3892,1.25383 -0.14161,-3.83024 0.5674,-8.12444 2.13302,-12.88607 2.827582,3.43004 0.5748,9.63249 0.0324,14.90143 0.60508,0.73548 1.17665,1.48924 2.49385,1.83614 1.1e-4,-4.33407 1.388992,-10.56129 2.401462,-14.7376 2.84751,4.31728 1.1935,9.79808 -0.0869,16.24527 0.59141,0.81391 1.21032,1.61302 2.41922,2.08997 0.35834,-4.81342 1.6619,-10.1424 2.5507,-15.24528 3.16243,3.71876 1.53648,9.98411 -0.31071,17.00681 1.37038,0.60218 1.63228,1.80902 3.18076,2.31381 -0.70253,-4.4871 1.51629,-10.26436 2.52069,-16.08143 3.42017,3.39546 1.83448,11.3571 -0.17608,18.42525 1.33673,0.69131 1.4985,2.02398 3.10613,2.56766 -0.3367,-4.78965 1.91461,-12.12707 3.72992,-17.38065 3.40832,4.98569 1.56895,12.85814 -1.45992,19.97833 1.13733,0.80394 2.62489,2.72744 3.56726,3.74509 1.27727,1.32378 0.11431,0.10491 2.67196,2.64053 1.06312,0.8406 1.71444,1.82308 2.63152,2.84044 0.79348,0.85449 0.79094,1.22329 2.55384,3.50842 3.00043,6.51807 1.75555,4.62924 2.68971,9.61545 -7.88326,2.14544 -17.95855,5.88918 -27.95134,0.33317 7.81964,-2.15697 16.21825,-5.60346 25.72596,-4.02084 -1.02653,-1.85545 -1.76443,-3.86821 -3.37538,-5.40456 -7.05878,3.15996 -16.12666,7.43478 -25.20367,2.24392 8.03834,-0.89224 13.60632,-6.31162 23.11291,-4.51312 -1.3837,-5.63076 -5.52954,-3.30647 -8.70533,-2.28304 -4.93133,1.58901 -10.9676,4.15904 -17.126032,1.03313 6.484642,-2.43768 12.496682,-5.74151 20.395232,-5.58773 -0.8961,-1.35822 -1.85033,-2.68472 -3.31539,-3.73226 -5.95991,2.41349 -12.09779,6.39597 -20.305992,3.40773 3.59279,-1.654 6.721972,-2.56013 9.913762,-3.70462 1.1335,-0.40645 2.21138,-1.37612 3.53843,-1.71769 1.48408,-0.38228 3.06775,0.31707 4.40458,-0.91155 -0.4658,-1.09578 -1.94398,-1.63894 -2.85229,-2.49305 -4.98917,2.53447 -11.090832,6.89189 -17.692942,3.90003 5.41864,-1.52712 9.678832,-5.17682 15.706792,-5.58693 -0.62172,-1.15265 -1.90168,-1.94612 -3.03154,-2.82151 -4.76151,2.21033 -8.621502,6.07281 -15.229092,4.90002 3.20598,-2.7183 8.42554,-5.12935 12.989112,-6.66154 -3.804852,-3.73991 -6.559352,0.76934 -10.481452,1.8831 -2.46248,0.6992 -4.4883,0.49175 -7.01764,0.41925 3.55251,-3.12414 8.03838,-4.53743 12.51143,-5.97461 -1.26535,-0.37505 -1.36224,-1.38797 -2.8223,-1.6569 -4.35427,1.10532 -9.53922,4.51132 -14.40836,2.10772 3.9193,-1.67082 7.96828,-3.10359 12.24298,-4.12309 -4.31835,-5.31799 -9.82079,3.12938 -15.51374,-0.69917 3.59824,-1.32726 6.42003,-3.11193 11.10838,-3.07771 -3.00522,-5.36167 -8.94364,2.03756 -14.37915,-1.74455 3.36049,-1.00252 6.77011,-1.9142 10.37684,-2.46541 -2.38272,-4.84115 -8.785,1.79159 -12.63223,-2.0584 2.91301,-0.91094 6.07068,-1.37353 9.4961,-1.34541 -0.96547,-5.32359 -7.86211,0.81249 -11.24378,-3.02916 2.85519,-0.23574 5.44115,-0.96482 8.5107,-0.80772 -0.50461,-4.90712 -7.64006,-0.26286 -10.51225,-3.64148 2.40972,-1.23178 6.04519,1.18536 7.8538,-0.44925 -0.92423,-3.00571 -7.41647,-1.08266 -9.01919,-4.02994 2.29982,0.17877 4.84527,0.80729 6.97304,0.67073 -0.13007,-2.77089 -6.49115,-2.14128 -7.52611,-4.41839 1.84611,0.16482 4.36671,1.15749 5.65918,1.38765 -0.43183,-2.748181 -5.33823,-3.054701 -6.06304,-5.64301 2.07804,0.29063 3.01812,2.326679 4.59919,2.179199 -0.0818,-2.512929 -4.00556,-2.929389 -4.53998,-5.195319 z m 60.632112,65.807 c -0.21514,0.11741 0.13762,-0.0751 0,0 z M 93.524318,116.39393 c 0.13762,-0.0751 -0.21514,0.1174 0,0 z m -2.26843,6.77919 c 0.13763,-0.0751 -0.21514,0.1174 0,0 z m -2.82308,-6.34533 c 0.13762,-0.0751 -0.21514,0.1174 0,0 z"
           id="path22-1"
           sodipodi:nodetypes="ccccccccccccccccccccccccccccccccccccccccccccccccccccccccccccccccccccccccccccccccccccccccccccccccccc" />
      </g>
      <g
         transform="translate(-218.65059,176.3593)"
         id="g5300"
         style="fill:#c58940;fill-opacity:1;stroke:#2f0e07;stroke-width:1.5;stroke-miterlimit:4;stroke-dasharray:none;stroke-opacity:1;paint-order:stroke fill markers">
        <path
           inkscape:connector-curvature="0"
           style="fill:#c58940;fill-opacity:1;stroke:#2f0e07;stroke-width:5.6692915;stroke-miterlimit:4;stroke-dasharray:none;stroke-opacity:1;paint-order:stroke fill markers"
           d="m 1284.7578,-367.53125 c 0.038,0.30183 0.077,0.60434 0.096,0.91211 -0.1599,0.47928 -0.3156,2.21242 -0.3496,3.85156 -0.034,1.63922 -0.2676,3.08395 -0.5215,3.21094 -1.1377,0.56893 -1.2399,9.41789 -0.1133,9.79883 0.172,0.0581 0.015,1.02129 -0.3515,2.13867 -0.8856,2.71166 -0.3693,7.42315 0.9297,8.48437 0.524,0.42796 0.8826,0.98752 0.7968,1.24415 -0.086,0.25651 0.228,0.4729 0.6954,0.48046 0.6933,0.01 0.8624,0.56114 0.9199,2.99414 0.065,2.74012 -3e-4,3.00585 -0.8008,3.26172 -0.7526,0.24083 -0.9072,0.59988 -1.1328,2.63477 -0.1436,1.296 -0.1677,3.44717 -0.055,4.7793 0.1606,1.89793 0.4009,2.4575 1.1152,2.58789 0.8244,0.15061 0.9301,2.5549 1.0938,25.14257 0.5354,73.95137 0.5561,146.27069 0.061,204.333989 -0.069,8.068909 -0.1432,17.016283 -0.1621,19.880859 -0.048,6.891028 -0.2728,26.506201 -0.4375,38.294922 -0.667,47.721407 -0.8684,65.753137 -0.9062,80.617188 -0.042,16.53657 0.1817,39.725664 0.4179,43.328124 0.062,0.934031 0.2299,5.233369 0.375,9.554688 0.4137,12.32066 1.6334,29.89693 2.8711,41.35938 1.4825,13.72969 5.1078,36.3934 7.1153,44.48242 0.2989,1.20378 0.5144,2.27907 0.4765,2.38867 -0.1126,0.33755 3.4447,13.75231 4.9102,18.51758 5.918,19.24402 14.4245,35.96394 25.8515,50.8125 9.3353,12.13066 16.4005,18.69506 26.3282,24.46289 3.8653,2.24568 10.1151,5.33893 10.4492,5.17187 0.1058,-0.0529 -0.673,-3.55531 -1.7324,-7.7832 -2.9654,-11.8348 -4.6739,-22.3338 -5.9043,-36.30078 -3.4752,-39.45139 -3.0822,-71.97839 1.1992,-99.3086 0.5989,-3.82247 1.3407,-8.72936 1.6484,-10.90429 0.6313,-4.46642 1.0035,-3.60798 -5.0605,-11.67383 -3.6125,-4.80514 -9.1067,-15.56918 -12.0352,-23.580079 -2.6372,-7.21406 -7.074,-23.390125 -8.3105,-30.296875 -2.3154,-12.933169 -2.9155,-23.796031 -3.1914,-57.7773435 -0.091,-11.2713487 -0.3684,-63.2425095 -0.3692,-69.4140625 0,-6.800882 -0.2248,-62.08614 -0.4297,-106.21484 -0.085,-18.30021 -0.2146,-48.35003 -0.289,-66.77735 -0.074,-18.42727 -0.1913,-46.17161 -0.2578,-61.65429 -0.075,-17.54292 0.08,-28.19717 0.4121,-28.27539 0.3311,-0.0782 0.6688,-0.91297 0.8906,-2.20508 0.1962,-1.14361 0.7439,-3.33855 1.2188,-4.87696 0.9425,-3.05329 0.7136,-8.30595 -0.379,-8.66992 -0.322,-0.10726 -0.6824,-0.97476 -0.8007,-1.92773 -0.118,-0.95293 -0.5111,-1.83023 -0.8731,-1.95117 -0.8789,-0.29296 -0.9768,-2.60979 -0.1328,-3.13477 0.8018,-0.49852 1.3396,-3.62403 1.1113,-6.44727 -0.1175,-1.45331 0.019,-2.25143 0.4239,-2.5039 1.5152,-0.94216 1.6139,-9.69 0.1152,-10.18946 -0.3761,-0.12532 -0.8746,-0.6955 -1.1074,-1.26757 -0.1066,-0.26168 -0.1883,-0.86405 -0.2578,-1.5918 z"
           transform="matrix(0.26458333,0,0,0.26458333,0,40.999976)"
           id="path5154" />
        <g
           id="g5293"
           style="fill:#c58940;fill-opacity:1;stroke:#2f0e07;stroke-width:1.5;stroke-miterlimit:4;stroke-dasharray:none;stroke-opacity:1;paint-order:stroke fill markers">
          <rect
             y="-60.500103"
             x="332.29315"
             height="3.1857679"
             width="27.318228"
             id="rect5212"
             style="fill:#c58940;fill-opacity:1;stroke:#2f0e07;stroke-width:1.5;stroke-miterlimit:4;stroke-dasharray:none;stroke-opacity:1;paint-order:stroke fill markers" />
          <rect
             y="-116.53694"
             x="341.33859"
             height="54.965141"
             width="9.2270002"
             id="rect5234"
             style="fill:#c58940;fill-opacity:1;stroke:#2f0e07;stroke-width:1.5;stroke-miterlimit:4;stroke-dasharray:none;stroke-opacity:1;paint-order:stroke fill markers" />
          <path
             inkscape:connector-curvature="0"
             id="rect5266"
             d="m 345.98274,-131.70744 -4.64415,4.64416 v 3.884 5.56865 h 9.22682 v -5.63066 -3.884 z"
             style="fill:#c58940;fill-opacity:1;stroke:#2f0e07;stroke-width:1.5;stroke-miterlimit:4;stroke-dasharray:none;stroke-opacity:1;paint-order:stroke fill markers" />
        </g>
      </g>
    </g>
  </g>
</svg>
