<?xml version="1.0" encoding="UTF-8" standalone="no"?>
<!-- Created with Inkscape (http://www.inkscape.org/) -->

<svg
   xmlns:dc="http://purl.org/dc/elements/1.1/"
   xmlns:cc="http://creativecommons.org/ns#"
   xmlns:rdf="http://www.w3.org/1999/02/22-rdf-syntax-ns#"
   xmlns:svg="http://www.w3.org/2000/svg"
   xmlns="http://www.w3.org/2000/svg"
   xmlns:sodipodi="http://sodipodi.sourceforge.net/DTD/sodipodi-0.dtd"
   xmlns:inkscape="http://www.inkscape.org/namespaces/inkscape"
   width="256mm"
   height="256mm"
   viewBox="0 0 256.00001 256.00002"
   version="1.1"
   id="svg952"
   inkscape:version="0.92.5 (2060ec1f9f, 2020-04-08)"
   sodipodi:docname="Blacklight.svg">
  <defs
     id="defs946" />
  <sodipodi:namedview
     id="base"
     pagecolor="#ffffff"
     bordercolor="#666666"
     borderopacity="1.0"
     inkscape:pageopacity="0.0"
     inkscape:pageshadow="2"
     inkscape:zoom="1.2179914"
     inkscape:cx="654.0703"
     inkscape:cy="569.30429"
     inkscape:document-units="mm"
     inkscape:current-layer="layer1"
     showgrid="false"
     units="mm"
     inkscape:window-width="3840"
     inkscape:window-height="2056"
     inkscape:window-x="0"
     inkscape:window-y="50"
     inkscape:window-maximized="1"
     showguides="true"
     inkscape:guide-bbox="true" />
  <metadata
     id="metadata949">
    <rdf:RDF>
      <cc:Work
         rdf:about="">
        <dc:format>image/svg+xml</dc:format>
        <dc:type
           rdf:resource="http://purl.org/dc/dcmitype/StillImage" />
        <dc:title />
      </cc:Work>
    </rdf:RDF>
  </metadata>
  <g
     inkscape:label="Layer 1"
     inkscape:groupmode="layer"
     id="layer1"
     transform="translate(0,-40.999976)">
    <g
       id="g4909"
       transform="matrix(1.0106678,0,0,1.0106678,233.25467,-0.91955992)">
      <g
         id="g4890">
        <path
           style="fill:#5c100e;fill-opacity:1;stroke:none;stroke-width:1.47920358"
           d="m -145.33384,255.68263 c -8.87242,-3.85271 -16.33828,-10.85019 -17.81283,-16.69531 -3.01847,-11.9652 -3.24595,-19.4854 -0.92867,-30.70407 3.13034,-15.15502 5.99523,-20.11922 8.89921,-15.42046 0.5026,0.81355 2.53901,1.47924 4.52493,1.47924 2.44492,0 3.61724,0.83575 3.63088,2.5886 0.0112,1.42372 0.44893,4.19139 0.97322,6.15043 0.82435,3.0808 0.53112,3.45147 -2.17192,2.74463 -2.65614,-0.69464 -3.46165,0.21357 -5.36913,6.05299 -3.57698,10.95059 -4.29516,18.64193 -2.3193,24.83871 2.13978,6.71072 10.70237,16.19019 15.77407,17.46313 1.96256,0.49254 3.16897,1.54169 2.68091,2.33137 -1.14078,1.84583 -1.90632,1.76526 -7.88137,-0.82926 z"
           id="path4790"
           inkscape:connector-curvature="0" />
        <path
           style="fill:#5c100e;fill-opacity:1;stroke:none;stroke-width:1.47920358"
           d="m -70.834707,256.51189 c -0.488068,-0.78968 0.718292,-1.83883 2.680847,-2.33137 5.071706,-1.27294 13.634351,-10.75241 15.774076,-17.46313 1.975861,-6.19678 1.257737,-13.88812 -2.319298,-24.83871 -1.907432,-5.83948 -2.712938,-6.74763 -5.369075,-6.05299 -2.702987,0.70684 -2.996274,0.336 -2.171983,-2.74463 0.524407,-1.95904 0.962102,-4.72671 0.973227,-6.15043 0.01118,-1.75285 1.185953,-2.5886 3.63093,-2.5886 1.985869,0 4.02211,-0.66569 4.52488,-1.47924 2.904028,-4.69876 5.768866,0.26555 8.899205,15.42046 2.317285,11.21867 2.089855,18.73887 -0.92867,30.70407 -1.503392,5.95939 -9.111874,12.98751 -18.146988,16.76262 -6.219698,2.59872 -6.400724,2.617 -7.547151,0.76195 z"
           id="path4788"
           inkscape:connector-curvature="0" />
        <path
           style="fill:#5c100e;fill-opacity:1;stroke:none;stroke-width:1.47920358"
           d="m -163.95022,180.76034 c -1.57154,-0.91195 -4.73336,-3.57726 -7.02621,-5.92283 -4.0334,-4.1261 -4.16892,-4.76635 -4.16892,-19.69393 0,-15.15536 0.0816,-15.52211 4.60008,-20.66839 l 4.60013,-5.23926 5.06617,4.44817 c 2.7864,2.44649 5.70865,4.44818 6.49392,4.44818 0.78527,0 1.42775,1.74916 1.42775,3.88704 0,3.70646 -0.27506,3.84315 -5.91685,2.94093 -3.25423,-0.5205 -5.9168,-0.72769 -5.9168,-0.46068 0,0.26724 -0.68564,4.19453 -1.52368,8.72785 -1.55857,8.43115 -0.028,20.62825 2.70326,21.53858 0.73697,0.24543 3.56491,2.08818 6.28439,4.09457 l 4.9444,3.64787 -4.35514,-0.0447 c -2.39539,-0.0224 -5.64101,-0.79108 -7.2125,-1.70303 z"
           id="path4786"
           inkscape:connector-curvature="0" />
        <path
           style="fill:#5c100e;fill-opacity:1;stroke:none;stroke-width:1.47920358"
           d="m -50.960196,178.86051 c 2.719423,-2.00639 5.547362,-3.84891 6.284326,-4.09456 2.730996,-0.91034 4.261895,-13.10743 2.703322,-21.53858 -0.838044,-4.53333 -1.523742,-8.46084 -1.523742,-8.72785 0,-0.26724 -2.662566,-0.0598 -5.916795,0.46067 -5.6419,0.90223 -5.916795,0.76553 -5.916795,-2.94093 0,-2.13788 0.642483,-3.88704 1.427695,-3.88704 0.785268,0 3.707522,-2.00169 6.493922,-4.44817 l 5.066171,-4.44818 4.600131,5.23926 c 4.518508,5.14629 4.600132,5.51304 4.600132,20.66839 0,14.97723 -0.124114,15.55581 -4.226394,19.75269 -5.413241,5.53769 -9.352162,7.61211 -14.453778,7.61211 h -4.082657 z"
           id="path4784"
           inkscape:connector-curvature="0" />
        <path
           style="fill:#5c100e;fill-opacity:1;stroke:none;stroke-width:1.47920358"
           d="m -155.91573,122.34926 c -1.22033,-0.34606 -3.47942,-3.34586 -5.02021,-6.66606 -2.1977,-4.73582 -4.3419,-6.71285 -9.94975,-9.17443 -3.9316,-1.72579 -7.16402,-3.58582 -7.1832,-4.13337 -0.0168,-0.54733 1.88144,-2.911964 4.22365,-5.254184 3.10619,-3.106187 4.54361,-6.331456 5.31217,-11.919462 1.66926,-12.136885 7.73494,-17.461178 16.19438,-14.214944 3.62841,1.392305 2.76611,3.294146 -1.72803,3.811285 -3.73318,0.429365 -4.22237,1.249463 -5.94698,9.967641 -1.0335,5.224723 -2.61454,10.385657 -3.51336,11.468685 -1.26584,1.525252 0.085,3.635066 5.994,9.360209 4.19554,4.06516 8.24057,7.39117 8.98899,7.39117 1.64736,0 -2.11467,9.41747 -3.89687,9.75498 -0.69079,0.13082 -2.25445,-0.0447 -3.47479,-0.39135 z"
           id="path4782"
           inkscape:connector-curvature="0" />
        <path
           style="fill:#5c100e;fill-opacity:1;stroke:none;stroke-width:1.47920358"
           d="m -58.760774,118.61988 c -1.787008,-4.30606 -1.747314,-5.06025 0.329851,-6.27343 1.298661,-0.75843 5.258547,-4.26888 8.799745,-7.80097 4.896159,-4.883575 6.055053,-6.884147 4.837568,-8.351088 -0.880533,-1.061001 -2.446597,-6.203933 -3.480148,-11.428656 -1.72456,-8.718178 -2.213746,-9.538108 -5.946985,-9.967641 -4.494132,-0.517139 -5.356384,-2.41898 -1.72797,-3.811285 8.45944,-3.246234 14.525115,2.078059 16.194327,14.214944 0.768553,5.588006 2.205975,8.813275 5.312218,11.919462 2.342164,2.34222 4.24283,4.706574 4.223654,5.254184 -0.01677,0.54733 -3.18099,2.37638 -7.026211,4.06393 -5.204261,2.28402 -7.747578,4.55272 -9.94975,8.87522 -1.627171,3.19379 -2.958426,5.89063 -2.958426,5.99294 0,0.10231 -1.479799,0.64075 -3.288444,1.19646 -2.739941,0.84191 -3.627239,0.194 -5.319653,-3.88407 z"
           id="path4780"
           inkscape:connector-curvature="0" />
        <path
           style="fill:#5c100e;fill-opacity:1;stroke:none;stroke-width:1.47920358"
           d="m -131.83992,85.217855 c -3.7759,-2.933659 -3.58106,-3.32702 5.84501,-11.800716 4.32289,-3.886089 8.41784,-6.286619 10.72423,-6.286619 4.71591,0 4.69925,1.031482 -0.0772,4.788761 -3.42088,2.690911 -6.05494,7.105096 -6.27023,10.507757 -0.0788,1.243761 -4.79581,5.305677 -6.19253,5.3324 -0.407,0.0056 -2.21984,-1.135916 -4.02904,-2.541583 z"
           id="path4778"
           inkscape:connector-curvature="0" />
        <path
           style="fill:#5c100e;fill-opacity:1;stroke:none;stroke-width:1.47920358"
           d="m -84.174373,85.509689 c -1.627114,-1.229505 -2.871713,-2.706006 -2.765826,-3.281176 0.458437,-2.490093 -2.48126,-7.5424 -5.998922,-10.3094 -4.776629,-3.757279 -4.793289,-4.788761 -0.07715,-4.788761 2.306383,0 6.401395,2.40053 10.724229,6.286619 9.42607,8.473697 9.620906,8.867058 5.84501,11.800716 -3.976825,3.089751 -4.022166,3.091484 -7.72706,0.291834 z"
           id="path4766-9-6"
           inkscape:connector-curvature="0" />
      </g>
      <g
         id="g4894">
        <ellipse
           style="fill:#5c100e;fill-opacity:1;stroke:none;stroke-width:2.53323674;stroke-miterlimit:4;stroke-dasharray:none;stroke-opacity:1;paint-order:stroke fill markers"
           id="path4783-1"
           cx="-104.14369"
           cy="279.73996"
           rx="7.1194162"
           ry="7.1194167" />
        <ellipse
           style="fill:#5c100e;fill-opacity:1;stroke:none;stroke-width:2.53323674;stroke-miterlimit:4;stroke-dasharray:none;stroke-opacity:1;paint-order:stroke fill markers"
           id="path4783-2-2"
           cx="-104.14369"
           cy="56.512043"
           rx="7.1194162"
           ry="7.1194167" />
      </g>
      <g
         id="g4915">
        <path
           sodipodi:nodetypes="cssccsccccssccccssscscscccccccccccccscccccscsccccccsccccc"
           style="fill:#5c100e;fill-opacity:1;stroke-width:1.47920656"
           d="m -113.14397,264.00644 c -11.51237,-7.75816 -21.80809,-29.28789 -28.80553,-60.23623 -4.07869,-18.03934 -8.0496,-48.40546 -8.0496,-61.55692 0,-21.89732 12.92268,-45.023589 30.32374,-54.266809 8.17925,-4.34476 22.884148,-4.34476 31.063348,0 17.40105,9.24322 30.32374,32.369489 30.32374,54.266809 0,13.15146 -3.97085,43.51758 -8.04961,61.55692 -6.99743,30.94834 -17.29315,52.47807 -28.80553,60.23623 -6.336168,4.26996 -11.664388,4.26996 -18.000558,0 z m 6.04187,-41.00656 c 0,-30.07719 -0.0939,-31.06334 -2.95843,-31.06334 -2.85953,0 -2.95837,0.98615 -2.95837,29.51063 0,26.54482 0.25997,29.66214 2.5886,31.01833 1.42373,0.82927 2.75499,1.528 2.95838,1.55271 0.2035,0.0224 0.36955,-13.93348 0.36955,-31.01833 z m 11.833688,-1.53124 c 0,-28.54595 -0.099,-29.5321 -2.95844,-29.5321 -2.864678,0 -2.958438,0.98615 -2.958438,31.11539 0,30.657 0.0447,31.09207 2.958438,29.5321 2.80676,-1.50217 2.95844,-3.0972 2.95844,-31.11539 z m -24.324208,-30.58952 c -0.40141,-1.04557 -1.74882,-1.90101 -2.99471,-1.90101 -3.56894,0 -3.29499,42.11369 0.32314,49.71107 2.58777,5.43349 2.58878,5.427 2.99472,-20.23695 0.22306,-14.11965 0.0777,-26.52759 -0.32315,-27.57311 z m 36.095818,20.54845 c 0.057,-20.80898 -0.15039,-22.62562 -2.52661,-22.16903 -2.33971,0.44949 -2.62008,3.12677 -2.91583,27.84354 l -0.32705,27.3463 2.85388,-5.17721 c 2.46025,-4.46317 2.86238,-8.30359 2.91583,-27.8436 z m -46.662748,-26.80707 -3.92047,-3.77803 0.85476,12.01319 c 0.47018,6.60725 2.04703,16.92467 3.50431,22.92769 l 2.6496,10.91455 0.41594,-19.14971 c 0.41316,-19.02074 0.38968,-19.17516 -3.5043,-22.92769 z m 53.409378,22.4489 c 1.20486,-6.9091 2.19061,-15.58621 2.19061,-19.2825 v -6.72047 l -3.69797,3.47406 c -3.58979,3.37243 -3.69529,4.04029 -3.60427,22.81577 0.10399,21.41065 1.33998,21.34127 5.11163,-0.28681 z m -13.5182,-37.82512 c 10.578,-8.06822 17.32564,-30.63582 12.15167,-40.64127 -3.10642,-6.0071 -7.27367,-6.09632 -12.7141,-0.27227 -3.74353,4.00742 -5.03409,4.43762 -13.312858,4.43762 -8.27883,0 -9.56938,-0.43048 -13.31286,-4.43762 -5.32509,-5.7005 -9.61243,-5.72566 -12.5353,-0.0732 -6.25566,12.09716 2.66872,36.85883 15.67163,43.48247 7.06228,3.59756 17.480678,2.5166 24.051818,-2.49541 z"
           id="path4821"
           inkscape:connector-curvature="0" />
        <circle
           r="8.9063196"
           cy="151.86963"
           cx="-104.14368"
           id="path4911"
           style="fill:#5c100e;fill-opacity:1;stroke:none;stroke-width:0.67645669;stroke-miterlimit:4;stroke-dasharray:none;stroke-opacity:1;paint-order:stroke fill markers" />
      </g>
    </g>
  </g>
</svg>
