<?xml version="1.0" encoding="UTF-8" standalone="no"?>
<svg
   xmlns:dc="http://purl.org/dc/elements/1.1/"
   xmlns:cc="http://creativecommons.org/ns#"
   xmlns:rdf="http://www.w3.org/1999/02/22-rdf-syntax-ns#"
   xmlns:svg="http://www.w3.org/2000/svg"
   xmlns="http://www.w3.org/2000/svg"
   xmlns:sodipodi="http://sodipodi.sourceforge.net/DTD/sodipodi-0.dtd"
   xmlns:inkscape="http://www.inkscape.org/namespaces/inkscape"
   viewBox="0 0 967.55911 967.55911"
   version="1.1"
   id="svg8"
   sodipodi:docname="Bravil.svg"
   inkscape:version="0.92.5 (2060ec1f9f, 2020-04-08)"
   width="256mm"
   height="256mm">
  <metadata
     id="metadata14">
    <rdf:RDF>
      <cc:Work
         rdf:about="">
        <dc:format>image/svg+xml</dc:format>
        <dc:type
           rdf:resource="http://purl.org/dc/dcmitype/StillImage" />
        <dc:title></dc:title>
      </cc:Work>
    </rdf:RDF>
  </metadata>
  <defs
     id="defs12" />
  <sodipodi:namedview
     pagecolor="#ffffff"
     bordercolor="#666666"
     borderopacity="1"
     objecttolerance="10"
     gridtolerance="10"
     guidetolerance="10"
     inkscape:pageopacity="0"
     inkscape:pageshadow="2"
     inkscape:window-width="3840"
     inkscape:window-height="2056"
     id="namedview10"
     showgrid="false"
     inkscape:zoom="0.921875"
     inkscape:cx="-234.10869"
     inkscape:cy="853.23643"
     inkscape:window-x="0"
     inkscape:window-y="50"
     inkscape:window-maximized="1"
     inkscape:current-layer="g5289"
     units="mm" />
  <g
     id="g5289"
     transform="translate(0,455.55911)">
    <path
       style="fill:#eaa018;fill-opacity:1;stroke:#000000;stroke-width:35.54114532;stroke-miterlimit:4;stroke-dasharray:none;stroke-opacity:1;paint-order:stroke fill markers"
       d="m 452.94453,460.32711 c -27.78074,-1.93466 -32.85448,-4.38134 -42.71709,-20.59911 -6.15556,-10.12201 -15.70111,-37.4265 -21.2123,-60.67665 -5.51113,-23.25015 -18.90564,-65.03549 -29.76551,-92.85629 -10.85987,-27.82079 -22.61464,-71.55978 -26.12185,-97.19776 -3.50715,-25.63798 -10.38951,-52.34374 -15.29417,-59.34613 -11.26377,-16.08126 -11.72586,-71.434216 -0.74418,-89.143062 4.49537,-7.249173 12.72574,-31.9198846 18.28972,-54.823742 14.19444,-58.430574 41.49232,-106.436596 78.87615,-138.711446 17.34316,-14.97301 31.53307,-30.24778 31.53307,-33.944 0,-3.69614 -9.69104,-18.04209 -21.53567,-31.87988 -11.84465,-13.83775 -19.93814,-26.75713 -17.98563,-28.7097 1.95257,-1.95251 15.53573,1.02726 30.18487,6.62183 33.42013,12.76328 62.89518,45.15366 62.89518,69.11613 0,18.67921 -2.63777,19.84762 -40.16906,17.79282 -25.12769,-1.37575 -25.73379,12.22829 -1.6192,36.34289 l 17.7214,17.721454 -15.90821,24.038886 c -8.74947,13.221392 -17.39361,35.167511 -19.20913,48.769232 -3.25531,24.3877384 -3.68324,24.7743104 -30.89281,27.90440041 -15.17552,1.74578099 -32.08919,6.90664299 -37.58598,11.46854059 -14.6948,12.195626 -27.06229,38.889783 -27.06229,58.41165 0,38.265937 54.90403,60.300717 78.28999,31.420287 15.39295,-19.009478 14.64104,-33.753909 -0.92735,-18.185448 -15.01288,15.01288 -30.9072,15.16605 -44.24631,0.42669 -7.10588,-7.851954 -9.04631,-15.838165 -6.14497,-25.291639 8.9386,-29.125363 12.0628,-30.032651 88.75481,-25.773958 54.23776,3.011786 79.71096,1.876525 104.4598,-4.65538 18.00169,-4.751198 41.86997,-7.275301 53.04066,-5.609152 36.12895,5.388845 46.2938,-26.4185096 24.08554,-75.367043 -6.53237,-14.397717 -10.5763,-27.478376 -8.98661,-29.068112 7.93121,-7.931218 40.833,14.703179 53.37885,36.72136 25.24765,44.31004841 24.52341,81.359549 -1.75352,89.699537 -10.36208,3.288805 -11.0559,6.00144 -5.56428,21.754793 14.12868,40.529462 -11.1332,107.658562 -61.07887,162.307172 -16.12481,17.64309 -29.31788,34.72374 -29.31788,37.95691 0,3.23316 5.54053,9.55719 12.31226,14.05346 12.18313,8.08933 12.02715,8.7678 -14.8732,64.69884 -54.02531,112.3293 -52.60053,110.08251 -69.80967,110.08251 -8.70996,0 -17.85958,2.00845 -20.33244,4.46323 -2.47287,2.45478 -6.05827,3.96787 -7.96758,3.36242 -1.90925,-0.60545 -17.65772,-2.08879 -34.99654,-3.2963 z m 64.56942,-148.13237 c 6.79285,-16.41212 6.17235,-22.21141 -5.20674,-48.66283 -13.58036,-31.5683 -11.98033,-50.57855 3.99797,-47.50143 6.00846,1.15711 11.07441,10.99847 13.7602,26.73105 2.3379,13.69486 8.01573,32.08557 12.61749,40.8683 7.60314,14.51115 6.78922,20.03128 -8.91789,60.48217 -9.50655,24.48242 -16.40154,45.3967 -15.32208,46.47608 1.07938,1.0794 13.62474,-20.81281 27.87858,-48.64937 25.60042,-49.99555 25.76782,-50.71568 13.74591,-59.13612 -6.69354,-4.68835 -13.921,-17.22426 -16.06108,-27.85752 -2.14003,-10.63331 -5.17044,-23.89356 -6.73424,-29.4673 -2.02905,-7.2318 4.13003,-13.69159 21.5061,-22.55621 13.39219,-6.83219 29.64125,-21.0174 36.10894,-31.52278 10.87755,-17.66819 11.01079,-19.54691 1.77649,-25.05157 -18.92468,-11.28119 -31.85579,-26.81043 -31.85579,-38.25623 0,-25.050508 37.47613,-40.631868 52.93277,-22.007768 8.42991,10.15742 2.90276,25.984738 -10.29489,29.480038 -7.53798,1.99638 -6.98983,2.78905 2.29196,3.31428 26.75789,1.5141 36.55557,-35.956188 14.59779,-55.827739 -23.00693,-20.820963 -71.63054,-6.988167 -83.297,23.696951 -7.20211,18.942898 2.40312,50.837318 19.31114,64.123148 l 13.38469,10.51728 -14.80578,12.43348 c -12.23139,10.27162 -20.73468,12.00466 -48.90444,9.96705 -32.94571,-2.38307 -34.29628,-1.89955 -39.94376,14.30072 -5.70548,16.36684 -2.75523,194.56793 3.52768,213.07705 1.69246,4.98585 10.35023,-10.77649 19.61209,-35.70583 9.1201,-24.54776 20.05233,-53.01697 24.29389,-63.2649 z m -78.57212,35.33074 c -4.16502,-19.00306 -6.90413,-56.56631 -6.08683,-83.47387 l 1.48596,-48.92288 -21.6206,0.81278 c -11.89135,0.44693 -22.89273,4.12795 -24.44754,8.1798 -1.55488,4.05183 2.71626,25.31395 9.49138,47.24916 6.77506,21.93517 12.31834,50.44484 12.31834,63.35477 0,21.98753 10.64426,50.60558 26.03538,69.99849 10.39884,13.1026 11.83898,-16.06703 2.82391,-57.19825 z M 552.20115,-22.183185 c -0.38741,-2.226259 -0.36598,-6.120752 0.0477,-8.654432 1.44638,-8.852963 -22.10602,-49.056664 -35.95732,-61.379105 -7.68289,-6.834869 -24.0111,-18.434558 -36.28499,-25.776988 -12.27387,-7.34249 -22.31614,-15.44432 -22.31614,-18.00413 0,-2.55975 10.3766,-4.65408 23.05913,-4.65408 30.08787,0 36.45059,-4.55137 36.45059,-26.07365 0,-41.75161 -22.96587,-64.65469 -106.75806,-106.46629 -118.87888,-59.31958 -155.69403,-88.9794 -146.4799,-118.01035 7.65004,-24.10324 50.90491,-20.6056 50.90491,4.11614 0,8.4027 3.69133,10.1202 17.42034,8.10511 13.00668,-1.90894 19.40035,0.61381 25.23534,9.95715 4.29833,6.88266 13.84303,12.51389 21.21057,12.51389 7.36754,0 16.74032,5.35587 20.8284,11.90194 4.45448,7.13278 13.87784,11.90194 23.51687,11.90194 9.51567,0 19.60519,5.02721 24.70636,12.31013 4.74232,6.77059 12.25847,11.80917 16.70265,11.19687 18.39279,-2.5341 28.81913,0.9121 34.41965,11.37677 7.3635,13.75876 -5.66682,34.86097 -17.14552,27.7667 -5.9364,-3.66884 -5.82541,-5.6567 0.53499,-9.58779 10.99234,-6.79363 -2.43336,-20.28806 -15.28007,-15.35833 -19.55234,7.50293 -9.8588,27.07693 24.75104,49.97948 18.74265,12.40265 37.05647,28.52544 40.69739,35.82842 18.29382,36.69375 51.05785,49.06743 55.07262,20.79883 1.73202,-12.19527 -4.03684,-16.49574 -18.70915,-13.94694 -2.69805,0.46894 -3.20948,-1.89217 -1.13651,-5.24626 5.12015,-8.28471 22.88964,-7.69889 31.63125,1.04273 21.26819,21.26818 -2.38371,61.76609 -33.41333,57.21194 -14.3741,-2.10969 -18.23104,0.15115 -23.33722,13.67878 -7.10998,18.8365 -0.2904,29.08562 19.35382,29.08562 22.16445,0 49.90676,63.713244 32.44214,74.506936 -11.17641,6.907412 -41.45025,13.999907 -42.1677,9.878969 z"
       id="path895"
       inkscape:connector-curvature="0" />
  </g>
</svg>
