<?xml version="1.0" encoding="UTF-8" standalone="no"?>
<svg
   xmlns:dc="http://purl.org/dc/elements/1.1/"
   xmlns:cc="http://creativecommons.org/ns#"
   xmlns:rdf="http://www.w3.org/1999/02/22-rdf-syntax-ns#"
   xmlns:svg="http://www.w3.org/2000/svg"
   xmlns="http://www.w3.org/2000/svg"
   xmlns:sodipodi="http://sodipodi.sourceforge.net/DTD/sodipodi-0.dtd"
   xmlns:inkscape="http://www.inkscape.org/namespaces/inkscape"
   viewBox="0 0 967.55911 967.55911"
   version="1.1"
   id="svg8"
   sodipodi:docname="Chorrol.svg"
   inkscape:version="0.92.5 (2060ec1f9f, 2020-04-08)"
   width="256mm"
   height="256mm">
  <metadata
     id="metadata14">
    <rdf:RDF>
      <cc:Work
         rdf:about="">
        <dc:format>image/svg+xml</dc:format>
        <dc:type
           rdf:resource="http://purl.org/dc/dcmitype/StillImage" />
        <dc:title></dc:title>
      </cc:Work>
    </rdf:RDF>
  </metadata>
  <defs
     id="defs12" />
  <sodipodi:namedview
     pagecolor="#ffffff"
     bordercolor="#666666"
     borderopacity="1"
     objecttolerance="10"
     gridtolerance="10"
     guidetolerance="10"
     inkscape:pageopacity="0"
     inkscape:pageshadow="2"
     inkscape:window-width="3840"
     inkscape:window-height="2056"
     id="namedview10"
     showgrid="false"
     inkscape:zoom="1.3037281"
     inkscape:cx="59.751795"
     inkscape:cy="689.42995"
     inkscape:window-x="0"
     inkscape:window-y="50"
     inkscape:window-maximized="1"
     inkscape:current-layer="g5289"
     units="mm" />
  <g
     id="g5289"
     transform="translate(0,455.55911)">
    <path
       style="fill:#000000;stroke-width:2.4312427"
       d="m 389.57606,480.30078 c -4.15411,-4.15412 -1.66529,-13.28757 4.23183,-15.52962 5.98212,-2.27441 7.13914,-5.03123 9.50347,-22.64402 l 1.24127,-9.24635 -11.41655,1.7026 c -13.78984,2.0566 -30.8756,9.06089 -33.68296,13.80832 -1.12528,1.90295 -6.14052,4.10275 -11.14499,4.88847 l -9.09906,1.42859 3.4464,-6.66463 c 1.89554,-3.6655 6.26362,-7.94819 9.70684,-9.51704 7.26331,-3.30935 7.61745,-5.43651 2.53981,-15.25557 -2.73317,-5.28536 -3.05583,-8.43726 -1.21561,-11.87565 3.5455,-6.62487 3.10578,-13.63139 -1.0732,-17.09964 -2.88034,-2.39043 -5.25124,-1.93564 -12.15621,2.33186 l -8.57801,5.3015 v -6.35448 c 0,-3.49496 1.48634,-9.91181 3.303,-14.25966 3.67087,-8.78559 2.63089,-22.61344 -1.82944,-24.32504 -1.58676,-0.60888 -9.18062,2.59975 -16.87532,7.1303 -10.25208,6.03636 -16.88462,8.23741 -24.82231,8.23741 h -10.83201 v 9.70972 c 0,8.59154 -1.1619,10.55138 -10.08975,17.01868 -13.57565,9.83414 -17.32146,9.277 -6.18845,-0.92047 7.04187,-6.45006 8.98447,-10.04836 8.98447,-16.64186 0,-11.04627 -6.99885,-17.66808 -16.32571,-15.44617 -9.34885,2.22716 -11.01959,2.2515 -15.88826,0.2313 -3.72348,-1.54488 -4.25469,-0.23244 -4.25469,10.51318 0,9.9321 -1.03256,13.00168 -5.40344,16.06318 -9.34008,6.54206 -12.63881,4.4875 -5.81525,-3.62189 5.40699,-6.42583 6.03775,-8.92089 4.76345,-18.84211 -1.92718,-15.00435 -3.92251,-16.88701 -13.63646,-12.8665 -4.32714,1.79093 -11.69676,3.72238 -16.37692,4.29211 l -8.50934,1.03578 6.68591,-5.19031 c 4.90144,-3.805 6.68591,-7.33791 6.68591,-13.23677 0,-12.54474 -12.934,-13.94721 -20.60836,-2.23461 -2.28461,3.48669 -6.17545,5.82414 -9.69475,5.82414 -8.30982,0 -9.49202,-3.56168 -2.43568,-7.33814 3.29733,-1.76467 5.99512,-4.10298 5.99512,-5.19629 0,-1.09326 3.82923,-3.58771 8.50934,-5.5432 7.62414,-3.18554 8.50938,-4.52376 8.50938,-12.86351 0,-12.40849 -5.91269,-21.02517 -12.14026,-17.69227 -2.50733,1.34189 -6.27178,2.4398 -8.36549,2.4398 -6.64267,0 -4.11061,-4.98361 4.32223,-8.50707 4.47092,-1.86807 9.66769,-5.7083 11.54842,-8.53376 l 3.41945,-5.13728 13.89381,6.36548 c 21.47032,9.83675 27.03616,9.94193 51.74974,0.97787 16.80986,-6.0972 24.6986,-10.58033 34.03739,-19.34312 12.41208,-11.6465 29.43043,-21.74071 36.65386,-21.74071 2.21423,0 9.09569,3.68765 15.29215,8.19477 6.19646,4.50712 14.74447,9.96544 18.99556,12.12956 4.25107,2.16412 8.42752,6.13489 9.28101,8.82391 3.85149,12.13504 25.44888,2.31878 39.30663,-17.8653 9.63923,-14.03969 10.17203,-21.50354 2.21034,-30.96543 -3.24537,-3.8569 -7.0967,-12.76728 -8.55847,-19.80087 -3.94575,-18.98543 -13.05222,-36.7463 -25.86304,-50.44205 -11.95635,-12.78229 -18.33819,-14.85955 -25.56348,-8.32078 -6.42852,5.81775 -13.1526,2.34837 -15.74732,-8.12489 -2.26533,-9.14404 -7.16334,-12.22669 -14.78158,-9.30331 -3.03182,1.16338 -2.27335,3.11067 3.99031,10.2446 5.67357,6.46182 7.2994,10.18171 6.10341,13.96441 -3.95286,12.50237 -2.83786,14.52895 12.16796,22.11609 26.64846,13.47378 36.91903,21.96124 38.81691,32.07775 1.35137,7.20344 0.81158,9.73364 -2.6104,12.23584 -6.15901,4.50357 -9.57222,3.92738 -13.71761,-2.31576 -3.31706,-4.99555 -5.5226,-5.47029 -25.41361,-5.47029 -21.10586,0 -22.06065,-0.24492 -30.78629,-7.90156 -4.95273,-4.34585 -9.64055,-7.90152 -10.41743,-7.90152 -0.77692,0 -6.59883,1.84199 -12.93759,4.09335 -11.18608,3.97292 -11.78275,3.94121 -20.28986,-1.07808 -6.22152,-3.67079 -11.14533,-4.78507 -16.96853,-3.84011 -7.40742,1.20208 -8.50711,0.59875 -11.32973,-6.2157 -3.18819,-7.69689 -7.4857,-9.08753 -18.74797,-6.06663 -5.60141,1.50251 -9.88138,9.78849 -11.0414,21.37606 -1.01019,10.09134 -11.22084,17.12065 -21.94635,15.10855 -4.56801,-0.85697 -10.41014,-3.10405 -12.98252,-4.99351 -4.54042,-3.33506 -4.54874,-3.65386 -0.28498,-10.90968 l 4.39211,-7.47425 h -13.76938 c -11.19874,0 -13.50992,-0.67623 -12.3795,-3.62211 0.93218,-2.42917 -0.58352,-4.11737 -4.60237,-5.12602 -3.29574,-0.82722 -5.99229,-2.83574 -5.99229,-4.46347 0,-3.52762 9.20364,-12.19449 15.19529,-14.30909 4.91202,-1.73363 5.84364,-12.83807 1.21561,-14.48995 -4.54258,-1.62135 6.31377,-12.45347 17.56724,-17.52809 5.86443,-2.6445 9.93581,-6.37769 10.82676,-9.92753 1.05517,-4.2042 3.74887,-6.12469 10.3195,-7.35738 4.89037,-0.9174 12.57597,-4.16836 17.07912,-7.22426 4.50316,-3.0559 9.51912,-6.0045 11.14658,-6.55242 4.83035,-1.62614 -2.47071,-8.674204 -9.88675,-9.544134 -3.95777,-0.46424 -6.91396,-2.61321 -7.72361,-5.61461 -0.72148,-2.67435 -3.31858,-7.8198 -5.77134,-11.43431 -4.31108,-6.35305 -4.31271,-6.82035 -0.0491,-14.03791 3.62283,-6.13298 3.86646,-8.21539 1.36449,-11.6625 -1.67524,-2.30803 -5.28038,-7.69029 -8.01146,-11.96057 -5.31213,-8.30605 -8.98851,-8.4626 -13.90371,-0.59213 -2.51535,4.02776 -2.35956,7.76882 0.85784,20.5979 7.22101,28.79302 -1.78141,49.755074 -21.36794,49.755074 -2.87387,0 -9.31139,-2.83166 -14.30558,-6.29265 -11.32947,-7.851364 -16.40485,-5.70859 -21.63553,9.13436 -3.00226,8.51932 -4.9754,10.67705 -10.33281,11.29943 -4.71753,0.54807 -6.62192,-0.3258 -6.62192,-3.03904 0,-2.43795 -2.17973,-3.80837 -6.05752,-3.80837 -3.4244,0 -7.377454,-2.11359 -9.094154,-4.86247 -1.81882,-2.91239 -5.66974,-4.86248 -9.60207,-4.86248 -7.27079,0 -9.8744,-2.86749 -10.84177,-11.940514 -0.92424,-8.66872 3.22088,-12.37194 13.84819,-12.37194 7.12819,0 9.61916,-1.12082 10.80673,-4.86247 2.791214,-8.79432 -0.85459,-14.31668 -10.46979,-15.8587 -17.34239,-2.78122 -20.14166,-3.76928 -21.62414,-7.63259 -0.82239,-2.14307 -0.25928,-5.87569 1.25151,-8.29472 2.25842,-3.61631 1.89441,-4.66877 -2.04756,-5.91988 -5.7538,-1.82621 -6.10514,-5.44071 -1.06972,-11.00481 3.38344,-3.73864 3.16075,-4.48501 -2.43122,-8.14901 -3.3857,-2.21841 -6.15582,-6.13432 -6.15582,-8.70202 0,-5.2128297 8.58474,-12.2380297 14.95475,-12.2380297 4.96645,0 11.78891,-6.33151 11.78891,-10.94059 0,-5.8547003 -7.0834,-10.6111103 -18.3095,-12.2945803 -12.23119,-1.83417 -20.59037,-9.85633 -20.59037,-19.76019 0,-6.74616 6.37584,-20.21695 9.56882,-20.21695 1.18265,0 8.34568,-5.9528 15.91785,-13.22844 l 13.76757,-13.22841 -8.56989,-1.60771 c -9.62804,-1.80624 -16.83167,-10.50282 -15.63934,-18.880636 0.60223,-4.23153 2.63233,-5.48162 9.87523,-6.0811 7.54378,-0.62434 9.11073,-1.67325 9.07993,-6.0781 -0.0495,-7.11017 -2.59748,-10.64715 -8.47211,-11.76148 -7.63846,-1.44895 -6.42497,-12.19759 1.82343,-16.15094 5.65448,-2.71013 6.68591,-4.71311 6.68591,-12.98381 0,-7.56605 1.60766,-11.38699 7.10343,-16.88274 8.56981,-8.56984 11.73562,-7.81017 27.331734,6.5584 11.37021,10.4753 19.68086,14.23651 27.97704,12.66179 3.28758,-0.62403 4.63683,-3.42886 5.17515,-10.7583 0.85535,-11.64553 -2.23219,-15.0669 -18.44054,-20.43438 -22.99536,-7.61504 -20.356,-17.47132 7.95765,-29.71707 10.01083,-4.32973 10.57262,-10.4376 1.39657,-15.18272 -5.6654,-2.9297 -7.44495,-5.50723 -7.44495,-10.78351 0,-8.72301 4.46989,-12.47542 16.83662,-14.13415 8.38424,-1.12455 10.09988,-2.41547 12.37595,-9.31193 5.47442,-16.58771 14.53938,-16.89232 32.78414,-1.10162 13.30972,11.51949 21.92273,14.37222 27.26464,9.03034 5.9938,-5.99382 2.07458,-15.99561 -7.90125,-20.16378 -10.15427,-4.24271 -10.73412,-9.18971 -1.73688,-14.81835 3.67725,-2.30047 7.13522,-4.50728 7.68438,-4.90399 0.54917,-0.39673 -0.9784,-4.39216 -3.39458,-8.87875 -6.44587,-11.96927 -3.60094,-19.51534 10.32177,-27.37812 6.33835,-3.57955 15.60352,-9.08959 20.58932,-12.24454 12.58057,-7.96092 18.89423,-7.62125 18.89423,1.01645 0,3.71404 -1.71118,9.19581 -3.80258,12.18174 -2.09144,2.98593 -3.16101,7.45049 -2.37683,9.92124 1.62697,5.12609 18.86294,13.72624 23.75054,11.85068 1.78485,-0.6849 5.18174,-7.38888 7.5487,-14.89773 4.70839,-14.93668 8.63048,-16.9477 14.7721,-7.57436 3.33445,5.08898 5.8857,6.0781 15.67751,6.0781 6.43223,0 12.41688,-0.72193 13.29925,-1.60433 0.88241,-0.88237 -2.97377,-5.8308 -8.56921,-10.99648 -9.56307,-8.82857 -9.92625,-9.63944 -6.05284,-13.51285 3.59467,-3.59471 5.12814,-3.7161 12.01346,-0.95115 15.77279,6.33393 16.77002,6.33585 15.3572,0.0295 -1.00827,-4.50033 1.34952,-8.67538 10.60618,-18.78081 11.34403,-12.38424 12.03054,-12.75508 14.62809,-7.90154 1.6348,3.05466 5.12349,5.09253 8.71801,5.09253 5.45666,0 5.99256,-0.95181 5.99256,-10.64289 0,-5.8536 1.36758,-11.69653 3.03904,-12.98432 1.67149,-1.28778 10.74478,-3.66879 20.16287,-5.29113 21.061,-3.62795 27.9214,-1.4736 35.98518,11.30024 6.96343,11.03081 22.82864,25.53255 26.56909,24.28573 4.28802,-1.42935 7.51819,-8.14272 5.92082,-12.30544 -0.81627,-2.12712 -5.75702,-6.04735 -10.97949,-8.71165 -9.5147,-4.85403 -17.10694,-16.83047 -13.92903,-21.97243 3.02211,-4.88984 13.22732,-2.76585 17.41439,3.62437 8.48712,12.95298 28.85223,17.53378 36.77144,8.27114 9.66266,-11.30183 18.19173,-18.26532 25.32665,-20.67772 14.21737,-4.80708 43.35597,4.35195 43.35597,13.62789 0,0.8975 6.29083,2.36475 13.97964,3.26054 16.07002,1.87228 29.78271,6.28083 29.78271,9.57497 0,1.24504 -2.2238,5.86189 -4.94177,10.25969 -5.618,9.09008 -5.58814,9.12426 13.78598,15.78995 18.27805,6.28856 19.65346,6.08827 21.65861,-3.15427 1.95164,-8.99594 4.72649,-11.45815 12.9725,-11.51118 8.9263,-0.0574 20.5485,8.39907 26.7789,19.48451 l 5.6411,10.037 11.6205,-1.5982 c 14.4486,-1.9872 18.2344,1.46543 29.3558,26.77173 l 7.764,17.66706 14.233,1.02951 c 10.7048,0.77432 15.7548,2.45915 20.3718,6.79656 6.4617,6.07055 12.1993,22.40915 9.9383,28.30122 -0.7331,1.91042 -8.4866,6.68312 -17.2299,10.60598 -17.8454,8.00669 -20.8224,12.56826 -18.0602,27.67345 2.2237,12.16042 10.3011,19.45784 19.1259,17.27904 9.5583,-2.35994 18.8646,-12.70531 21.755,-24.18406 4.4328,-17.60421 12.0396,-19.6334 26.858,-7.16458 8.9368,7.51986 11.6329,18.33796 6.4236,25.77518 -5.3973,7.70585 -4.7796,13.68593 2.4986,24.18839 l 6.3254,9.12751 -7.541,13.18031 c -4.1476,7.24916 -7.541,16.45525 -7.541,20.458 0,10.41165 8.6281,20.55069 16.6929,19.61614 8.8583,-1.02649 9.4944,-9.08147 1.4702,-18.61758 -5.8343,-6.93376 -6.1518,-8.35613 -3.5946,-16.1045 1.5427,-4.67446 3.5457,-8.89806 4.451,-9.38579 0.9053,-0.48771 9.786,-0.0977 19.7347,0.86654 15.6411,1.51605 18.8759,2.66839 23.9059,8.51616 4.4194,5.13785 5.4911,8.57271 4.4599,14.29488 -0.7465,4.1426 -0.5635,12.80657 0.4066,19.25325 1.7464,11.60542 1.8948,11.76557 15.0159,16.20251 7.2886,2.4647 14.6735,6.42522 16.4109,8.80117 4.0172,5.49388 4.0865,13.10418 0.1198,13.15276 -1.6715,0.0193 -4.6609,1.06277 -6.6432,2.31617 -3.0158,1.906886 -2.483,3.449246 3.2636,9.447366 7.8093,8.15115 7.6922,14.77391 -0.3318,18.77437 -8.326,4.15093 -8.4682,4.7381 -3.2315,13.34908 5.5725,9.1634 4.7901,11.99436 -3.3151,11.99436 -6.1562,0 -30.4654,17.78853 -30.4654,22.2934 0,1.50171 4.9233,7.99376 10.9406,14.42676 11.8724,12.6925903 12.6809,14.7274903 7.5447,18.9901103 -1.8677,1.55009 -2.8634,4.8543897 -2.2127,7.3428897 0.6508,2.48848 -0.011,6.7581 -1.4732,9.48802 -1.883,3.51857 -1.8984,5.43191 -0.053,6.57257 1.432,0.885 2.0301,3.10351 1.3293,4.93003 -0.701,1.82652 1.9596,6.55495 5.9123,10.50766 3.9527,3.95269 7.1806,9.73251 7.1732,12.84404 -0.026,11.04574 -5.3514,24.62596 -12.1163,30.90039 -3.7732,3.49969 -8.5328,10.426844 -10.5769,15.393714 -4.6984,11.41636 -11.5745,13.32264 -29.3827,8.14567 -14.6327,-4.25386 -21.3711,-11.21956 -20.277,-20.960994 0.9456,-8.41999 -7.0103,-9.25969 -10.7141,-1.13083 -2.2401,4.91648 -2.2461,8.18762 -0.026,14.325394 4.2668,11.79975 3.6129,15.06602 -4.3593,21.77419 -10.6988,9.00246 -21.0563,10.60868 -27.7654,4.30583 -6.2205,-5.84391 -14.197,-6.62105 -18.2188,-1.7751 -2.0984,2.52851 -1.8787,4.05479 0.918,6.37584 5.2724,4.37567 4.671,7.88254 -4.4967,26.22141 -4.4955,8.99259 -9.5076,20.465 -11.138,25.49419 -1.7051,5.25952 -6.4955,11.83722 -11.2764,15.48382 -4.5716,3.48691 -8.312,7.7554 -8.312,9.48551 0,1.73016 -5.6029,9.85119 -12.4509,18.04675 -12.5186,14.98178 -26.5918,24.42406 -36.4028,24.42406 -2.9068,0 -9.5118,1.26633 -14.6777,2.81409 -7.8629,2.35578 -10.0865,2.19156 -13.6539,-1.00849 -2.3437,-2.1024 -8.09051,-4.80072 -12.77063,-5.99618 -7.56759,-1.93308 -8.64389,-3.22319 -9.72498,-11.65678 -0.96688,-7.54269 -2.41932,-9.76509 -7.09818,-10.861 -8.27176,-1.93743 -12.13482,-14.40745 -10.55535,-34.0727 0.81581,-10.15722 2.79998,-17.5403 5.55379,-20.66559 4.74784,-5.38828 3.35984,-12.37239 -3.60813,-18.15529 -3.43034,-2.84693 -7.00664,-2.9099 -22.01707,-0.38771 -21.11327,3.54769 -34.41293,1.79498 -36.50974,-4.81141 -3.74101,-11.78691 -18.48105,-10.45206 -23.25561,2.10607 -4.21962,11.09835 -11.91564,61.16464 -11.91564,77.51669 0,30.66126 11.24288,60.28671 24.67101,65.00911 6.66535,2.34407 12.19502,0.13115 34.60096,-13.84546 14.09968,-8.79542 27.36563,-9.26272 38.30748,-1.34945 4.37631,3.16506 25.48497,15.05413 46.90809,26.42018 30.8862,16.38671 40.0633,22.42745 44.3225,29.17493 9.4561,14.98042 12.2734,17.02529 23.3159,16.92283 12.5728,-0.11679 49.6495,-7.68571 56.9743,-11.63115 7.0689,-3.80765 10.6298,-3.61554 9.0549,0.4885 -0.8861,2.30906 1.4024,3.85311 7.3701,4.97265 10.2853,1.92952 11.371,5.6304 1.9692,6.71217 -5.1856,0.59668 -6.641,2.01188 -6.4857,6.30633 0.1099,3.04539 -0.437,5.1984 -1.2157,4.78447 -14.0776,-7.48267 -14.5135,-7.5275 -29.3972,-3.02109 -23.0684,6.98456 -24.2431,11.30786 -6.1842,22.76047 9.8147,6.22435 12.1574,12.48589 4.6715,12.48589 -1.9585,0 -6.209,3.00865 -9.4455,6.68591 -4.6362,5.26737 -5.901,5.79794 -5.9616,2.50057 -0.1757,-9.57044 -11.9039,-30.77261 -19.0729,-34.47987 -10.3696,-5.36232 -14.0552,-0.64037 -8.9803,11.50545 6.4889,15.53015 3.6348,35.66909 -5.055,35.66909 -2.0269,0 -5.2744,-3.80303 -7.2165,-8.45121 -4.6545,-11.13985 -17.2008,-17.44803 -32.0816,-16.1303 -4.2452,0.37606 -3.8004,8.7668 0.661,12.46942 2.4987,2.07378 3.5346,6.709 3.1905,14.27731 -0.28,6.16365 0.4173,13.27052 1.5499,15.79306 1.5434,3.43717 1.2008,4.30287 -1.367,3.45486 -4.8425,-1.59915 -9.4266,-11.54917 -9.4688,-20.5525 -0.066,-14.12882 -39.46331,-46.38477 -48.00027,-39.29967 -8.60376,7.14047 0.71731,27.02834 14.03909,29.9543 9.64918,2.11933 15.47238,11.12413 13.81168,21.35799 -0.7841,4.83175 0.042,9.7313 2.1207,12.57381 3.8836,5.31103 4.485,11.02159 1.1608,11.02159 -1.2346,0 -5.3773,-2.63584 -9.2059,-5.85743 -7.51198,-6.32096 -11.08408,-5.64526 -20.63245,3.90311 -2.6349,2.63494 -5.45416,4.12736 -6.26498,3.31654 -0.81086,-0.81086 3.79729,-6.82632 10.24032,-13.3677 l 11.71461,-11.89345 -5.45885,-7.66624 c -5.04657,-7.08726 -6.20118,-7.54088 -15.28713,-6.00582 -8.41852,1.42231 -10.41532,0.88206 -13.92158,-3.76622 -5.39411,-7.15113 -13.01639,-4.78269 -17.21288,5.34844 -2.65651,6.41344 -2.53285,9.97621 0.78558,22.62833 2.75913,10.51982 3.32462,17.73819 1.88844,24.10601 -2.93393,13.00861 -4.02637,12.84798 -5.64639,-0.8304 -1.91036,-16.13019 -6.87103,-25.02969 -16.98912,-30.47863 -10.26539,-5.52828 -17.77081,-3.73062 -13.98195,3.34885 1.39484,2.60629 2.51207,7.81931 2.4827,11.58448 -0.0537,6.8403 -8.1908,27.51132 -10.8302,27.51132 -1.32725,0 -1.86361,-12.39889 -1.76167,-40.7233 0.054,-15.00816 -2.6857,-16.12097 -13.03574,-5.29474 -6.51825,6.81811 -7.1071,8.84708 -6.75443,23.27323 0.3753,15.35119 0.25474,15.68485 -4.20711,11.64688 -6.6054,-5.97782 -8.08357,-17.68165 -3.58722,-28.40304 2.60148,-6.20314 3.31691,-12.40988 2.24198,-19.44993 -3.46473,-22.69115 -9.96102,-24.67079 -18.90656,-5.76144 -3.40524,7.19807 -8.00092,13.78182 -10.21262,14.63055 -7.16273,2.74859 -2.54351,17.22429 9.91971,31.08638 6.13874,6.82776 10.8096,13.46944 10.37964,14.75928 -1.28274,3.8482 -21.26721,3.9041 -21.26721,0.0597 0,-1.80355 -3.82919,-7.10838 -8.50934,-11.78853 -4.68015,-4.68016 -8.50934,-9.56693 -8.50934,-10.85953 0,-1.29271 -4.20499,-2.3503 -9.34439,-2.3503 -8.19976,0 -10.57436,1.45863 -19.38546,11.90812 -9.70435,11.50877 -26.68127,22.12928 -35.3738,22.12928 -3.53492,0 -3.11501,-1.451 2.59105,-8.95328 6.18508,-8.13215 6.7604,-10.58336 6.27288,-26.727 -0.60098,-19.9008 -5.76083,-33.19729 -12.36789,-31.87113 -4.23217,0.84949 -4.37292,2.81348 -1.61749,22.57341 0.91714,6.57695 -0.16668,13.66005 -3.34862,21.8812 -4.03261,10.41959 -5.73918,12.26169 -11.94592,12.89469 -4.42767,0.45157 -8.08883,2.63818 -9.42285,5.62786 -1.19992,2.68917 -2.98197,4.08911 -3.96007,3.11097 z m 70.1552,-47.83169 c 2.28291,-6.7708 4.02917,-8.02809 12.8123,-9.22477 11.85248,-1.6148 13.41562,-2.87618 18.42054,-14.86454 l 3.73909,-8.95631 -13.79822,-15.96392 c -7.58903,-8.78015 -15.06232,-15.96394 -16.60732,-15.96394 -1.54499,0 -4.78926,2.18812 -7.20956,4.86252 -2.42026,2.67436 -5.89909,4.86248 -7.73072,4.86248 -6.06493,0 -8.74378,12.22896 -4.77328,21.79003 11.70516,28.18624 11.77958,28.66559 6.36163,40.97287 l -5.01415,11.38998 5.57824,-5.53255 c 3.06803,-3.04293 6.7677,-9.06024 8.22145,-13.37185 z m -76.18827,-15.00317 c 3.67726,-4.60865 6.68595,-10.91063 6.68595,-14.0044 0,-5.40245 5.76374,-12.97179 16.72361,-21.96245 3.88452,-3.1866 5.24757,-7.23719 5.52223,-16.4109 0.20069,-6.69902 0.4741,-13.54756 0.60782,-15.21906 0.53522,-6.69037 -10.50493,-4.416 -19.93972,4.10782 -5.75078,5.19545 -12.08243,8.65621 -15.83709,8.65621 -3.44062,0 -9.32534,2.69665 -13.07716,5.99252 l -6.82148,5.99248 7.04817,5.73747 c 6.81287,5.54589 6.99168,6.2369 5.35571,20.69688 -1.58782,14.03448 0.71561,24.79309 5.30815,24.7929 0.95585,-7e-5 4.74656,-3.77079 8.42381,-8.37947 z m 199.02997,-2.89346 c 2.89818,-3.49205 1.82653,-5.27803 -8.75289,-14.58746 -11.64299,-10.24528 -18.26665,-13.2178 -18.26665,-8.19753 0,1.32586 2.18812,3.77711 4.86248,5.44728 2.91912,1.82302 4.86247,5.66974 4.86247,9.62479 0,10.21504 11.10701,15.16849 17.29459,7.71292 z m 30.72245,-25.79089 c 4.70513,-3.76433 3.60559,-11.21548 -2.56566,-17.38673 -5.14858,-5.14859 -8.2786,-5.70678 -38.45555,-6.85829 -36.12642,-1.37855 -48.01409,-4.88844 -55.02496,-16.24649 -5.02991,-8.14873 -17.99414,-22.12558 -20.52257,-22.12558 -5.10134,0 -0.85315,8.76809 9.78868,20.20331 6.4586,6.94016 13.59125,15.35365 15.85027,18.69661 3.85259,5.70111 5.42389,6.07989 25.33349,6.10714 23.34678,0.0302 35.53198,4.48086 46.24542,16.88455 5.63445,6.52339 11.81431,6.75508 19.35088,0.72548 z m 97.31616,-17.77519 c -0.7434,-0.74347 -12.6869,-3.39912 -26.541,-5.90147 -17.2012,-3.10688 -32.09314,-7.72686 -46.95926,-14.56834 -13.93901,-6.4148 -24.43355,-9.7579 -29.17489,-9.29381 -7.04625,0.68972 -6.81604,0.9462 4.7512,5.29409 6.68591,2.51309 20.36164,8.26322 30.39054,12.77805 11.00821,4.95572 24.97871,9.04483 35.25301,10.31845 21.0117,2.60466 34.0674,3.15996 32.2804,1.37303 z M 284.02189,354.9782 c 2.92074,-1.53585 8.4031,-5.36504 12.18292,-8.50934 4.12562,-3.43192 10.04614,-5.71691 14.81288,-5.71691 8.38579,0 28.41002,-9.27398 29.94096,-13.86682 0.49799,-1.49394 -4.7819,-4.37711 -11.76363,-6.42373 -13.93115,-4.08381 -11.82357,-4.99283 -31.76741,13.70173 -8.88839,8.33163 -14.70184,8.89274 -28.85862,2.78555 -16.67588,-7.19395 -19.37189,-7.2571 -19.27124,-0.45138 0.21845,14.78456 20.86079,25.77078 34.72414,18.4809 z m 409.93898,-14.16888 c -4.7754,-2.52461 -10.0769,-6.2702 -11.781,-8.3235 -2.3174,-2.79228 -5.794,-3.36382 -13.7931,-2.26742 -10.3772,1.42235 -10.7973,1.22011 -14.15406,-6.81369 -4.63033,-11.08191 -9.88259,-15.43861 -26.08909,-21.64047 -12.8355,-4.91188 -14.07174,-4.98675 -21.2285,-1.2858 -4.17963,2.16136 -7.59935,4.78889 -7.59935,5.83892 0,1.05006 5.58815,3.3414 12.41805,5.09185 8.61687,2.20842 15.64388,6.27352 22.95655,13.28031 13.7546,13.17921 31.9932,19.32147 60.6595,20.42838 l 7.2937,0.28158 z m -466.5397,-3.80727 c 3.8496,-4.6385 0.0877,-9.26044 -6.51319,-8.00164 -6.40444,1.22136 -7.59874,11.75154 -1.33285,11.75154 2.60364,0 6.13436,-1.68745 7.84604,-3.7499 z m 65.95682,-19.55312 c 4.09807,-2.11918 12.24688,-8.27372 18.10847,-13.67674 10.82241,-9.97576 14.71706,-10.72967 28.29418,-5.47711 5.8859,2.27706 5.60387,-5.14095 -0.58117,-15.28512 -5.25665,-8.62156 -10.25295,-9.98835 -15.12605,-4.13798 -1.72422,2.06997 -4.81746,5.62568 -6.8739,7.90156 -2.0564,2.27584 -6.76188,8.24065 -10.45651,13.2551 -5.65493,7.67501 -8.14009,9.11905 -15.71097,9.12918 -4.94638,0.008 -14.17062,-1.84354 -20.49834,-4.11152 -11.41198,-4.0902 -11.55435,-4.07705 -17.6265,1.62743 -8.12512,7.63313 -7.73224,9.95138 1.12025,6.60994 6.2228,-2.34887 8.18997,-1.99605 13.97964,2.50734 8.13052,6.32413 15.42557,6.80084 25.3709,1.65792 z m 155.24698,-160.3115 c 5.20453,-6.27107 1.1336,-36.83833 -6.18372,-46.43183 -4.40719,-5.77814 -6.01871,-10.913884 -6.01871,-19.180804 0,-9.2366 -1.29248,-12.58231 -7.10672,-18.39654 -3.90871,-3.90871 -9.50309,-7.10671 -12.43196,-7.10671 -5.2007,0 -5.30097,0.58279 -4.28643,24.92022 0.89128,21.381434 2.15727,27.502834 8.91503,43.106754 11.26144,26.003 19.13166,32.70523 27.11251,23.08891 z m 162.96776,-21.88789 c 3.94515,-2.04011 7.17298,-5.16959 7.17298,-6.9544 0,-1.78481 0.67498,-8.16945 1.4999,-14.18808 1.44976,-10.57686 1.24638,-11.03138 -6.07808,-13.58468 -4.16791,-1.452964 -7.57803,-4.339734 -7.57803,-6.415074 0,-12.49806 -62.53953,8.084794 -70.65829,23.254834 -4.36592,8.15777 -1.42311,7.52938 12.14415,-2.59313 14.42203,-10.76028 24.26656,-13.86354 31.57364,-9.95293 4.20703,2.25154 4.73419,4.23008 3.50891,13.16938 -2.00477,14.62662 1.83753,20.97335 12.69728,20.97335 4.6995,0 11.7724,-1.66919 15.71754,-3.70927 z M 493.55675,90.333986 c 0.8488,-2.6744 3.63685,-4.86252 6.19562,-4.86252 2.99184,0 5.22301,-2.2738 6.2513,-6.37084 1.83621,-7.31615 -3.37311,-39.82275 -6.38177,-39.82275 -1.10143,0 -4.76908,4.94977 -8.15028,10.99948 -4.82294,8.62913 -6.11244,14.26125 -5.98382,26.13587 0.0903,8.32502 0.63957,15.9569 1.22086,16.9598 1.94525,3.35599 5.28937,1.87192 6.84809,-3.03904 z m 100.34852,-14.19734 c 1.98406,-1.25911 2.93355,-6.63617 2.63943,-14.94666 -0.40997,-11.58319 0.27553,-13.56602 6.36926,-18.42505 3.99749,-3.18748 6.27057,-6.89931 5.48262,-8.95274 -0.74034,-1.92924 -9.20727,-6.03546 -18.81543,-9.12489 -14.70943,-4.72971 -17.8221,-5.07716 -19.70204,-2.1992 -1.228,1.87986 -1.77388,5.33254 -1.21307,7.67261 1.3748,5.73671 -4.03862,5.38912 -9.46575,-0.60781 -5.99528,-6.6247 -11.48394,-6.30703 -10.50187,0.60781 0.57778,4.06827 2.64623,5.66485 8.07061,6.22938 9.99802,1.0405 13.37186,6.44323 13.37186,21.41312 0,8.33425 1.31992,14.05341 3.82049,16.55403 4.07248,4.07247 14.81979,5.03138 19.94389,1.7794 z m -262.33629,-6.99734 c -11.64098,-14.56884 -23.05224,-20.02635 -32.69094,-15.63465 -9.43692,4.29973 -6.85206,7.65441 5.89787,7.65441 8.56959,0 14.05652,1.60573 20.05773,5.86989 10.08906,7.16879 11.00704,7.45641 6.73534,2.11035 z m 39.07335,-5.2937 c 3.42108,-6.3923 -2.76442,-11.08539 -14.61055,-11.08539 -12.75515,0 -14.51803,2.92512 -5.91836,9.82032 8.7696,7.03147 17.16593,7.54889 20.52891,1.26507 z m 352.13224,-7.98697 c 1.5781,-1.57805 7.5407,-3.49265 13.2503,-4.25468 13.5698,-1.81105 13.4536,-6.66238 -0.3341,-13.95348 -10.9899,-5.81159 -25.4301,-7.33423 -31.7349,-3.34629 -3.1006,1.96121 -3.0832,2.80322 0.1375,6.6487 2.0284,2.42171 4.9701,7.41176 6.5372,11.08902 3.0323,7.11568 7.4549,8.50567 12.1439,3.81673 z m -252.8009,-41.37943 c 4.5549,-4.5548897 3.55056,-11.6699697 -1.64731,-11.6699697 -5.83313,0 -10.98565,6.13984 -9.15533,10.9096497 1.69492,4.41686 6.78765,4.77532 10.80264,0.76032 z m 249.5455,-0.80669 c 2.5956,-1.96325 8.613,-3.60281 13.3718,-3.64348 7.6772,-0.0657 8.1124,-0.3871297 3.8612,-2.8523897 -5.5233,-3.20292 -42.9526,-4.07566 -53.1234,-1.23869 -11.7518,3.27797 -6.0017,7.7219597 11.9116,9.2059697 9.2555,0.76677 17.3752,1.55252 18.0438,1.74612 0.6686,0.19351 3.3394,-1.2543 5.935,-3.21753 z M 605.59273,5.2404763 c 6.1869,0 7.81255,-5.33778997 3.63534,-11.93637 -3.65673,-5.7763703 -17.20603,1.18851 -17.20603,8.84459 0,4.5118 0.97459,5.66929 3.84574,4.56752 2.11514,-0.81167 6.49134,-1.47574 9.72495,-1.47574 z M 173.84834,-40.067014 c 0,-4.02315 1.91157,-6.59574 6.07808,-8.17984 9.26869,-3.52394 7.51952,-10.25474 -4.34986,-16.73867 -13.07168,-7.1407 -19.69564,-6.20621 -20.74605,2.92683 -0.4309,3.74669 0.35377,8.18256 1.74395,9.85749 1.39007,1.67496 3.01527,6.80559 3.6116,11.40139 0.5963,4.59583 1.90783,10.43912 2.91455,12.98512 1.74837,4.42178 2.03002,4.38248 6.28906,-0.87714 2.45227,-3.02843 4.45867,-8.14726 4.45867,-11.37518 z m 156.09068,-4.02623 c -7.27241,-7.50321 -7.50085,-8.25818 -3.6607,-12.09833 6.18728,-6.18729 2.7439,-7.08007 -6.23856,-1.6175 -4.38202,2.66486 -7.55751,6.18004 -7.0566,7.81153 0.7398,2.40958 19.60833,13.43536 23.62756,13.80669 0.5966,0.0552 -2.40567,-3.50097 -6.6717,-7.90239 z m 468.93015,-22.72165 c 2.1791,-1.88097 9.31,-3.31314 16.4963,-3.31314 11.5299,0 12.4452,-0.39805 10.2682,-4.46571 -1.3145,-2.45612 -7.3282,-8.51227 -13.3639,-13.45807 l -10.974,-8.99237 -4.9009,9.60648 c -2.6955,5.28355 -8.4813,12.07943 -12.8574,15.10198 -4.3761,3.02251 -8.472,5.9093 -9.1018,6.41502 -0.6299,0.50575 0.4127,1.88237 2.3168,3.05914 4.3531,2.69041 17.0489,0.42104 22.1167,-3.95333 z m -395.98282,-1.74193 c -0.49127,-2.75241 1.02739,-4.01408 4.86251,-4.03968 9.19238,-0.0613 12.13319,-3.26844 10.2096,-11.134 -0.95002,-3.88471 -3.74865,-9.67228 -6.2191,-12.86127 -2.47045,-3.18899 -4.49174,-7.291706 -4.49174,-9.117156 0,-2.1632 -2.9212,-3.31899 -8.38855,-3.31899 -5.26809,0 -9.22378,-1.49251 -10.63389,-4.01221 -2.05689,-3.67547 -3.13833,-3.59113 -12.88482,1.00472 -5.85173,2.75929 -18.63065,6.31473 -28.39766,7.90095 -14.28631,2.32016 -17.60784,3.66495 -16.98901,6.878296 0.42311,2.19687 3.63813,5.36931 7.14455,7.04988 3.50638,1.68059 8.16797,5.79163 10.35908,9.13568 4.91837,7.50639 7.86092,7.63668 13.77229,0.60978 l 4.60188,-5.47029 1.6007,5.69596 c 1.30182,4.63247 2.89856,5.50548 8.55182,4.67574 5.44857,-0.79968 6.9512,-0.0751 6.9512,3.35169 0,2.84601 2.75777,5.16401 7.90151,6.64145 9.91918,2.84908 12.95736,2.09505 12.04963,-2.99055 z m 123.61597,-0.58695 c 2.86427,-5.35192 4.58698,-6.11304 11.35143,-5.01534 7.14111,1.15885 7.97469,0.68918 7.97469,-4.49328 0,-3.18305 2.212,-7.33673 4.91557,-9.23038 4.36078,-3.05439 4.49458,-3.79235 1.18564,-6.53853 -4.78893,-3.97448 -1.22997,-8.666676 10.19395,-13.439906 7.37053,-3.07961 7.87287,-3.89519 5.11688,-8.30819 -2.41142,-3.86135 -2.42786,-5.52147 -0.0779,-7.87154 1.63801,-1.638 2.97819,-5.51058 2.97819,-8.60577 0,-3.72004 2.62707,-7.22522 7.75037,-10.34088 l 7.75041,-4.7133 -6.40762,-2.43618 c -8.99497,-3.41988 -14.17727,-12.4977 -14.94814,-26.18468 -0.70129,-12.45165 -6.34911,-32.38712 -9.17544,-32.38712 -0.92965,0 -2.42291,4.88532 -3.31831,10.85628 -1.54799,10.32279 -1.28867,14.30976 2.62537,40.36332 1.39846,9.30903 0.59217,13.23931 -4.98784,24.31243 -3.66085,7.26457 -8.81908,16.2742 -11.46282,20.0214 -8.02673,11.37698 -20.87614,50.321126 -16.60319,50.321126 0.9691,0 3.28149,-2.83925 5.13868,-6.30946 z m 126.30079,-7.90118 c 0,-2.46712 2.18812,-6.46589 4.86256,-8.88616 6.6126,-5.98439 6.1139,-12.90586 -1.1689,-16.224166 -3.31733,-1.51143 -6.67321,-4.77015 -7.45762,-7.2416 -0.7844,-2.47143 -2.97271,-4.49352 -4.86289,-4.49352 -4.70895,0 -7.15381,11.25038 -3.96552,18.247946 2.11257,4.6366 1.70657,6.88446 -2.12265,11.75258 -6.24389,7.93779 -6.08308,8.42397 3.16664,9.57183 4.34585,0.53932 8.72209,1.15567 9.72495,1.36967 1.00289,0.21395 1.82343,-1.62947 1.82343,-4.09658 z m -503.37154,-6.89152 c 1.54836,-1.35926 -6.15893,-13.70297 -10.13317,-16.228906 -2.18397,-1.38809 -5.84977,0.185986 -11.04046,4.740726 -7.24448,6.35694 -7.50425,7.11335 -3.83512,11.16769 3.08663,3.41067 6.08889,4.01958 13.9166,2.82246 5.48946,-0.83951 10.48093,-1.96542 11.09215,-2.50197 z m 43.80445,2.26003 c -0.034,-1.00289 -3.86339,-7.79007 -8.50934,-15.0826 -4.6459,-7.292556 -8.44713,-14.638946 -8.44713,-16.325356 0,-4.26454 -7.98255,-8.09973 -16.85884,-8.09973 -11.39214,0 -9.37292,5.2404 9.34798,24.260806 14.66343,14.89802 24.66822,21.13253 24.46733,15.24688 z m 582.71615,-8.50935 c 11.6156,-12.397506 15.4318,-19.295016 15.4318,-27.892446 0,-6.44904 -0.964,-7.96838 -5.0557,-7.96838 -4.3011,0 -4.827,1.04092 -3.5239,6.97412 1.5809,7.19755 -0.7295,9.95181 -19.2279,22.922096 -3.4264,2.4025 -6.2299,6.50522 -6.2299,9.11716 0,7.59955 10.1416,5.88115 18.6056,-3.15255 z m -319.71542,-1.82343 c 3.1104,-8.922436 4.51744,-9.009356 14.18332,-0.87607 9.0864,7.64569 12.03953,5.76396 12.57947,-8.015636 0.46825,-11.94968 -15.15798,-53.96734 -22.5623,-60.66813 -4.93387,-4.46508 -5.11585,-4.44308 -9.65918,1.1677 -2.5468,3.14518 -4.63057,7.04584 -4.63057,8.66808 0,1.62227 -3.82919,8.33545 -8.50934,14.91816 -4.68015,6.58271 -8.50934,13.37601 -8.50934,15.09624 0,4.09878 11.65931,27.300226 16.45705,32.748706 5.29749,6.01604 7.73695,5.31997 10.65089,-3.03905 z m -87.18771,-30.686626 c 0.83149,-0.83146 -1.78696,-4.81043 -5.81866,-8.84217 -7.78995,-7.78996 -9.80867,-7.60636 -22.83008,2.07643 -4.15975,3.09322 -4.33289,3.93429 -1.21565,5.90498 4.04323,2.55606 27.49322,3.23192 29.86439,0.86076 z m -120.25677,-8.82106 c -0.70526,-7.04453 -0.0658,-7.98498 5.89489,-8.67083 3.67726,-0.42311 6.68591,-2.08764 6.68591,-3.69895 0,-2.32866 -20.90622,-33.0207 -25.9342,-38.07352 -2.43081,-2.44279 2.30479,13.53451 5.55787,18.75161 4.59828,7.37442 4.28541,9.52637 -2.72047,18.71155 -7.65513,10.03636 -7.60089,11.51758 0.60779,16.60699 9.42538,5.84376 10.80578,5.33848 9.90821,-3.62685 z m 61.20566,1.8536 c 0,-4.87476 -6.90882,-10.97076 -12.43354,-10.97076 -4.40569,0 -4.25454,0.67418 1.87317,8.35377 6.54678,8.20481 10.56037,9.19944 10.56037,2.61699 z m 205.7971,-5.50047 c 2.0657,-5.01443 6.01961,-11.56797 8.78649,-14.56343 4.19403,-4.54049 5.31632,-9.99914 6.7482,-32.82178 1.27918,-20.38822 3.37844,-31.94808 8.22485,-45.29047 3.57902,-9.85324 5.90616,-18.5162 5.17134,-19.25099 -2.88314,-2.88314 -14.8402,6.32183 -32.24541,24.82369 -17.82576,18.94888 -18.18758,19.58307 -16.6758,29.22754 0.84994,5.42214 2.1451,21.34602 2.8781,35.38645 1.59939,30.63567 1.85401,31.60615 8.2935,31.60615 3.5619,0 6.17639,-2.70295 8.81873,-9.11716 z m -118.38998,-3.60981 c 2.88302,-5.11293 2.95926,-6.94584 0.41632,-10.00991 -3.81461,-4.59631 -24.10821,-12.61387 -26.3226,-10.39947 -0.88168,0.88167 1.75718,5.14235 5.86413,9.46816 4.10691,4.32581 8.22769,10.38697 9.15726,13.46925 2.05486,6.81344 6.1544,5.86132 10.88489,-2.52803 z M 282.1765,-165.48747 c -2.08162,-2.97188 -3.78475,-10.08327 -3.78475,-15.80308 0,-10.35685 -0.0378,-10.39962 -8.92573,-10.39962 -4.90911,0 -10.92646,-1.81064 -13.37181,-4.02368 -2.44536,-2.21301 -4.44613,-2.95075 -4.44613,-1.63941 0,3.05323 9.65295,11.77782 15.19529,13.73385 2.34006,0.82589 4.25465,3.57653 4.25465,6.11253 0,5.16347 8.77474,17.42287 12.47055,17.42287 1.31596,0 0.6895,-2.43156 -1.39207,-5.40346 z m 363.68668,0.83362 c 0.8632,-0.82954 0.62494,-3.9699 -0.52948,-6.97856 -2.76007,-7.19361 -16.57866,-7.61614 -22.83915,-0.69838 -7.34933,8.12091 -3.2702,12.40894 10.16137,10.68174 6.40082,-0.82307 12.34409,-2.17523 13.20726,-3.0048 z m -252.32209,-18.52247 c -1.53464,-3.99917 -29.72141,-27.96379 -32.89054,-27.96379 -6.9312,0 7.50599,23.71215 20.08977,32.99617 7.44911,5.49578 8.49234,5.6929 11.11877,2.10108 1.59409,-2.18005 2.35098,-5.39011 1.682,-7.13346 z m 248.92925,-34.35866 c 3.6325,-0.97347 5.47029,-3.31709 5.47029,-6.97589 0,-4.29044 2.95952,-6.9112 13.37184,-11.8412 7.3545,-3.48219 13.3718,-6.82367 13.3718,-7.4255 0,-1.4656 -16.3784,0.91527 -25.73481,3.74098 -9.64448,2.9127 -21.56821,15.20487 -19.63524,20.24199 1.56155,4.06939 4.51207,4.57616 13.15612,2.25962 z m -255.79363,-3.48329 c 0.87852,-1.42145 -0.0597,-4.43011 -2.08478,-6.68592 -2.02515,-2.25583 -3.71173,-6.83663 -3.74801,-10.17958 -0.0378,-3.34296 -0.82552,-9.81564 -1.75385,-14.38375 -1.19354,-5.87312 -0.44776,-10.60838 2.54642,-16.16825 4.12879,-7.66668 4.09545,-8.0504 -1.33758,-15.39898 -3.36306,-4.54878 -7.74327,-7.53636 -11.04929,-7.53636 -3.01255,0 -6.15357,-1.09406 -6.98,-2.43125 -3.15775,-5.10933 -6.07808,-2.08119 -6.07808,6.30244 0,5.01354 2.04397,11.33217 4.79856,14.83411 6.36242,8.0885 8.82021,21.58095 4.81111,26.41161 -2.56565,3.09139 -2.18948,4.86161 2.19013,10.30613 2.90834,3.6155 6.54202,9.03528 8.07488,12.04394 2.9591,5.80812 7.96331,7.16915 10.61049,2.88586 z m 228.45332,-12.02779 c 2.4181,-5.36238 3.67831,-10.46799 2.80048,-11.34581 -0.8778,-0.87783 -1.59602,-0.2188 -1.59602,1.46472 0,1.68345 -2.18812,5.84255 -4.86247,9.24245 -5.15947,6.55917 -6.19174,10.38838 -2.80048,10.38838 1.13404,0 4.04042,-4.3874 6.45849,-9.74974 z M 345.3717,-246.18175 c 0.85617,-4.56388 0.88471,-10.41518 0.0635,-13.00287 -1.53324,-4.83064 -10.85661,-10.30531 -17.55,-10.30531 -2.07084,0 -6.93188,-1.87062 -10.80234,-4.15696 -5.70478,-3.3699 -7.61711,-3.56907 -10.10011,-1.05195 -2.46659,2.50053 -2.23457,3.71698 1.1918,6.24841 2.34006,1.72888 4.25465,4.36228 4.25465,5.852 0,1.48975 3.00865,4.28011 6.68591,6.20084 3.67725,1.92075 9.8993,6.8721 13.82672,11.00303 3.92742,4.13094 7.98058,7.51079 9.00699,7.51079 1.0264,0 2.56675,-3.7341 3.42293,-8.29798 z m 303.56098,-12.36759 c 2.4305,-3.70942 6.27345,-6.0781 9.86109,-6.0781 12.4059,0 10.6348,-10.63917 -3.65518,-21.95704 -10.94453,-8.66823 -18.21683,-8.09461 -21.95274,1.7316 -2.11884,5.57294 -1.5544,9.69742 4.01556,29.3426 1.4214,5.01332 7.48426,3.44271 11.73127,-3.03906 z m -30.98335,-12.62527 c -1.18386,-12.67781 -0.71153,-17.16491 2.13831,-20.31396 4.48195,-4.95249 2.19945,-12.03876 -3.87772,-12.03876 -2.4567,0 -7.50089,2.60984 -11.20925,5.79963 -5.95211,5.11981 -6.3414,6.28292 -3.32092,9.92239 2.65002,3.19305 2.79364,5.12829 0.63693,8.58173 -2.36769,3.79123 -1.52659,5.41856 5.61656,10.8669 4.6207,3.52436 8.40125,7.99334 8.40125,9.93107 0,1.93772 0.70522,3.52314 1.56718,3.52314 0.86196,0 0.88339,-7.32247 0.0476,-16.27214 z M 424.7085,-279.2149 c 1.5727,0 6.60125,1.35306 11.17455,3.00679 7.71107,2.78837 8.66877,2.56997 13.18424,-3.0064 l 4.86917,-6.01317 -6.93351,-2.84553 c -6.25066,-2.56525 -6.93354,-3.98235 -6.93354,-14.38751 0,-7.63697 -1.13495,-11.93047 -3.35456,-12.69018 -4.12705,-1.4126 -36.39193,32.40348 -38.34613,40.18972 -0.764,3.04392 -0.0378,7.16488 1.61797,9.15767 2.59639,3.1284 4.29468,2.46001 12.43472,-4.89407 5.18521,-4.68452 10.71443,-8.51732 12.28709,-8.51732 z m -81.95288,-17.74951 c 0.36775,-12.3227 -0.11867,-13.85665 -4.39415,-13.85665 -6.56617,0 -21.06984,11.43341 -21.06984,16.6096 0,3.92857 17.21911,12.61097 22.85797,11.52569 1.20582,-0.23218 2.37853,-6.65747 2.60602,-14.27864 z m 72.86229,-23.43647 c 8.72629,-9.10829 7.03827,-15.36329 -3.85372,-14.28007 -9.94114,0.98866 -13.72603,6.78083 -9.90746,15.16174 3.63723,7.98281 5.37517,7.87146 13.76118,-0.88167 z m 120.45205,4.7895 c 3.12011,-1.97274 3.16021,-3.37824 0.29405,-10.29556 -1.8257,-4.406 -4.52103,-12.66067 -5.98957,-18.3437 -1.46853,-5.68303 -3.36903,-10.33278 -4.22332,-10.33278 -3.45252,0 -19.22241,23.05153 -19.22241,28.09826 0,8.40711 20.77954,16.16076 29.1414,10.87378 z m 39.11996,-17.09086 c 2.57174,0 4.67591,-1.56659 4.67591,-3.48132 0,-5.49908 -13.74141,-13.95749 -21.26834,-13.09153 -7.01507,0.80707 -6.86853,0.19521 -4.55225,19.00409 0.4117,3.34296 0.91945,6.9959 1.12838,8.11766 0.20901,1.12177 3.74593,-0.79283 7.86009,-4.25468 4.11409,-3.46182 9.58439,-6.29422 12.15621,-6.29422 z"
       id="path936"
       inkscape:connector-curvature="0" />
  </g>
</svg>
