<?xml version="1.0" encoding="UTF-8" standalone="no"?>
<!-- Created with Inkscape (http://www.inkscape.org/) -->

<svg
   xmlns:dc="http://purl.org/dc/elements/1.1/"
   xmlns:cc="http://creativecommons.org/ns#"
   xmlns:rdf="http://www.w3.org/1999/02/22-rdf-syntax-ns#"
   xmlns:svg="http://www.w3.org/2000/svg"
   xmlns="http://www.w3.org/2000/svg"
   xmlns:sodipodi="http://sodipodi.sourceforge.net/DTD/sodipodi-0.dtd"
   xmlns:inkscape="http://www.inkscape.org/namespaces/inkscape"
   width="256mm"
   height="256mm"
   viewBox="0 0 256.00001 256.00002"
   version="1.1"
   id="svg952"
   inkscape:version="0.92.5 (2060ec1f9f, 2020-04-08)"
   sodipodi:docname="Cloudrest.svg">
  <defs
     id="defs946" />
  <sodipodi:namedview
     id="base"
     pagecolor="#ffffff"
     bordercolor="#666666"
     borderopacity="1.0"
     inkscape:pageopacity="0.0"
     inkscape:pageshadow="2"
     inkscape:zoom="1.4142136"
     inkscape:cx="264.42493"
     inkscape:cy="463.94568"
     inkscape:document-units="mm"
     inkscape:current-layer="g4893"
     showgrid="false"
     units="mm"
     inkscape:window-width="3840"
     inkscape:window-height="2056"
     inkscape:window-x="0"
     inkscape:window-y="50"
     inkscape:window-maximized="1"
     showguides="true"
     inkscape:guide-bbox="true" />
  <metadata
     id="metadata949">
    <rdf:RDF>
      <cc:Work
         rdf:about="">
        <dc:format>image/svg+xml</dc:format>
        <dc:type
           rdf:resource="http://purl.org/dc/dcmitype/StillImage" />
        <dc:title></dc:title>
      </cc:Work>
    </rdf:RDF>
  </metadata>
  <g
     inkscape:label="Layer 1"
     inkscape:groupmode="layer"
     id="layer1"
     transform="translate(0,-40.999976)">
    <g
       id="g4893"
       transform="matrix(0.79008909,0,0,0.79008909,-91.400175,50.711295)">
      <g
         id="g4884"
         style="fill:#2e2d2e;fill-opacity:1">
        <path
           style="fill:#2e2d2e;stroke:#000000;stroke-width:3;stroke-miterlimit:4;stroke-dasharray:none;stroke-opacity:1;paint-order:stroke fill markers;fill-opacity:1"
           d="m 317.41999,192.08805 c -0.35619,-0.57633 -5.67705,-1 -12.55902,-1 h -11.94098 v -12.5 -12.5 h 14 14 v 4.55494 4.55494 l 5.75,-4.68761 c 3.1625,-2.57818 7.1,-5.33575 8.75,-6.12792 1.65,-0.79216 4.3176,-3.63604 5.92799,-6.31973 1.62681,-2.71104 4.13976,-5.38136 5.65478,-6.00891 4.04962,-1.6774 5.36347,-9.8118 2.41723,-14.96571 -0.78602,-1.375 -1.44508,-3.52107 -1.46456,-4.76905 -0.0308,-1.97267 0.32376,-2.1832 2.71456,-1.61174 4.15281,0.99261 4.30126,1.20805 3.64787,5.29413 -0.45576,2.85015 -0.23464,3.93532 0.88979,4.3668 1.0704,0.41075 1.97748,-0.68588 3.18701,-3.85298 1.9384,-5.07564 3.38564,-5.83544 2.74033,-1.43868 -0.30273,2.0626 0.0368,3.17091 1.09587,3.57732 1.3222,0.50738 1.27164,0.85169 -0.36551,2.48884 -1.11941,1.11941 -1.6416,2.57336 -1.27105,3.53901 0.53782,1.40155 0.31721,1.47218 -1.52268,0.4875 -1.84243,-0.98604 -2.15163,-0.88518 -2.15163,0.70188 0,2.77534 6.1357,10.21589 8.997,10.91034 1.37665,0.33412 3.98116,1.8898 5.7878,3.45706 1.80663,1.56726 3.94413,2.84957 4.75,2.84957 2.22081,0 1.75215,1.6917 -0.64212,2.31781 -2.96193,0.77457 -6.50132,-0.79089 -8.42458,-3.72615 -1.57439,-2.40282 -1.94328,-2.47828 -9.72067,-1.98835 -4.4463,0.28009 -9.24591,1.14091 -10.6658,1.91293 -1.4199,0.77203 -2.13163,1.45871 -1.58163,1.52595 5.07845,0.62094 7.26099,1.32339 8.78895,2.82876 3.53727,3.48497 -0.84246,7.12435 -8.586,7.13463 -2.31162,0.003 -6.00295,0.51518 -8.20295,1.13802 l -4,1.13245 3.49121,1.19824 c 2.33315,0.80077 2.99657,1.38739 2,1.76848 -0.9524,0.3642 -0.31691,0.82985 1.75879,1.28874 1.7875,0.39517 3.25,1.14182 3.25,1.65923 0,4.27256 -6.98263,8.44806 -17.5,10.4647 -8.38159,1.60712 -8.22344,1.60106 -9,0.34456 z"
           id="path4877"
           inkscape:connector-curvature="0" />
        <path
           style="fill:#2e2d2e;fill-opacity:1"
           d="m 288.70288,183.18407 c -0.18104,-0.55 -2.40377,-7.78632 -4.93939,-16.08071 l -4.61023,-15.08071 6.86244,-6.91929 c 10.36092,-10.44675 20.17616,-28.75838 25.79898,-48.131386 3.17417,-10.936379 6.47028,-28.274549 6.47028,-34.034919 0,-3.43893 0.71425,-5.67638 2.75,-8.6146 2.70635,-3.90612 2.74848,-4.2006 2.65419,-18.55375 -0.0792,-12.05838 -0.49548,-15.97035 -2.40323,-22.58464 -1.26909,-4.4000002 -2.35097,-9.5750002 -2.40419,-11.5 -0.0851,-3.079241 0.22458,-3.537151 2.57629,-3.809001 2.215,-0.25605 3.35986,0.60076 6.68093,5.0000008 8.96559,11.8762202 14.27036,27.9711002 11.14428,33.8122202 -1.02673,1.91848 -0.96095,2.43816 0.40541,3.20281 0.89705,0.50202 3.19629,4.02101 5.10943,7.81999 3.46178,6.87419 3.48142,6.98995 4.10508,24.19061 0.68519,18.897403 -0.42751,33.948455 -3.71736,50.283365 -3.90758,19.40217 -12.40811,40.59474 -19.95516,49.75 -2.99811,3.63699 -3.28867,3.75001 -9.64092,3.75001 -5.58624,0 -6.37391,0.21174 -5.35494,1.43953 0.65709,0.79174 1.04969,2.70316 0.87245,4.2476 l -0.32226,2.80808 -10.87645,0.002 c -6.36704,0.001 -11.01293,-0.41221 -11.20563,-0.99761 z"
           id="path4838"
           inkscape:connector-curvature="0" />
        <path
           style="fill:#2e2d2e;fill-opacity:1"
           d="m 237.01281,203.69564 c -19.47253,-20.24465 -26.52605,-30.00007 -32.35325,-44.74637 -7.70711,-19.50358 -11.04795,-36.69967 -11.96324,-61.577491 -0.44956,-12.21915 -0.28487,-16.08146 0.73828,-17.31429 1.70108,-2.04967 5.85488,-1.11052 8.19309,1.85241 1.28211,1.62464 1.7335,1.79252 1.75,0.65081 0.0122,-0.84621 0.92224,-3.30385 2.02224,-5.46144 1.1,-2.15759 2,-4.51397 2,-5.23641 0,-2.24823 6.87792,-15.09589 8.59633,-16.05756 1.36635,-0.76465 1.43213,-1.28433 0.4054,-3.20281 -3.12608,-5.84112 2.17869,-21.936 11.14428,-33.81222 3.32107,-4.39924 4.46592,-5.25605 6.68092,-5 2.35171,0.27185 2.66143,0.72976 2.5763,3.809 -0.0532,1.925 -1.13511,7.1 -2.40419,11.5 -1.90775,6.61429 -2.32403,10.52626 -2.40324,22.58464 -0.0943,14.35315 -0.0522,14.64763 2.6542,18.55375 2.03575,2.93822 2.75,5.17567 2.75,8.6146 0,5.76037 3.29611,23.098541 6.47028,34.034921 7.62805,26.28188 23.66389,50.98282 36.7356,56.58602 3.23523,1.38678 5.30707,3.25035 7.61886,6.85296 1.74639,2.72151 3.17526,5.34666 3.17526,5.83366 0,0.48699 -1.85817,6.09219 -4.12926,12.45599 l -4.12925,11.57055 -12.52736,7.79403 c -6.89005,4.28672 -13.24439,7.9105 -14.12075,8.05283 -0.95194,0.15461 -8.79414,-7.22749 -19.4805,-18.33758 z"
           id="path4825"
           inkscape:connector-curvature="0" />
        <path
           style="fill:#2e2d2e;fill-opacity:1"
           d="m 299.88086,289.86748 c -0.40137,-1.04594 -1.34232,-1.42433 -2.67518,-1.07578 -4.78355,1.25092 -12.59388,-3.69582 -14.99757,-9.49886 -0.99897,-2.41172 -1.65397,-2.84503 -3.57266,-2.36347 -1.83521,0.46061 -2.34943,0.18255 -2.34943,-1.27045 0,-3.22964 2.67779,-10.91673 4.88034,-14.00993 2.46202,-3.45759 2.739,-5.34294 0.66819,-4.5483 -1.16011,0.44517 -1.33614,-0.15372 -0.87693,-2.98352 0.43955,-2.70861 -0.0328,-4.57685 -2.0103,-7.95121 -2.3569,-4.02174 -3.91869,-5.13422 -9.9113,-7.0599 -1.93544,-0.62194 -2.34894,-3.13692 -0.68486,-4.16538 0.7128,-0.44054 0.57726,-1.20434 -0.40974,-2.30902 -1.45538,-1.62888 -2.00538,-3.45843 -1.77388,-5.90072 0.14905,-1.57247 8.71555,-1.71098 9.67629,-0.15646 0.42052,0.6804 2.23738,-0.40353 4.80902,-2.86904 2.27324,-2.17943 5.08175,-4.18768 6.24114,-4.46279 2.61899,-0.62145 5.39203,0.84122 5.39203,2.84408 0,0.82854 2.24398,4.27972 4.98661,7.6693 4.52914,5.59748 10.01339,15.32025 10.01339,17.75224 0,0.53497 -0.58464,0.97267 -1.2992,0.97267 -0.89596,0 -1.17238,1.08631 -0.89059,3.5 0.38884,3.33069 -0.92087,4.748 -2.31021,2.5 -1.15451,-1.86803 -2.64374,-1.02824 -1.96559,1.10842 0.51032,1.60787 -0.27688,3.09167 -3.31582,6.25 -7.06112,7.33855 -8.2617,12.88931 -3.58373,16.569 3.08458,2.42633 5.12634,2.56777 7.80627,0.54078 2.1179,-1.6019 9.2389,-1.95702 11.42851,-0.56993 0.99603,0.63097 0.31801,1.21472 -2.48554,2.13998 -3.646,1.20329 -3.73388,1.32645 -1.61964,2.26985 3.44173,1.53575 2.83902,4.15101 -1.01645,4.41051 -1.9687,0.13251 -3.7884,1.01872 -4.61998,2.25 -1.65533,2.45093 -2.70539,2.57514 -3.53319,0.41793 z"
           id="path4851"
           inkscape:connector-curvature="0" />
        <path
           style="fill:#2e2d2e;fill-opacity:1"
           d="m 189.03245,295.52493 c -11.84859,-4.62769 -16.14215,-10.48817 -16.10111,-21.97716 0.0188,-5.25581 0.57382,-7.52643 2.85345,-11.67311 4.84196,-8.8076 8.58564,-11.4851 34.12324,-24.40521 13.2,-6.6782 28.44013,-14.46071 33.86695,-17.29446 6.83096,-3.56695 10.01102,-4.76593 10.33519,-3.89669 0.33983,0.91124 1.17234,0.70172 3.03571,-0.764 1.41211,-1.11077 2.65859,-1.90078 2.76996,-1.75557 0.11136,0.1452 0.90858,2.38162 1.77158,4.96982 l 1.5691,4.70581 -13.14635,4.1447 c -14.78018,4.6598 -27.84288,10.81232 -31.68216,14.92228 -1.41248,1.51206 -5.2573,3.73242 -8.54406,4.93412 -3.28676,1.20171 -7.10092,3.05295 -8.47592,4.11386 -2.49874,1.92797 -2.49887,1.92895 -0.25,1.95117 1.67525,0.0166 2.23718,0.59699 2.1998,2.27224 -0.0387,1.73585 -1.35332,2.86619 -5.75282,4.94654 -11.9036,5.62875 -12.24317,15.13487 -0.76757,21.48815 4.55807,2.5235 6.03081,2.80725 14.57059,2.80725 8.59112,0 9.99671,-0.27489 14.69185,-2.87325 2.85552,-1.58029 5.4289,-3.49098 5.71862,-4.24597 0.65854,-1.71614 4.59134,-1.82142 4.58449,-0.12272 -0.0118,2.92495 -7.7384,11.21308 -13.32396,14.29225 -10.15308,5.59712 -24.7711,7.08266 -34.04658,3.45995 z"
           id="path4864"
           inkscape:connector-curvature="0" />
      </g>
      <path
         inkscape:connector-curvature="0"
         id="path4812"
         d="m 257.75586,297.57724 c -0.40137,-1.04595 -1.34232,-1.42434 -2.67518,-1.07579 -4.78355,1.25092 -12.59387,-3.69582 -14.99757,-9.49886 -0.99897,-2.41172 -1.65397,-2.84503 -3.57266,-2.36347 -2.84011,0.71283 -3.02904,-0.87239 -0.93373,-7.83459 1.80156,-5.98611 5.3174,-10.58621 10.93486,-14.30706 3.57068,-2.36512 4.25161,-3.26628 3.49273,-4.62233 -0.51847,-0.92645 -1.63531,-1.68445 -2.48187,-1.68445 -1.14509,0 -0.84929,-0.81992 1.15525,-3.20218 2.39996,-2.8522 2.64854,-3.83709 2.27428,-9.01113 -0.35795,-4.9487 -0.9188,-6.32338 -3.78721,-9.28283 -1.85187,-1.91065 -3.54347,-3.29746 -3.75912,-3.08181 -0.60612,0.60612 2.43493,6.06711 4.18944,7.52323 2.67643,2.22123 1.77354,3.49069 -4.43406,6.23428 -3.3,1.45851 -6,2.27709 -6,1.81907 0,-0.45802 1.9125,-2.47308 4.25,-4.47791 l 4.25,-3.64514 -4.19175,2.05282 c -2.30546,1.12904 -5.85575,3.18204 -7.88954,4.56221 -4.4556,3.02364 -6.41581,3.26866 -3.89873,0.48731 1.82751,-2.01937 1.8247,-2.01989 -2.09501,-0.38899 -2.15873,0.8982 -5.27497,2.30767 -6.92497,3.13216 -2.60932,1.30385 -2.34886,0.81404 2,-3.76118 l 5,-5.26024 -8.5,4.69882 c -4.675,2.58436 -13,6.89563 -18.5,9.5806 -5.5,2.68498 -11.575,5.92314 -13.5,7.19591 l -3.5,2.31414 4,-4.92511 c 8.90105,-10.95965 26.17577,-22.07908 48.96808,-31.51989 5.48244,-2.27088 10.65744,-4.73351 11.5,-5.47251 0.84255,-0.739 4.0042,-2.58314 7.02588,-4.0981 6.02196,-3.01919 14.04675,-8.81367 15.30573,-11.05186 0.43983,-0.78192 1.78983,-1.42856 3,-1.43698 1.21017,-0.008 2.87531,-0.46174 3.70031,-1.00736 1.27263,-0.84167 1.12961,-1.27897 -0.9435,-2.88495 -4.27518,-3.31184 -12.86743,-5.29817 -21.32397,-4.9296 -4.25545,0.18547 -7.73614,0.0846 -7.73486,-0.22422 0.001,-0.30879 0.86737,-1.48995 1.92465,-2.62481 2.16942,-2.32859 6.88043,-3.25175 21.35192,-4.18406 l 9.77424,-0.62969 -1.59385,-2.26843 c -0.87662,-1.24764 -3.81253,-3.39272 -6.52424,-4.76685 -5.26976,-2.67038 -6.34016,-4.45777 -2.68039,-4.47581 2.02526,-0.01 1.9004,-0.27822 -1.25,-2.68545 -15.88516,-12.1379 -28.46401,-35.81218 -35.53644,-66.88209 -1.54892,-6.8046 -2.84687,-15.833698 -3.02402,-21.036518 -0.27811,-8.16776 -0.85601,-10.55826 -5.56019,-23 -6.6654,-17.62883 -6.70126,-19.448 -0.62153,-31.52558 4.34442,-8.63032 11.88215,-19.19238 10.24766,-14.35928 -3.04596,9.00675 -4.72443,18.5336 -5.1974,29.5 -0.6135,14.22456 0.60882,22.9169 3.65027,25.95835 1.50551,1.50551 2.04165,3.34133 2.04165,6.99089 0,6.0263 3.23331,23.185918 6.47028,34.338678 7.14277,24.60989 21.53993,47.94545 34.13414,55.32615 4.48274,2.62706 5.89409,4.92327 4.79174,7.79594 -0.67547,1.76026 2.49051,5.9042 5.92485,7.75501 1.74708,0.94152 1.75031,0.87348 0.0797,-1.67614 -1.15188,-1.75799 -1.90034,-5.40563 -2.21127,-10.77663 -0.32007,-5.529 -1.19228,-9.67808 -2.73407,-13.00588 -1.79126,-3.86626 -2.07521,-5.54523 -1.35974,-8.03995 1.45921,-5.08795 1.09608,-6.1953 -2.45236,-7.47843 -1.84619,-0.66759 -4.13761,-2.07669 -5.09205,-3.13134 -1.66104,-1.83542 -1.64608,-1.8942 0.34919,-1.37242 1.1465,0.29981 4.16882,0.23256 6.71628,-0.14945 l 4.63174,-0.69458 -5.0017,-2.31732 c -5.48181,-2.53976 -8.346,-5.37618 -4.15314,-4.11288 6.33524,1.90879 9.55311,2.48328 11.15637,1.99175 2.56519,-0.78644 2.16207,-1.98565 -1.64308,-4.88799 -1.86619,-1.42341 -3.62407,-3.47131 -3.90638,-4.55089 -0.68049,-2.6022 -0.15615,-2.48818 4.15556,0.90362 5.51232,4.33629 7.39623,4.60847 10.48924,1.51546 l 2.6547,-2.65467 v 2.63637 c 0,4.87235 5.74551,8.23639 18.18832,10.64942 6.04055,1.17143 12.14465,4.59222 12.53035,7.02211 0.3658,2.30445 -5.91975,5.63456 -12.09032,6.40553 -5.521,0.6898 -5.62835,0.76435 -5.62835,3.90875 0,4.43287 2.13408,7.07271 9.45585,11.69683 8.50541,5.37165 11.54415,10.07639 11.54415,17.87326 0,3.27934 -0.45,6.24054 -1,6.58046 -0.57562,0.35575 -1.00237,-0.57406 -1.00558,-2.19098 -0.0177,-8.93589 -4.92681,-16.35584 -15.16131,-22.91599 -6.13622,-3.93322 -6.86721,-4.75412 -7.44368,-8.35911 -0.7993,-4.99858 -1.95439,-4.42067 -2.8296,1.41571 -0.75656,5.04506 0.57698,8.55037 3.25285,8.55037 2.76928,0 6.05033,2.81115 8.20071,7.02624 3.03719,5.95338 2.69909,7.65534 -1.4251,7.17386 -1.87644,-0.21906 -4.23258,0.0611 -5.23587,0.62255 -1.6158,0.90425 -1.48311,1.09015 1.16171,1.62758 3.52191,0.71566 19.4713,8.79827 24.48587,12.40862 1.925,1.38594 5.075,3.94511 7,5.68704 1.925,1.74193 5.60561,3.73127 8.17914,4.42075 2.57353,0.68948 5.68947,2.32905 6.92431,3.64348 3.57767,3.80825 9.63965,2.81431 16.78141,-2.75152 3.64833,-2.84327 5.11514,-2.37259 5.11514,1.6414 0,3.32656 -0.17169,3.5 -3.46482,3.5 -2.44136,0 -3.78098,0.59077 -4.53518,2 -0.98408,1.83878 -0.76049,2 2.77369,2 2.11423,0 4.709,0.63247 5.76616,1.40548 1.8088,1.32263 1.76831,1.37609 -0.68685,0.90675 -1.90624,-0.3644 -3.01773,0.0849 -4.12657,1.66796 -0.94319,1.34659 -1.76872,1.76039 -2.18104,1.09325 -0.91011,-1.47258 -4.24678,-1.35397 -4.96665,0.17656 -0.32337,0.6875 -0.4191,-0.009 -0.21276,-1.5484 0.54531,-4.06735 -2.03113,-3.16275 -6.06859,2.13071 -2.39285,3.13724 -3.29739,5.36554 -3.29739,8.12298 0,2.15767 -0.64825,4.33782 -1.5,5.04471 -0.825,0.68469 -1.5,2.76479 -1.5,4.62244 0,3.78658 -0.65753,4.19693 -2.60795,1.62756 -1.95776,-2.57902 -1.67238,-6.68633 0.60795,-8.75 2.15701,-1.95207 2.53894,-4.50027 1.08866,-7.26357 -0.50124,-0.95504 -1.63377,-3.76143 -2.51673,-6.23643 -0.88297,-2.475 -2.52306,-5.625 -3.64465,-7 l -2.03925,-2.5 0.63123,4.17514 c 0.72436,4.79105 -0.71867,8.32486 -3.39946,8.32486 -2.57948,0 -4.65858,-2.67402 -7.04417,-9.05982 -1.14236,-3.0579 -2.73739,-6.4329 -3.54452,-7.5 -1.40266,-1.85445 -1.46891,-1.81577 -1.49931,0.87556 -0.0175,1.54866 0.43403,3.68616 1.00338,4.75 0.56935,1.06384 0.80873,1.93426 0.53194,1.93426 -0.27678,0 -1.1746,-1.2375 -1.99515,-2.75 l -1.49189,-2.75 -0.04,3.75 c -0.0331,3.09648 -0.39605,3.75 -2.08288,3.75 -3.08509,0 -11.41547,-8.32864 -12.93473,-12.93203 -1.28875,-3.90497 -6.46206,-9.96167 -7.56589,-8.85785 -0.31037,0.31038 0.35825,2.07757 1.48583,3.9271 1.12759,1.84953 2.04329,4.26278 2.03489,5.36278 -0.0107,1.39739 -0.91401,0.56879 -2.9981,-2.75 -1.64056,-2.6125 -3.68967,-4.75 -4.55358,-4.75 -1.30068,0 -1.2144,0.45301 0.50184,2.63486 3.9699,5.04691 2.12312,11.7559 -5.60088,20.34684 -2.5892,2.87982 -6.93316,6.16474 -10.52711,7.96066 -6.64367,3.31988 -8.76201,3.69506 -10.58276,1.87431 -1.97392,-1.97392 -2.41576,-0.25721 -1.11504,4.33239 1.40008,4.94021 1.80127,22.90563 0.60717,27.18919 -0.58774,2.10837 -1.11024,2.57347 -2.03184,1.80862 -0.91583,-0.76008 -1.58149,-0.25957 -2.54261,1.91175 -1.3852,3.1293 -3.13439,3.93369 -3.13439,1.44138 0,-1.00246 -1.00248,-1.5 -3.02234,-1.5 -2.15993,0 -4.32194,1.19793 -7.57678,4.19813 -7.90283,7.28458 -9.67299,13.86947 -4.76602,17.72929 3.08458,2.42633 5.12634,2.56777 7.80627,0.54078 2.1179,-1.6019 9.2389,-1.95701 11.42851,-0.56993 0.99603,0.63097 0.31801,1.21472 -2.48554,2.13998 -3.646,1.20329 -3.73388,1.32645 -1.61964,2.26985 3.44173,1.53575 2.83902,4.15101 -1.01645,4.41051 -1.9687,0.13251 -3.78839,1.01872 -4.61998,2.25 -1.65533,2.45093 -2.7054,2.57514 -3.53319,0.41794 z m 65.40516,-151.38655 c 0,-0.55 -1.575,-1 -3.5,-1 -1.925,0 -3.5,0.45 -3.5,1 0,0.55 1.575,1 3.5,1 1.925,0 3.5,-0.45 3.5,-1 z m -17.5,-2 c 0.33992,-0.55 1.49148,-1 2.55902,-1 1.06754,0 1.94098,-0.45 1.94098,-1 0,-0.55 -2.475,-1 -5.5,-1 -5.8654,0 -6.89383,0.83543 -3.25,2.64009 3.00928,1.49039 3.52437,1.53401 4.25,0.35991 z M 229.9294,187.528 c -2.90513,-0.35489 -4.51087,-1.40683 -7.25,-4.74957 -1.93511,-2.36155 -3.51838,-4.58488 -3.51838,-4.94073 0,-1.04086 4.02427,-0.71485 11,0.8911 3.575,0.82303 12.35,1.93494 19.5,2.4709 10.35269,0.77604 13.25657,1.3233 14.25992,2.68743 1.04515,1.42095 0.97142,1.87441 -0.43249,2.66007 -1.7965,1.00538 -27.26461,1.74971 -33.55905,0.9808 z m 9.23162,-11.45356 c -7.425,-0.44648 -15.69659,-1.16547 -18.38132,-1.59776 -4.57591,-0.73681 -5.06843,-1.11727 -7.87184,-6.08081 -1.64479,-2.91215 -2.7967,-5.48866 -2.55979,-5.72556 0.2369,-0.2369 7.37923,1.40398 15.87184,3.64641 8.49261,2.24243 19.04111,4.59393 23.44111,5.22555 7.12242,1.02244 8.03505,1.39524 8.31955,3.39842 0.27048,1.90448 -0.11342,2.22662 -2.5,2.09776 -1.55075,-0.0837 -8.89455,-0.51754 -16.31955,-0.96401 z m 1,-10.95469 c -5.775,-1.02125 -14.1,-2.80083 -18.5,-3.95461 -15.20524,-3.98718 -14.06033,-3.20429 -16.85898,-11.52814 -1.37698,-4.09547 -2.15163,-7.44631 -1.72145,-7.44631 0.43018,0 11.75983,4.85952 25.17701,10.79892 16.57917,7.33913 24.49983,11.34392 24.72247,12.5 0.3858,2.00332 0.64277,2.01073 -12.81905,-0.36986 z m -21,-21.30702 c -11.86019,-4.38099 -17.47716,-6.96705 -18.40962,-8.47581 -0.75691,-1.2247 -3.52682,-17.54312 -3.05746,-18.01248 0.21286,-0.21286 2.54253,1.38673 5.17705,3.55465 7.3383,6.03862 25.03166,18.49062 32.29003,22.72465 3.575,2.0854 6.6875,3.97059 6.91667,4.1893 0.22916,0.21871 -2.24584,0.3684 -5.5,0.33264 -4.37412,-0.0481 -8.91486,-1.1725 -17.41667,-4.31295 z m 11.95491,-10.61902 c -9.854,-3.19389 -32.88124,-18.28007 -34.10523,-22.34388 -0.90869,-3.01697 -0.97947,-25.911758 -0.0844,-27.292168 0.44575,-0.68744 8.40351,8.69343 20.23469,23.853338 10.725,13.7425 19.85986,25.61486 20.29969,26.38302 0.97172,1.69712 0.64932,1.66662 -6.34478,-0.60031 z M 217.71467,101.94068 C 204.18779,86.690842 204.47448,87.309872 207.50233,79.889452 l 1.23314,-3.0221 9.88685,17.41167 c 5.43777,9.576408 10.53528,18.424168 11.32779,19.661668 3.07168,4.79639 -0.0688,1.71638 -12.23544,-12.00001 z m 1.64302,-14.753008 -9.30333,-14.83512 3.62868,-7.20559 c 1.99577,-3.96307 3.98201,-6.81199 4.41387,-6.33093 0.83983,0.9355 11.33263,42.439888 10.85084,42.920638 -0.1577,0.15736 -4.47323,-6.389688 -9.59006,-14.548998 z"
         style="fill:#908b73;stroke:#2e2d2e;stroke-width:5;stroke-miterlimit:4;stroke-dasharray:none;stroke-opacity:1;paint-order:stroke fill markers;fill-opacity:1" />
    </g>
  </g>
</svg>
