<?xml version="1.0" encoding="UTF-8" standalone="no"?>
<svg
   xmlns:dc="http://purl.org/dc/elements/1.1/"
   xmlns:cc="http://creativecommons.org/ns#"
   xmlns:rdf="http://www.w3.org/1999/02/22-rdf-syntax-ns#"
   xmlns:svg="http://www.w3.org/2000/svg"
   xmlns="http://www.w3.org/2000/svg"
   xmlns:sodipodi="http://sodipodi.sourceforge.net/DTD/sodipodi-0.dtd"
   xmlns:inkscape="http://www.inkscape.org/namespaces/inkscape"
   viewBox="0 0 967.55911 967.55911"
   version="1.1"
   id="svg8"
   sodipodi:docname="Dragonstar.svg"
   inkscape:version="0.92.5 (2060ec1f9f, 2020-04-08)"
   width="256mm"
   height="256mm">
  <metadata
     id="metadata14">
    <rdf:RDF>
      <cc:Work
         rdf:about="">
        <dc:format>image/svg+xml</dc:format>
        <dc:type
           rdf:resource="http://purl.org/dc/dcmitype/StillImage" />
        <dc:title></dc:title>
      </cc:Work>
    </rdf:RDF>
  </metadata>
  <defs
     id="defs12" />
  <sodipodi:namedview
     pagecolor="#ffffff"
     bordercolor="#666666"
     borderopacity="1"
     objecttolerance="10"
     gridtolerance="10"
     guidetolerance="10"
     inkscape:pageopacity="0"
     inkscape:pageshadow="2"
     inkscape:window-width="3840"
     inkscape:window-height="2056"
     id="namedview10"
     showgrid="false"
     inkscape:zoom="0.921875"
     inkscape:cx="102.23492"
     inkscape:cy="679.51187"
     inkscape:window-x="0"
     inkscape:window-y="50"
     inkscape:window-maximized="1"
     inkscape:current-layer="g5289"
     units="mm" />
  <g
     id="g5289"
     transform="translate(0,455.55911)">
    <g
       id="g6405"
       transform="matrix(1.8608637,0,0,1.8608637,2035.7279,475.46739)">
      <g
         id="g6297">
        <g
           id="g6212">
          <path
             id="path5853"
             d="m -845.00683,1.9403165 c -11.30952,-1.45052999 -22.09897,-3.71131 -37.61654,-7.882 -5.1483,-1.38372 -12.07017,-2.51586 -15.38192,-2.51586 -5.53985,0 -6.27509,-0.26903 -9.19421,-3.3641995 -3.0418,-3.22524 -9.6225,-14.7809 -10.98679,-19.29272 l -0.65221,-2.15692 6.28785,1.96548 c 15.29874,4.78213 30.44688,3.20395 46.0248,-4.79498 5.09467,-2.61601 11.32399,-5.81088 13.84292,-7.09971 6.25465,-3.20024 20.99648,-6.07624 35.42012,-6.91014 l 12,-0.69379 -4.06467,-1.78353 c -6.05164,-2.6554 -21.25107,-4.2076 -33.93533,-3.46556 -17.6911,1.03495 -22.90274,2.247 -35.84999,8.33753 -11.84233,5.57076 -11.85364,5.57368 -17.50256,4.52316 -6.61808,-1.23077 -20.35479,-7.12011 -19.56984,-8.39019 0.29723,-0.48094 1.85476,-0.87443 3.46117,-0.87443 5.20969,0 11.22712,-3.22873 23.73658,-12.73619 14.00535,-10.64436 21.88912,-15.24847 31.99768,-18.68662 10.16673,-3.45792 20.19079,-4.82342 32.48515,-4.4252 5.90923,0.19141 10.74355,0.0792 10.74293,-0.24939 -0.003,-1.47149 -13.67049,-16.369457 -24.07634,-26.243467 -12.51028,-11.8709 -40.47261,-40.58359 -71.10222,-73.01024 l -19.67745,-20.83192 10.46228,-12.65849 c 5.75425,-6.96216 10.84899,-12.65848 11.32164,-12.65848 1.52533,0 51.63635,49.20184 78.42284,77 51.98734,53.95077 73.28999,79.422047 78.3906,93.730517 2.36202,6.62605 2.11813,20.79646 -0.50449,29.31101 -2.15318,6.99049 -7.64871,16.52802 -12.44916,21.6056 -6.12153,6.4749395 -19.04563,11.91286951 -34.12563,14.3586695 -11.23601,1.82234 -33.24371,1.77276 -47.90721,-0.10794 z"
             style="fill:#151e38;fill-opacity:1;stroke:none;stroke-opacity:1"
             inkscape:connector-curvature="0" />
          <path
             id="path5851"
             d="m -804.9734,-1.5040335 c 19.02324,-2.05009 32.97757,-7.47371 40.1273,-15.5962295 4.54793,-5.16672 9.39951,-14.88827 11.10254,-22.24719 1.662,-7.18161 0.76287,-19.55354 -1.8504,-25.46127 -3.95438,-8.93955 -18.36679,-27.09808 -42.94314,-54.105077 -15.19573,-16.69862 -101.0691,-103.54258 -105.60214,-106.79571 l -2.87643,-2.06427 -1.62357,2.08167 c -0.89296,1.14492 -4.40053,5.41042 -7.79459,9.4789 l -6.17102,7.39723 23.56159,24.92922 c 12.95886,13.71107 36.43582,37.78371 52.17101,53.49476 15.73519,15.71104 31.12118,31.686037 34.19109,35.499997 7.52994,9.35496 11.26636,14.43446 10.61781,14.43446 -0.29586,0 -3.38677,-0.76508 -6.86869,-1.70018 -4.52014,-1.21391 -10.04883,-1.67948 -19.33077,-1.62783 -22.05588,0.12272 -35.07826,4.93436 -55.6008,20.54394 -6.91724,5.26129 -14.11183,10.36472 -15.988,11.34095 l -3.4112,1.77496 3,1.28897 c 5.10825,2.19481 8.99265,1.54945 19.17943,-3.18652 15.35266,-7.13766 19.47136,-7.87037 44.32057,-7.88454 24.72718,-0.0141 28.08708,0.73828 39.28339,8.79667 6.01571,4.32973 16.88226,14.65358 15.42388,14.65358 -0.39465,0 -4.35994,-1.90688 -8.81175,-4.23752 -7.84521,-4.10717 -8.43025,-4.24902 -19.01933,-4.61146 -19.51736,-0.66804 -35.05049,2.54304 -47.97129,9.91684 -4.72731,2.69784 -11.70231,6.14189 -15.5,7.65345 -6.45549,2.56943 -7.89072,2.74929 -22.05158,2.7635 l -15.14668,0.0152 1.41538,2.7365 c 0.77846,1.50508 2.74835,4.25467 4.37753,6.1102 2.84245,3.23738 3.31649,3.39619 11.7313,3.93013 5.1207,0.32492 12.30562,1.64349 17.26915,3.1692095 14.24134,4.37759 38.29047,8.10796001 54.28941,8.42108001 3.73418,0.0731 11.15918,-0.33804 16.5,-0.91361001 z"
             style="fill:#cedfd7;fill-opacity:1;stroke:none;stroke-opacity:1"
             inkscape:connector-curvature="0" />
          <g
             id="g5886">
            <path
               style="fill:#151e38;fill-opacity:1;stroke:none;stroke-opacity:1"
               d="m -809.56281,-99.657543 c -1.25091,-1.250907 -1.70857,-15.311097 -0.59301,-18.218207 0.84265,-2.19591 4.10897,-1.98103 5.35783,0.35247 1.30929,2.44644 1.34804,13.11267 0.0599,16.50064 -1.05031,2.762517 -2.90311,3.286737 -4.82475,1.365097 z"
               id="path5841"
               inkscape:connector-curvature="0" />
            <path
               style="fill:#151e38;fill-opacity:1;stroke:none;stroke-opacity:1"
               d="m -832.26281,-123.83244 c -1.60605,-1.21093 -1.78156,-1.8642 -0.89101,-3.31653 0.94267,-1.53734 2.51529,-1.80857 10.4863,-1.80857 8.34015,0 9.41686,0.20531 9.7348,1.85622 0.54803,2.84573 -0.68441,3.38858 -9.33009,4.10963 -6.35132,0.52971 -8.41217,0.35644 -10,-0.84075 z"
               id="path5839"
               inkscape:connector-curvature="0" />
            <path
               style="fill:#151e38;fill-opacity:1;stroke:none;stroke-opacity:1"
               d="m -842.29238,-132.71932 c -0.31221,-1.24397 -0.43329,-5.58433 -0.26905,-9.64523 0.2362,-5.84004 0.67668,-7.61439 2.10719,-8.48822 1.44594,-0.88326 2.09758,-0.71556 3.25,0.83636 1.70256,2.29279 1.98784,14.66937 0.40625,17.62461 -1.43598,2.68315 -4.78892,2.48329 -5.49439,-0.32752 z"
               id="path5837"
               inkscape:connector-curvature="0" />
            <path
               style="fill:#151e38;fill-opacity:1;stroke:none;stroke-opacity:1"
               d="m -864.75224,-155.94481 c -3.13474,-3.77712 1.7657,-5.88336 12.38592,-5.32355 6.57345,0.3465 9.08853,2.31656 6.67308,5.227 -1.83034,2.20542 -17.24399,2.28351 -19.059,0.0965 z"
               id="path5835"
               inkscape:connector-curvature="0" />
            <path
               style="fill:#151e38;fill-opacity:1;stroke:none;stroke-opacity:1"
               d="m -873.78756,-165.02264 c -1.28811,-3.38797 -1.24936,-14.0542 0.0599,-16.50064 1.24886,-2.3335 4.51518,-2.54838 5.35783,-0.35247 1.11556,2.90711 0.6579,16.9673 -0.59301,18.21821 -1.92164,1.92164 -3.77444,1.39742 -4.82475,-1.3651 z"
               id="path5833"
               inkscape:connector-curvature="0" />
            <path
               style="fill:#151e38;fill-opacity:1;stroke:none;stroke-opacity:1"
               d="m -895.51281,-187.07132 c -1.79008,-0.79177 -1.5451,-5.059 0.33179,-5.77923 0.86998,-0.33385 5.12915,-0.60699 9.46481,-0.60699 6.5739,0 8.04336,0.29957 8.84844,1.80388 1.88509,3.52233 -0.26241,4.6813 -9.10845,4.91567 -4.55762,0.12075 -8.84909,-0.0293 -9.53659,-0.33333 z"
               id="path5831"
               inkscape:connector-curvature="0" />
            <path
               style="fill:#151e38;fill-opacity:1;stroke:none;stroke-opacity:1"
               d="m -904.55254,-197.29236 c -0.93875,-0.60582 -1.21088,-3.39484 -1,-10.24875 0.28616,-9.30026 0.32057,-9.41643 2.78973,-9.41643 2.49977,0 2.5,9.1e-4 2.5,9.9863 0,8.09341 -0.28432,10.03606 -1.5,10.24875 -0.825,0.14434 -2.08038,-0.1121 -2.78973,-0.56987 z"
               id="path5829"
               inkscape:connector-curvature="0" />
          </g>
          <g
             id="g6194">
            <path
               style="fill:#151e38;fill-opacity:1;stroke:none;stroke-opacity:1"
               d="m -836.26281,-8.7966035 c -7.64489,-1.9774095 -12.54449,-4.6866195 -14.61432,-8.0808995 -2.57074,-4.21572 -2.36465,-6.85737 0.83129,-10.65552 7.52973,-8.94858 30.16642,-11.33217 45.39692,-4.78018 12.72302,5.4733 11.7466,16.70826 -1.90539,21.92391 -7.06438,2.6988995 -22.27845,3.5145395 -29.7085,1.5926895 z"
               id="path5849"
               inkscape:connector-curvature="0" />
            <path
               inkscape:connector-curvature="0"
               style="fill:#cedfd7;fill-opacity:1;stroke:none;stroke-opacity:1"
               d="m -800.76281,-20.957543 c 0,-1.29078 -3.27778,-1.5 -23.5,-1.5 -20.22222,0 -23.5,0.20922 -23.5,1.5 0,1.29078 3.27778,1.5 23.5,1.5 20.22222,0 23.5,-0.20922 23.5,-1.5 z"
               id="path5845" />
            <g
               id="g6160">
              <path
                 inkscape:connector-curvature="0"
                 id="path5847"
                 d="m -811.50973,-13.625193 c 9.31889,-2.02591 5.84692,-2.83235 -12.19406,-2.83235 -9.93246,0 -18.05902,0.23614 -18.05902,0.52475 0,0.9915 5.5065,2.71021 11,3.43336 6.0584,0.79751 12.00593,0.44975 19.25308,-1.12576 z"
                 style="fill:#ffffff;stroke:none;stroke-opacity:1" />
              <path
                 inkscape:connector-curvature="0"
                 id="path5843"
                 d="m -802.76281,-25.513773 c 0,-0.58093 -2.11697,-1.99267 -4.70438,-3.1372 -5.90319,-2.61126 -20.10679,-3.59403 -26.98089,-1.86685 -5.84736,1.4692 -11.31473,3.96943 -11.31473,5.17422 0,0.48733 9.675,0.88606 21.5,0.88606 14.42973,0 21.5,-0.34734 21.5,-1.05623 z"
                 style="fill:#ffffff;stroke:none;stroke-opacity:1" />
            </g>
          </g>
        </g>
        <g
           id="g6035">
          <path
             id="path5803"
             d="m -697.26281,-101.12539 c -1.1,-0.23972 -5.0375,-1.32548 -8.75,-2.41279 -6.28492,-1.84072 -6.75,-2.17262 -6.75,-4.81715 0,-4.98103 -2.92506,-19.82689 -4.99819,-25.36782 -1.10193,-2.94518 -3.66372,-8.02777 -5.69287,-11.29463 -10.29496,-16.57458 -12.98214,-25.49946 -9.8992,-32.87798 l 1.59331,-3.81334 6.24848,8.87578 c 8.77298,12.46178 25.62399,29.09922 33.16014,32.73987 7.57078,3.65739 12.75497,3.25156 16.83833,-1.31812 5.34713,-5.98397 2.70819,-16.42416 -7.87239,-31.14481 -6.41022,-8.91848 -23.71112,-27.00301 -35.02132,-36.60759 l -7.1437,-6.0664 3.99396,-7.36359 c 4.14149,-7.63556 9.67951,-15.6942 12.25312,-17.83011 1.23896,-1.02824 3.67482,0.74546 14.76206,10.74917 16.47354,14.86361 37.31522,36.13094 41.67872,42.52991 10.34967,15.17757 13.41281,31.32278 9.12411,48.09144 -5.00065,19.55235 -16.93539,32.73306 -33.55952,37.0631 -5.49858,1.4322 -15.39497,1.86099 -19.96504,0.86506 z"
             style="fill:#151e38;fill-opacity:1;stroke:none;stroke-opacity:1"
             inkscape:connector-curvature="0" />
          <path
             id="path5801"
             d="m -671.56631,-108.66467 c 14.38072,-6.64756 24.93433,-25.06745 25.09096,-43.79287 0.12819,-15.32561 -4.76011,-26.54182 -18.12074,-41.578 -8.65807,-9.74389 -40.43526,-39.73602 -42.62161,-40.22739 -1.58729,-0.35673 -5.0216,3.98569 -9.50613,12.01978 l -3.1897,5.71438 3.82536,3.20298 c 7.04677,5.90028 29.84935,29.30054 34.53327,35.43843 14.15605,18.55034 16.96396,32.02471 8.40277,40.32254 -8.70954,8.44162 -21.41959,4.76876 -37.26461,-10.76847 -4.13702,-4.05666 -10.1823,-10.72364 -13.43396,-14.81551 -3.25166,-4.09187 -5.91211,-6.79186 -5.91211,-5.99998 0,3.14997 3.28994,10.44344 8.07716,17.9063 7.33895,11.44078 12.92284,27.98624 12.92284,38.2913 0,1.85658 0.50529,3.68789 1.12287,4.06958 3.45799,2.13715 11.29222,3.32949 20.37713,3.10132 8.35886,-0.20993 10.93487,-0.6833 15.6965,-2.88439 z"
             style="fill:#cedfd7;fill-opacity:1;stroke:none;stroke-opacity:1"
             inkscape:connector-curvature="0" />
          <g
             id="g5971">
            <path
               style="fill:#151e38;fill-opacity:1;stroke:none;stroke-opacity:1"
               d="m -698.09614,-111.12421 c -1.43197,-1.43196 -0.4991,-4.20695 3.57087,-10.62224 4.50966,-7.10834 6.18975,-8.43129 8.38921,-6.6059 2.0862,1.73139 1.7263,3.03685 -2.75406,9.98977 -4.92655,7.64537 -7.09447,9.34993 -9.20602,7.23837 z"
               id="path5799"
               inkscape:connector-curvature="0" />
            <path
               style="fill:#151e38;fill-opacity:1;stroke:none;stroke-opacity:1"
               d="m -669.53766,-117.20754 c -1.05107,-1.5125 -3.21428,-5.10136 -4.80713,-7.97525 -2.76308,-4.98526 -2.81536,-5.30598 -1.13829,-6.98305 1.2966,-1.2966 2.17855,-1.4924 3.36145,-0.74624 2.51025,1.58342 9.48562,14.96054 8.77146,16.8216 -0.96062,2.50333 -4.0605,1.9437 -6.18749,-1.11706 z"
               id="path5797"
               inkscape:connector-curvature="0" />
            <path
               style="fill:#151e38;fill-opacity:1;stroke:none;stroke-opacity:1"
               d="m -666.40118,-137.95754 c -1.0329,-2.69168 0.39071,-4.23471 7.28399,-7.89506 6.96272,-3.69722 9.76527,-4.36715 10.85991,-2.59599 1.37178,2.21959 -0.82494,4.66728 -7.39604,8.24105 -7.48412,4.07032 -9.85859,4.5674 -10.74786,2.25 z"
               id="path5795"
               inkscape:connector-curvature="0" />
            <path
               style="fill:#151e38;fill-opacity:1;stroke:none;stroke-opacity:1"
               d="m -661.58577,-158.99674 c -6.27861,-2.92268 -7.2769,-3.73341 -7,-5.68481 0.47594,-3.35408 3.50461,-3.28784 11.04684,0.24159 7.885,3.68984 9.57449,5.31552 7.77612,7.48242 -1.76415,2.12567 -3.53022,1.82106 -11.82296,-2.0392 z"
               id="path5793"
               inkscape:connector-curvature="0" />
            <path
               style="fill:#151e38;fill-opacity:1;stroke:none;stroke-opacity:1"
               d="m -674.11323,-174.92833 c -0.31042,-0.80894 0.0995,-4.97144 0.91092,-9.25 1.62258,-8.55571 3.70297,-11.44431 6.34178,-8.8055 1.29543,1.29543 1.32149,2.52225 0.19667,9.25978 -0.71314,4.27158 -1.75724,8.32901 -2.32022,9.01651 -1.39791,1.70707 -4.4396,1.57614 -5.12915,-0.22079 z"
               id="path5791"
               inkscape:connector-curvature="0" />
            <path
               style="fill:#151e38;fill-opacity:1;stroke:none;stroke-opacity:1"
               d="m -697.09614,-199.12421 c -1.23613,-1.23613 -0.67878,-4.11471 0.91512,-4.72634 0.86998,-0.33385 5.32184,-0.60699 9.89301,-0.60699 6.75307,0 8.42825,0.30498 8.93546,1.62675 1.26856,3.30581 -1.26162,4.37325 -10.36604,4.37325 -4.79099,0 -9.01089,-0.3 -9.37755,-0.66667 z"
               id="path5789"
               inkscape:connector-curvature="0" />
            <path
               style="fill:#151e38;fill-opacity:1;stroke:none;stroke-opacity:1"
               d="m -705.68074,-208.85865 c -0.74434,-0.89688 -1.05832,-4.58565 -0.87245,-10.25 0.28532,-8.69472 0.33394,-8.84889 2.79038,-8.84889 2.37412,0 2.5456,0.39077 3.40558,7.76082 0.63526,5.44413 0.56703,8.50387 -0.22856,10.25 -1.26274,2.77142 -3.33127,3.21317 -5.09495,1.08807 z"
               id="path5787"
               inkscape:connector-curvature="0" />
          </g>
        </g>
        <g
           id="g6023">
          <path
             id="path5785"
             d="m -768.76281,-140.15678 c -11.79605,-14.34007 -55.04437,-64.92167 -63.34586,-74.08692 l -2.07071,-2.28616 11.28774,-11.21384 11.28774,-11.21384 17.17054,17.69478 17.17055,17.69479 0.0992,9.30521 c 0.0814,7.63413 0.68725,11.10108 3.37361,19.30522 4.15487,12.68894 10.60278,27.26574 17.62393,39.84243 4.35937,7.80877 5.25333,10.13327 4.32653,11.25 -0.6425,0.77417 -1.45058,1.39136 -1.79573,1.37154 -0.34514,-0.0198 -7.15254,-7.96826 -15.12754,-17.66321 z"
             style="fill:#151e38;fill-opacity:1;stroke:none;stroke-opacity:1"
             inkscape:connector-curvature="0" />
          <path
             id="path5783"
             d="m -772.33579,-158.04647 c -5.8447,-13.91136 -9.59781,-27.93475 -9.9383,-37.13422 l -0.26734,-7.22315 -14.43912,-15.13335 -14.43911,-15.13334 -8.39167,7.96373 -8.39167,7.96373 14.9701,17.28574 c 24.4557,28.23864 36.22589,41.97375 40.72567,47.52443 2.33443,2.87963 4.35944,5.1371 4.50001,5.0166 0.14058,-0.1205 -1.80728,-5.12908 -4.32857,-11.13017 z"
             style="fill:#cedfd7;fill-opacity:1;stroke:none;stroke-opacity:1"
             inkscape:connector-curvature="0" />
          <g
             id="g5890">
            <path
               style="fill:#151e38;fill-opacity:1;stroke:none;stroke-opacity:1"
               d="m -798.29238,-191.71932 c -0.31221,-1.24397 -0.43329,-5.58433 -0.26905,-9.64523 0.2362,-5.84004 0.67668,-7.61439 2.10719,-8.48822 1.44594,-0.88326 2.09758,-0.71556 3.25,0.83636 1.70256,2.29279 1.98784,14.66937 0.40625,17.62461 -1.43598,2.68315 -4.78892,2.48329 -5.49439,-0.32752 z"
               id="path5781"
               inkscape:connector-curvature="0" />
            <path
               style="fill:#151e38;fill-opacity:1;stroke:none;stroke-opacity:1"
               d="m -820.75224,-214.94481 c -2.46914,-2.97512 -0.45362,-4.26535 7.80513,-4.99642 8.67044,-0.76751 12.1843,0.21646 12.1843,3.41188 0,2.54279 -1.88738,3.07181 -10.95934,3.07181 -5.67996,0 -8.13077,-0.40365 -9.03009,-1.48727 z"
               id="path5779"
               inkscape:connector-curvature="0" />
          </g>
        </g>
        <g
           id="g6078">
          <path
             id="path5777"
             d="m -979.76281,-261.244 c -32.46159,-30.73923 -40.21899,-39.02794 -44.77189,-47.83788 -7.939,-15.36202 -9.2665,-30.92342 -3.9397,-46.18245 2.966,-8.49656 9.4051,-18.83888 14.531,-23.33949 12.7123,-11.16159 32.43041,-13.25835 51.79804,-5.50806 l 7.88255,3.15434 -0.31837,7.5 c -0.34191,8.05438 1.16675,14.29467 6.69976,27.71236 l 2.89972,7.03191 -6.64055,-1.735 c -3.65231,-0.95425 -8.84508,-2.92171 -11.5395,-4.37213 -3.40841,-1.83478 -6.40533,-2.63714 -9.85,-2.63714 -4.26693,0 -5.40662,0.45556 -8.24798,3.29692 -3.3735,3.3735 -5.49519,8.86476 -5.48773,14.20308 0.0144,10.29238 16.80119,30.57787 38.77592,46.85753 9.59608,7.10913 9.77836,7.93223 3.76337,16.99418 -3.51453,5.29488 -17.62275,19.69396 -19.19806,19.59386 -0.47112,-0.0299 -7.83158,-6.65934 -16.35658,-14.73203 z"
             style="fill:#151e38;fill-opacity:1;stroke:none;stroke-opacity:1"
             inkscape:connector-curvature="0" />
          <path
             id="path5775"
             d="m -956.34632,-258.70754 c 5.44102,-5.45735 12.52008,-15.39418 11.455,-16.07932 -5.03243,-3.23726 -21.94278,-18.08417 -29.14988,-25.59293 -16.43196,-17.11976 -20.46716,-29.08374 -14.10302,-41.81402 5.32854,-10.65876 14.47853,-12.79317 27.54807,-6.42612 3.57026,1.73931 6.7648,3.16239 7.09896,3.16239 0.33416,0 -0.75219,-3.9375 -2.41412,-8.75 -2.13553,-6.18394 -3.07793,-10.90812 -3.21349,-16.10895 -0.19048,-7.30788 -0.21591,-7.37173 -3.66491,-9.20006 -10.63962,-5.64013 -27.95831,-6.30365 -38.70079,-1.48271 -19.7505,8.86351 -31.0671,38.77279 -22.9981,60.78327 4.3954,11.98973 8.4244,17.4815 23.6662,32.25845 7.94228,7.7 19.41728,18.8323 25.50004,24.73845 6.08275,5.90615 11.43872,10.74365 11.90214,10.75 0.46343,0.006 3.64668,-2.80095 7.0739,-6.23845 z"
             style="fill:#cedfd7;fill-opacity:1;stroke:none;stroke-opacity:1"
             inkscape:connector-curvature="0" />
          <g
             id="g5877">
            <path
               style="fill:#151e38;fill-opacity:1;stroke:none;stroke-opacity:1"
               d="m -968.74085,-262.42281 c -1.90163,-1.20249 -2.73148,-14.84047 -1.08969,-17.90818 1.33424,-2.49304 4.58854,-2.81769 5.46074,-0.54476 1.11556,2.90711 0.6579,16.9673 -0.59301,18.21821 -1.43125,1.43125 -1.8452,1.45697 -3.77804,0.23473 z"
               id="path5773"
               inkscape:connector-curvature="0" />
            <path
               style="fill:#151e38;fill-opacity:1;stroke:none;stroke-opacity:1"
               d="m -992.40118,-287.95754 c -1.42039,-3.70147 0.26266,-4.5 9.48454,-4.5 6.69911,0 9.21773,0.37207 10.15383,1.5 0.99319,1.19672 0.99319,1.80328 0,3 -1.79892,2.16757 -18.8066,2.16757 -19.63837,0 z"
               id="path5771"
               inkscape:connector-curvature="0" />
            <path
               style="fill:#151e38;fill-opacity:1;stroke:none;stroke-opacity:1"
               d="m -1000.6807,-296.85865 c -0.7444,-0.89688 -1.0584,-4.58565 -0.8725,-10.25 0.2853,-8.69472 0.334,-8.84889 2.79039,-8.84889 2.45644,0 2.50506,0.15417 2.79038,8.84889 0.27193,8.28691 -0.53378,11.65111 -2.79038,11.65111 -0.41531,0 -1.27839,-0.6305 -1.91789,-1.40111 z"
               id="path5769"
               inkscape:connector-curvature="0" />
            <path
               style="fill:#151e38;fill-opacity:1;stroke:none;stroke-opacity:1"
               d="m -1018.5628,-319.65754 c -3.1599,-3.15993 -1.1373,-4.69831 9.5637,-7.27388 5.8034,-1.3968 7.5625,-1.50028 8.75,-0.51475 3.36119,2.78955 0.91172,4.92284 -8.1394,7.08874 -9.362,2.24027 -8.6808,2.19342 -10.1743,0.69989 z"
               id="path5767"
               inkscape:connector-curvature="0" />
            <path
               style="fill:#151e38;fill-opacity:1;stroke:none;stroke-opacity:1"
               d="m -1017.0961,-336.12421 c -1.4547,-1.45465 -0.4701,-4.14774 3.8955,-10.6554 3.6038,-5.37198 5.0198,-6.7353 6.7398,-6.48932 3.6093,0.51613 3.1195,3.61883 -1.7202,10.89697 -4.2725,6.42537 -6.8978,8.26512 -8.9151,6.24775 z"
               id="path5765"
               inkscape:connector-curvature="0" />
            <path
               style="fill:#151e38;fill-opacity:1;stroke:none;stroke-opacity:1"
               d="m -998.56281,-353.65754 c -0.75216,-0.75216 -1.2,-4.49586 -1.2,-10.03138 0,-6.96068 0.32044,-8.95435 1.51274,-9.41188 2.94083,-1.12851 4.26062,1.51063 4.71396,9.42638 0.24307,4.24428 0.0507,8.50438 -0.42756,9.46688 -1.01073,2.03422 -2.89016,2.25898 -4.59914,0.55 z"
               id="path5763"
               inkscape:connector-curvature="0" />
            <path
               style="fill:#151e38;fill-opacity:1;stroke:none;stroke-opacity:1"
               d="m -978.1091,-364.7925 c -4.60087,-4.13713 -5.77251,-5.77759 -5.5,-7.7008 0.61394,-4.33264 3.4775,-3.42233 10.36053,3.29355 4.68648,4.57266 6.37264,6.87344 5.91373,8.06933 -1.13684,2.96255 -4.78661,1.72202 -10.77426,-3.66208 z"
               id="path5761"
               inkscape:connector-curvature="0" />
          </g>
        </g>
        <g
           id="g6227">
          <path
             id="path5759"
             d="m -771.51281,-259.28775 c -5.0875,-4.80189 -9.25,-8.98885 -9.25,-9.30436 0,-0.31551 6.03498,-5.8041 13.41107,-12.19685 l 13.41107,-11.6232 7.20423,8.48568 7.20423,8.48568 -7.8653,8.53531 c -4.32592,4.69441 -9.2153,10.2973 -10.8653,12.45086 -1.65,2.15356 -3.225,3.91152 -3.5,3.90657 -0.275,-0.005 -4.6625,-3.9378 -9.75,-8.73969 z"
             style="fill:#151e38;fill-opacity:1;stroke:#452f11;stroke-opacity:1"
             inkscape:connector-curvature="0" />
          <path
             id="path5757"
             d="m -753.91421,-266.47203 8.31337,-9.0145 -4.1741,-4.9855 c -2.29576,-2.74203 -4.37964,-4.98551 -4.63085,-4.98551 -0.72749,0 -19.35702,16.23115 -19.35702,16.86498 0,0.73846 10.25505,11.13502 10.98346,11.13502 0.30348,0 4.29279,-4.05652 8.86514,-9.01449 z"
             style="fill:#cedfd7;fill-opacity:1;stroke:none;stroke-opacity:1"
             inkscape:connector-curvature="0" />
        </g>
        <g
           id="g6042">
          <path
             id="path5755"
             d="m -878.91145,-270.30436 -14.64863,-15.77478 0.0771,-9.9392 c 0.0714,-9.19588 -0.20806,-10.68707 -3.73632,-19.9392 -4.18237,-10.96739 -13.51133,-30.68737 -21.52476,-45.5 -2.82666,-5.225 -4.32474,-8.58459 -3.32908,-7.46576 22.57143,25.36363 81.39477,92.56113 81.41642,93.00695 0.0291,0.59887 -22.69228,21.493 -23.29626,21.42279 -0.17043,-0.0198 -6.90176,-7.13467 -14.95851,-15.8108 z"
             style="fill:#151e38;fill-opacity:1;stroke:none;stroke-opacity:1"
             inkscape:connector-curvature="0" />
          <path
             id="path5753"
             d="m -854.4004,-268.89556 7.86242,-7.34063 -26.86242,-30.5218 c -14.77432,-16.78699 -26.99859,-30.38811 -27.16504,-30.22471 -0.16644,0.16339 1.72799,5.05122 4.20985,10.86184 6.20414,14.5253 7.9023,21.54713 7.34882,30.38696 l -0.45228,7.22364 12.51696,13.52636 c 6.88433,7.4395 13.00349,13.50445 13.59812,13.47766 0.59464,-0.0268 4.61925,-3.35198 8.94357,-7.38932 z"
             style="fill:#cedfd7;fill-opacity:1;stroke:none;stroke-opacity:1"
             inkscape:connector-curvature="0" />
          <g
             id="g5894">
            <path
               style="fill:#151e38;fill-opacity:1;stroke:none;stroke-opacity:1"
               d="m -873.40118,-274.95754 c -1.13288,-2.95223 0.48002,-4.33633 5.8264,-4.9999 7.77611,-0.96514 12.92043,-0.31047 14.21069,1.80847 1.9356,3.17873 -1.65033,4.69143 -11.12123,4.69143 -6.49107,0 -8.46788,-0.33258 -8.91586,-1.5 z"
               id="path5751"
               inkscape:connector-curvature="0" />
            <path
               style="fill:#151e38;fill-opacity:1;stroke:none;stroke-opacity:1"
               d="m -882.15582,-285.03933 c -0.33385,-0.86998 -0.60699,-5.08988 -0.60699,-9.37755 0,-5.8218 0.39252,-8.12154 1.55019,-9.08231 2.53371,-2.1028 4.27276,0.73386 5.03179,8.20766 0.88674,8.73121 0.10172,11.83399 -2.99404,11.83399 -1.30568,0 -2.64711,-0.7118 -2.98095,-1.58179 z"
               id="path5749"
               inkscape:connector-curvature="0" />
          </g>
        </g>
        <g
           id="g6066">
          <path
             id="path5747"
             d="m -840.0538,-329.62712 c -38.12885,-38.15841 -61.01761,-64.6645 -68.42004,-79.23308 -7.54703,-14.85319 -7.08607,-31.67598 1.30554,-47.64525 8.82947,-16.80249 22.72863,-24.10643 51.40549,-27.01332 18.52201,-1.87752 47.50844,1.15878 68.5567,7.18124 6.17888,1.76794 14.42628,3.34884 18.9433,3.63114 4.4,0.27499 9.18255,1.10162 10.6279,1.83696 3.91742,1.99303 9.39837,10.69093 13.88752,22.0386 l 0.84133,2.12671 -5.17838,-2.01808 c -6.39684,-2.49293 -23.79456,-3.5044 -31.75006,-1.84589 -2.98557,0.62242 -12.17831,4.48836 -20.42831,8.59097 -17.33553,8.62074 -24.4118,10.46423 -43.25,11.26735 -6.7375,0.28723 -12.25,0.87533 -12.25,1.30687 0,0.43155 2.3625,1.60829 5.25,2.61499 4.41285,1.5385 8.43916,1.82969 25.25,1.82613 23.58339,-0.005 27.87015,-0.77404 42.3975,-7.606 13.66942,-6.42849 17.29538,-6.39345 31.88252,0.30808 l 6.71998,3.08725 -4,0.83523 c -9.26958,1.93555 -12.14817,3.44595 -24.71568,12.9683 -7.26246,5.50275 -15.48183,11.30796 -18.26527,12.90048 -12.49086,7.14655 -34.04431,11.83843 -48.74947,10.61206 -4.58099,-0.38204 -7.76958,-0.26679 -7.76958,0.28083 0,1.81002 7.35688,9.83841 25.31718,27.62805 18.07926,17.90748 35.68282,37.29463 35.68282,39.29821 0,1.07525 -22.27263,22.42653 -24.01562,23.02217 -0.5318,0.18173 -13.70572,-12.41827 -29.27537,-28 z"
             style="fill:#151e38;fill-opacity:1;stroke:none;stroke-opacity:1"
             inkscape:connector-curvature="0" />
          <path
             id="path5745"
             d="m -801.91641,-315.55392 c 4.75948,-4.453 8.6536,-8.67666 8.6536,-9.38589 0,-2.14453 -15.41383,-19.09575 -33.23203,-36.54664 -15.12138,-14.80965 -22.85862,-23.44226 -31.72834,-35.39996 -2.3987,-3.2338 -2.57154,-3.79663 -0.97695,-3.18138 7.27041,2.80522 15.57338,3.78842 27.93732,3.3082 21.79071,-0.84635 33.20976,-5.34294 54.43641,-21.43594 6.90997,-5.23881 13.57609,-9.98814 14.81359,-10.55407 3.44816,-1.57691 2.73419,-2.45615 -3.04464,-3.7494 -5.262,-1.17758 -5.3503,-1.15693 -14.32049,3.34817 -4.96422,2.49318 -11.46913,5.23142 -14.45536,6.08498 -13.29701,3.80072 -43.27192,4.44732 -55.58553,1.19905 -8.06172,-2.12664 -14.8043,-6.33856 -23.66203,-14.7811 l -8.18195,-7.79841 9.98863,4.74438 9.98862,4.74439 13.01138,-0.0873 c 20.24549,-0.13579 28.12735,-2.01635 46.01137,-10.978 19.5862,-9.8146 29.92352,-11.99305 45,-9.4831 2.75,0.45782 5.14568,0.69782 5.32374,0.53332 0.56537,-0.52232 -2.65328,-6.12892 -5.37632,-9.36507 -2.35608,-2.80004 -3.20556,-3.12519 -8.28631,-3.1717 -3.11361,-0.0285 -9.71111,-1.14597 -14.66111,-2.48325 -33.16729,-8.96044 -62.29195,-11.67322 -84.45378,-7.86635 -22.49824,3.86467 -31.80118,9.9498 -39.59801,25.90142 -6.22167,12.72899 -6.63708,26.93701 -1.13471,38.80978 5.30282,11.44218 23.1083,33.42422 48.75413,60.19022 14.70717,15.34955 44.91616,45.34533 45.77877,45.45569 0.19052,0.0244 4.24052,-3.59906 9,-8.05207 z"
             style="fill:#cedfd7;fill-opacity:1;stroke:none;stroke-opacity:1"
             inkscape:connector-curvature="0" />
          <g
             id="g5900">
            <path
               style="fill:#151e38;fill-opacity:1;stroke:none;stroke-opacity:1"
               d="m -820.3867,-324.91979 c -0.32455,-0.84576 -0.32455,-2.22974 0,-3.0755 0.48378,-1.2607 2.25968,-1.48591 9.85699,-1.25 9.14129,0.28385 9.2669,0.32164 9.2669,2.78775 0,2.46611 -0.12561,2.5039 -9.2669,2.78775 -7.59731,0.23591 -9.37321,0.0107 -9.85699,-1.25 z"
               id="path5743"
               inkscape:connector-curvature="0" />
            <path
               style="fill:#151e38;fill-opacity:1;stroke:none;stroke-opacity:1"
               d="m -829.83054,-332.58409 c -0.67113,-1.25402 -0.98428,-5.17242 -0.76322,-9.55004 0.39966,-7.91446 1.68099,-10.00922 5.02707,-8.21845 1.50431,0.80508 1.80388,2.27454 1.80388,8.84844 0,4.33566 -0.27314,8.59483 -0.60699,9.46481 -0.8722,2.27293 -4.1265,1.94828 -5.46074,-0.54476 z"
               id="path5741"
               inkscape:connector-curvature="0" />
            <path
               style="fill:#151e38;fill-opacity:1;stroke:none;stroke-opacity:1"
               d="m -852.40118,-355.95754 c -1.41766,-3.69437 0.26647,-4.5 9.40699,-4.5 9.50334,0 11.85672,0.96302 10.14939,4.1532 -0.8486,1.58563 -2.26058,1.8468 -9.98458,1.8468 -7.07413,0 -9.11918,-0.32048 -9.5718,-1.5 z"
               id="path5739"
               inkscape:connector-curvature="0" />
            <path
               style="fill:#151e38;fill-opacity:1;stroke:none;stroke-opacity:1"
               d="m -861.05396,-365.08202 c -0.38987,-0.38987 -0.70885,-4.66802 -0.70885,-9.507 0,-7.61219 0.25544,-8.93486 1.89499,-9.81232 3.25825,-1.74376 4.21489,0.85819 3.89539,10.59491 -0.26363,8.03373 -0.47841,8.87581 -2.33153,9.14107 -1.12263,0.1607 -2.36013,-0.0268 -2.75,-0.41666 z"
               id="path5737"
               inkscape:connector-curvature="0" />
          </g>
          <g
             id="g6223">
            <path
               style="fill:#151e38;fill-opacity:1;stroke:none;stroke-opacity:1"
               d="m -851.68144,-445.98517 c -10.39692,-2.91205 -15.92145,-8.37103 -14.59292,-14.41978 3.01169,-13.71214 42.4152,-16.97076 54.00415,-4.46607 5.55387,5.99273 2.40339,12.90362 -7.9926,17.53257 -6.54078,2.91236 -23.27828,3.63329 -31.41863,1.35328 z"
               id="path5735"
               inkscape:connector-curvature="0" />
            <path
               style="fill:#cedfd7;fill-opacity:1;stroke:none;stroke-opacity:1"
               d="m -814.01225,-458.20754 c 0.3252,-0.97692 -4.8453,-1.25 -23.66723,-1.25 -20.86835,0 -24.08333,0.20266 -24.08333,1.5181 0,1.32225 3.05322,1.48351 23.66722,1.25 17.85052,-0.20221 23.76949,-0.57531 24.08334,-1.5181 z"
               id="path5731"
               inkscape:connector-curvature="0" />
            <g
               style="stroke:none"
               id="g6051">
              <path
                 id="path5733"
                 d="m -823.51281,-451.05501 c 2.6125,-0.85979 4.75,-1.9771 4.75,-2.4829 0,-0.52724 -8.10694,-0.91963 -19,-0.91963 -17.40654,0 -21.19203,0.52722 -17.99085,2.50566 0.55503,0.34302 3.81753,1.26117 7.25,2.04031 7.28019,1.65255 17.98316,1.16285 24.99085,-1.14344 z"
                 style="fill:#ffffff;stroke:none;stroke-opacity:1"
                 inkscape:connector-curvature="0" />
              <path
                 id="path5727"
                 d="m -817.01267,-462.70712 c -1.71513,-5.1454 -27.76559,-7.2899 -37.00014,-3.04588 -2.6125,1.20065 -4.75,2.6583 -4.75,3.23923 0,0.70824 6.94617,1.05623 21.08333,1.05623 16.41848,0 20.99118,-0.27648 20.66681,-1.24958 z"
                 style="fill:#ffffff;stroke:none;stroke-opacity:1"
                 inkscape:connector-curvature="0" />
            </g>
          </g>
        </g>
      </g>
      <g
         id="g6316">
        <g
           id="g6005">
          <path
             id="path5813"
             d="m -990.65818,-101.97607 c -16.40872,-4.60715 -28.19972,-17.80338 -33.12922,-37.07748 -3.5954,-14.05806 -2.2238,-26.23388 4.4953,-39.90399 5.0005,-10.17381 11.4884,-17.55371 28.88838,-32.86011 32.70896,-28.77347 46.05558,-43.83645 54.17327,-61.13989 4.70533,-10.02974 6.02345,-14.73912 6.99734,-25 1.16129,-12.23537 -1.41912,-22.61951 -10.64206,-42.82599 -8.4692,-18.55514 -10.08965,-24.30396 -10.05562,-35.67401 0.0451,-15.05629 5.68776,-33.02898 15.58651,-49.64502 8.29735,-13.92794 8.79873,-14.22092 6.01856,-3.51695 -4.40376,16.955 -4.88475,35.79066 -1.30647,51.16197 0.70419,3.025 4.15581,11.125 7.67027,18 13.0495,25.52748 19.81863,43.2205 23.16004,60.53529 2.43382,12.61181 2.62883,27.33702 0.48261,36.44315 -3.64372,15.45979 -19.3359,35.61165 -54.91488,70.52156 -8.40812,8.25 -17.42759,17.925 -20.04327,21.5 -8.80584,12.03546 -12.23819,21.85634 -9.45575,27.05539 2.18008,4.07351 10.86388,6.36193 16.97036,4.47215 7.97923,-2.46934 33.52241,-26.56409 48.12253,-45.39372 l 2.61007,-3.36618 11.52919,11.85423 11.52919,11.85423 -2.97086,3.75102 c -19.79254,24.99011 -52.46978,53.36749 -66.5998,57.8362 -8.80365,2.78421 -21.96687,3.425357 -29.11569,1.41815 z"
             style="fill:#151e38;fill-opacity:1;stroke:none;stroke-opacity:1"
             inkscape:connector-curvature="0" />
          <path
             id="path5811"
             d="m -963.01175,-107.6078 c 12.32932,-3.80814 37.90268,-25.68582 61.62708,-52.72118 l 3.83608,-4.37144 -8.34053,-8.38409 c -4.58729,-4.61124 -8.60244,-8.2691 -8.92254,-8.12856 -0.32011,0.14054 -5.35822,5.69164 -11.19579,12.33577 -15.69774,17.86662 -30.26554,30.40179 -38.65458,33.26115 -6.93042,2.3622 -14.83021,0.62918 -19.80386,-4.34447 -2.97807,-2.97807 -3.29684,-3.86268 -3.29613,-9.14692 9.5e-4,-7.06905 3.57694,-15.32131 10.68338,-24.6539 2.59496,-3.40785 15.10341,-16.7711 27.79655,-29.6961 30.5929,-31.15175 42.32495,-46.05843 46.08659,-58.55739 2.16415,-7.19092 2.80109,-19.08543 1.53249,-28.61838 -2.49912,-18.7798 -8.17584,-35.12953 -21.6393,-62.32423 -5.30434,-10.71416 -10.08471,-21.83463 -10.96173,-25.5 -0.85539,-3.575 -1.8367,-12.26466 -2.18069,-19.31036 -0.37116,-7.60219 -0.97042,-12.27763 -1.474,-11.5 -2.85787,4.41315 -7.07276,21.06476 -7.57508,29.92656 -0.66254,11.68841 0.82077,17.3163 9.61671,36.48707 9.13508,19.90994 10.61429,25.53963 10.61429,40.39673 0,13.99855 -1.83851,21.80214 -8.00017,33.95693 -7.91727,15.618 -23.42611,32.93013 -51.9971,58.04307 -15.53892,13.65824 -21.56002,19.83609 -26.40742,27.09521 -12.7427,19.08221 -12.8284,41.08286 -0.2362,60.5655 4.5285,7.00645 8.835,10.82872 15.81718,14.03869 10.15165,4.66707 20.52125,5.02773 33.07477,1.15034 z"
             style="fill:#01a9da;fill-opacity:1;stroke:none;stroke-opacity:1"
             inkscape:connector-curvature="0" />
          <g
             id="g5976">
            <circle
               style="fill:#cedfd7;fill-opacity:1;stroke:none;stroke-width:10.90364933;stroke-miterlimit:4;stroke-dasharray:none;stroke-opacity:1"
               id="path5902-3"
               cx="-1001.0848"
               cy="-134.9492"
               r="9.7644091" />
            <circle
               style="fill:#cedfd7;fill-opacity:1;stroke:none;stroke-width:10.90364933;stroke-miterlimit:4;stroke-dasharray:none;stroke-opacity:1"
               id="path5902-6"
               cx="-1000.2881"
               cy="-167.10175"
               r="9.7644091" />
            <circle
               style="fill:#cedfd7;fill-opacity:1;stroke:none;stroke-width:10.90364933;stroke-miterlimit:4;stroke-dasharray:none;stroke-opacity:1"
               id="path5902-1"
               cx="-973.28815"
               cy="-119.88142"
               r="9.7644091" />
          </g>
        </g>
        <g
           id="g6016">
          <path
             id="path5827"
             d="m -742.74141,-47.480473 c -0.0118,-0.28762 1.11908,-5.01262 2.51301,-10.5 4.52477,-17.81246 4.33917,-38.88151 -0.46451,-52.731377 -1.00068,-2.88513 -5.91326,-13.57069 -10.91685,-23.74569 -14.85624,-30.21074 -20.49494,-49.89054 -20.48634,-71.5 0.006,-14.61835 1.4831,-20.565 7.7425,-31.16664 8.68347,-14.70734 35.88524,-44.72297 54.56695,-60.21156 28.30633,-23.46817 38.66235,-38.87501 30.72171,-45.70526 -8.7675,-7.54148 -22.79256,-1.74675 -43.56831,18.00111 -16.06044,15.26585 -141.2917,125.15586 -141.97473,124.58235 -0.32751,-0.275 -5.8271,-5.9 -12.2213,-12.5 l -11.62581,-12 39.95982,-36.5 c 126.22718,-115.29811 123.19875,-112.67961 140.23412,-121.25179 10.03782,-5.05102 16.79304,-6.8177 26.13106,-6.83401 16.22343,-0.0283 27.33519,6.48593 37.11429,21.75822 6.42083,10.0276 8.76217,18.72477 8.7028,32.32758 -0.0436,9.99066 -0.39601,12.3789 -2.68505,18.1965 -3.43693,8.73497 -8.63015,16.75483 -15.62124,24.1238 -7.68015,8.09527 -25.90911,24.0213 -35.64352,31.14054 -16.95083,12.39694 -34.75181,32.91349 -42.5681,49.06193 -5.4437,11.24666 -7.23928,20.30766 -6.63405,33.47723 0.55465,12.06908 2.23336,17.6261 11.13265,36.85235 7.64021,16.5061 10.01023,26.00838 9.26322,37.13955 -1.03025,15.351427 -8.4257,35.348487 -19.0491,51.508097 -2.531,3.85 -4.61145,6.76468 -4.62322,6.47707 z"
             style="fill:#151e38;fill-opacity:1;stroke:none;stroke-opacity:1"
             inkscape:connector-curvature="0" />
          <path
             id="path5825"
             d="m -728.8921,-81.841543 c 3.70768,-9.90966 5.37868,-18.0487 5.46444,-26.615997 0.10344,-10.33326 -1.53032,-16.18495 -9.07383,-32.5 -7.17439,-15.51673 -9.92322,-23.72704 -11.29278,-33.72974 -1.93204,-14.11082 1.22014,-29.97191 8.69875,-43.77026 7.86369,-14.50884 24.95841,-33.98199 39.33271,-44.80515 11.24019,-8.46333 33.12161,-27.45334 38.82899,-33.69811 19.64201,-21.49149 22.1277,-47.53066 6.72565,-70.45531 -12.90052,-19.20131 -32.40637,-23.19258 -55.80408,-11.41857 -13.1702,6.62741 -21.09957,12.83764 -50.73221,39.73315 -24.63689,22.3612 -120.37729,109.74867 -123.00361,112.27208 l -2.48526,2.38788 9.19972,9.19972 9.19972,9.19972 2.28554,-2.06802 c 1.25705,-1.13741 30.63554,-26.96029 65.28554,-57.38419 34.65,-30.4239 67.275,-59.40734 72.5,-64.40765 18.33089,-17.54262 32.44901,-23.80035 43.28212,-19.18443 9.10154,3.87812 10.90278,12.77662 4.66847,23.06319 -4.9049,8.09304 -14.24267,17.97457 -27.429,29.02622 -20.22429,16.95028 -43.62324,41.88882 -54.68859,58.28695 -7.6977,11.40751 -9.06529,15.64645 -9.5989,29.75252 -0.80839,21.3698 4.99053,42.55122 19.84926,72.50244 4.77561,9.62634 9.39695,19.21134 10.26965,21.30001 2.75494,6.5935 4.64699,18.260717 4.64699,28.655387 0,5.52319 0.41767,10.04216 0.92815,10.04216 0.51048,0 1.83464,-2.4228 2.94256,-5.384 z"
             style="fill:#01a9da;fill-opacity:1;stroke:none;stroke-opacity:1"
             inkscape:connector-curvature="0" />
          <g
             id="g5980">
            <circle
               style="fill:#cedfd7;fill-opacity:1;stroke:none;stroke-width:10.90364933;stroke-miterlimit:4;stroke-dasharray:none;stroke-opacity:1"
               id="path5902"
               cx="-834.48987"
               cy="-249.95856"
               r="9.7644091" />
            <circle
               style="fill:#cedfd7;fill-opacity:1;stroke:none;stroke-width:10.90364933;stroke-miterlimit:4;stroke-dasharray:none;stroke-opacity:1"
               id="path5902-0"
               cx="-801.49152"
               cy="-279.2543"
               r="9.7644091" />
          </g>
          <g
             id="g5985">
            <circle
               style="fill:#cedfd7;fill-opacity:1;stroke:none;stroke-width:10.90364933;stroke-miterlimit:4;stroke-dasharray:none;stroke-opacity:1"
               id="path5902-0-0"
               cx="-701.11865"
               cy="-363.93225"
               r="9.7644091" />
            <circle
               style="fill:#cedfd7;fill-opacity:1;stroke:none;stroke-width:10.90364933;stroke-miterlimit:4;stroke-dasharray:none;stroke-opacity:1"
               id="path5902-0-6"
               cx="-665.30359"
               cy="-360.04251"
               r="9.7644091" />
            <circle
               style="fill:#cedfd7;fill-opacity:1;stroke:none;stroke-width:10.90364933;stroke-miterlimit:4;stroke-dasharray:none;stroke-opacity:1"
               id="path5902-0-3"
               cx="-657.94916"
               cy="-326.88141"
               r="9.7644091" />
          </g>
        </g>
      </g>
    </g>
  </g>
</svg>
