<?xml version="1.0" encoding="UTF-8" standalone="no"?>
<svg
   xmlns:dc="http://purl.org/dc/elements/1.1/"
   xmlns:cc="http://creativecommons.org/ns#"
   xmlns:rdf="http://www.w3.org/1999/02/22-rdf-syntax-ns#"
   xmlns:svg="http://www.w3.org/2000/svg"
   xmlns="http://www.w3.org/2000/svg"
   xmlns:sodipodi="http://sodipodi.sourceforge.net/DTD/sodipodi-0.dtd"
   xmlns:inkscape="http://www.inkscape.org/namespaces/inkscape"
   viewBox="0 0 967.55911 967.55911"
   version="1.1"
   id="svg8"
   sodipodi:docname="Falkreath.svg"
   inkscape:version="0.92.5 (2060ec1f9f, 2020-04-08)"
   width="256mm"
   height="256mm">
  <metadata
     id="metadata14">
    <rdf:RDF>
      <cc:Work
         rdf:about="">
        <dc:format>image/svg+xml</dc:format>
        <dc:type
           rdf:resource="http://purl.org/dc/dcmitype/StillImage" />
        <dc:title></dc:title>
      </cc:Work>
    </rdf:RDF>
  </metadata>
  <defs
     id="defs12" />
  <sodipodi:namedview
     pagecolor="#ffffff"
     bordercolor="#666666"
     borderopacity="1"
     objecttolerance="10"
     gridtolerance="10"
     guidetolerance="10"
     inkscape:pageopacity="0"
     inkscape:pageshadow="2"
     inkscape:window-width="3840"
     inkscape:window-height="2056"
     id="namedview10"
     showgrid="false"
     inkscape:zoom="1.3037281"
     inkscape:cx="358.29487"
     inkscape:cy="378.44983"
     inkscape:window-x="0"
     inkscape:window-y="50"
     inkscape:window-maximized="1"
     inkscape:current-layer="g5289"
     units="mm" />
  <g
     id="g5289"
     transform="translate(0,455.55911)">
    <path
       style="fill:#cec3ae;fill-opacity:1;stroke-width:1.20093465"
       d="m 460.58267,478.2633 c -28.80484,-5.04192 -34.06934,-7.43542 -52.39072,-23.81949 -11.29459,-10.10029 -13.30053,-12.43604 -13.40772,-15.61217 -0.0695,-2.05421 -0.2041,-25.89218 -0.3001,-52.97325 l -0.17423,-49.23832 -3.92334,-8.28454 c -2.15785,-4.55649 -7.61295,-14.55424 -12.12246,-22.21727 -9.10689,-15.47543 -39.00806,-69.40713 -43.67948,-78.78324 -1.64542,-3.30255 -3.87939,-8.71816 -4.96434,-12.03465 -5.10815,-15.61451 -5.79031,-22.05898 -6.6076,-62.42331 l -0.8024,-39.63085 -3.15644,-6.00464 c -3.95857,-7.530564 -7.92572,-11.597864 -27.08346,-27.767294 -43.78183,-36.95259 -65.65342,-65.7504 -72.8756,-95.953437 -6.0937,-25.484 -9.12836,-46.32983 -9.12836,-62.70509 0,-15.27027 0.069,-15.68693 2.70209,-16.28164 1.48615,-0.336 7.56587,-1.55625 13.51051,-2.71234 l 10.80841,-2.102019 13.63297,6.856899 c 7.4981,3.77125 24.25115,11.21552 37.22896,16.5428 35.14589,14.42706 44.55897,19.50376 61.60184,33.22311 14.82868,11.93707 20.20097,18.56538 29.67452,36.6124702 8.60946,16.400967 21.25569,34.5773868 23.59068,33.9069768 2.06906,-0.59399 0.73739,-9.38642 -2.38976,-15.77798 -4.35262,-8.8965198 -30.22625,-47.453407 -39.82474,-59.346867 -27.16335,-33.65813 -53.7891,-55.323439 -88.77695,-72.237539 -26.09147,-12.6133 -38.52107,-23.50054 -54.14314,-47.42449 -14.37214,-22.00982 -16.07956,-36.033 -5.25912,-43.19365 l 4.5342,-3.00057 8.26387,5.08093 c 4.54513,2.79455 10.67565,7.00298 13.62339,9.35214 4.82287,3.84348 6.22405,4.31482 13.99363,4.70718 4.7488,0.23962 9.42448,-0.0265 10.39037,-0.59003 1.48679,-0.86861 0.31276,-7.38353 -7.65052,-42.4583 -10.51043,-46.29323 -11.63323,-53.20072 -12.68886,-78.06073 -0.8004,-18.84905 0.72578,-38.62397 4.22392,-54.7299 1.9853,-9.14066 2.61699,-10.30263 11.05188,-20.32894 16.21223,-19.271 33.93081,-31.96912 47.13408,-33.7788 13.24061,-1.81482 26.26378,2.79582 27.05011,9.57667 0.44209,3.81223 -1.65837,7.41935 -8.83125,15.16587 -2.76732,2.98863 -10.08458,12.45932 -16.26057,21.046 l -11.22904,15.61214 -0.6478,20.14134 c -0.57445,17.86138 -0.22152,23.5965 1.81736,29.52566 0.35856,1.04279 3.90763,-1.79411 9.85599,-7.87814 9.97856,-10.20619 21.43223,-18.31491 56.73255,-40.16423 60.19231,-37.25629 77.76209,-44.23976 92.46525,-36.75196 7.06673,3.59885 10.81519,10.61455 10.81519,20.24197 v 6.95415 l -16.06601,13.5731 c -8.83628,7.46519 -16.26705,14.05187 -16.51284,14.63703 -0.24567,0.58516 2.52545,1.80392 6.15829,2.70832 10.34052,2.57431 25.04221,10.39296 34.54454,18.37141 l 8.6891,7.29571 8.68909,-7.29571 c 9.32546,-7.82994 24.17666,-15.7926 34.00925,-18.23443 3.33846,-0.82905 6.31075,-1.87791 6.60514,-2.33077 0.29443,-0.45298 -6.89552,-7.10121 -15.97757,-14.77406 l -16.51283,-13.9506 v -6.95415 c 0,-9.62742 3.74846,-16.64312 10.81515,-20.24197 14.70316,-7.4878 32.27297,-0.50433 92.46524,36.75196 35.30037,21.84932 46.75404,29.95804 56.7326,40.16423 5.94833,6.08403 9.49742,8.92093 9.85598,7.87814 2.03883,-5.92916 2.3918,-11.66428 1.81735,-29.52566 l -0.64781,-20.14134 -11.22901,-15.61214 c -6.17602,-8.58668 -13.49326,-18.05737 -16.26059,-21.046 -7.17286,-7.74652 -9.27333,-11.35364 -8.83124,-15.16587 0.78633,-6.78085 13.80948,-11.39149 27.05011,-9.57667 13.20322,1.80968 30.92183,14.5078 47.13408,33.7788 8.43488,10.02631 9.06659,11.18828 11.05186,20.32894 3.49815,16.10593 5.02432,35.88085 4.22393,54.7299 -1.05562,24.86001 -2.17845,31.7675 -12.68886,78.06073 -7.96339,35.07477 -9.13731,41.58969 -7.65052,42.4583 0.96594,0.56432 5.64159,0.8298 10.39034,0.59003 7.76961,-0.39217 9.1708,-0.8637 13.99366,-4.70718 2.94773,-2.34916 9.07828,-6.55759 13.62338,-9.35214 l 8.26394,-5.08093 4.53419,3.00057 c 10.82041,7.16065 9.11301,21.18383 -5.25918,43.19365 -15.62207,23.92395 -28.05165,34.81119 -54.14313,47.42449 -34.98784,16.9141 -61.61359,38.579409 -88.77694,72.237539 -9.59853,11.89346 -35.47212,50.4503472 -39.82477,59.346867 -3.12711,6.39156 -4.45879,15.18399 -2.38976,15.77798 2.33503,0.67041 14.98122,-17.5060098 23.59068,-33.9069768 9.47357,-18.0470902 14.84583,-24.6754002 29.67454,-36.6124702 17.04287,-13.71935 26.45594,-18.79605 61.60184,-33.22311 12.9778,-5.32728 29.73086,-12.77155 37.22895,-16.5428 l 13.63299,-6.856899 10.80843,2.102019 c 5.94463,1.15609 12.02434,2.37665 13.51048,2.71234 2.63297,0.59471 2.7021,1.01137 2.7021,16.28164 0,16.37526 -3.03466,37.22109 -9.12835,62.70509 -7.22219,30.203037 -29.09378,59.000847 -72.87561,95.953437 -19.1577,16.16943 -23.12488,20.23673 -27.08345,27.767294 l -3.15647,6.00464 -0.80239,39.63085 c -1.15839,57.2124 -0.57151,55.1191 -30.80799,109.88556 -8.93443,16.18257 -19.93395,35.69264 -24.44342,43.35564 -4.5095,7.66303 -9.96465,17.66078 -12.12245,22.21727 l -3.92334,8.28454 -0.17424,49.23832 c -0.0956,27.08107 -0.23093,50.91904 -0.30009,52.97325 -0.10696,3.17613 -2.1131,5.51188 -13.40769,15.61217 -20.12409,17.99615 -23.59173,19.2892 -73.18567,27.29031 -1.65128,0.26646 -13.17068,-1.29547 -25.59863,-3.47082 z m -31.09089,-47.26673 c 5.84999,-1.5267 102.72537,-1.5267 108.57536,0 2.4469,0.63851 6.0542,2.51176 8.01627,4.16273 4.28583,3.60628 4.96709,2.84338 5.81548,-6.51227 1.04398,-11.51358 -4.81202,-19.92458 -20.31353,-29.17648 -16.69338,-9.96333 -37.79864,-14.13812 -59.33393,-11.7368 -13.90511,1.55052 -25.49148,5.29898 -36.27787,11.7368 -15.50154,9.2519 -21.35754,17.6629 -20.31353,29.17648 0.84839,9.35565 1.52965,10.11855 5.81549,6.51227 1.96203,-1.65097 5.56932,-3.52422 8.01626,-4.16273 z M 399.20862,218.79639 c 6.71369,-3.17408 17.31851,-16.52239 17.31851,-21.79891 0,-0.85285 -4.79962,-8.7219 -10.66582,-17.48677 -9.30996,-13.91025 -13.13704,-18.29042 -30.10577,-34.45678 -13.49472,-12.85663 -19.64432,-19.54243 -20.10814,-21.86162 -1.37858,-6.89296 -2.76892,-2.95737 -2.74413,7.76772 0.0877,37.81943 6.05292,72.61775 14.15316,82.56018 2.43772,2.99218 21.03535,8.58686 25.45199,7.65675 1.65128,-0.34771 4.66636,-1.41902 6.7002,-2.38057 z m 188.46013,0.17197 c 12.13251,-3.32806 13.60033,-4.57338 17.44487,-14.80048 5.99573,-15.94956 9.47123,-42.61412 9.54202,-73.20774 0.0227,-10.72509 -1.36554,-14.66067 -2.74409,-7.76772 -0.46386,2.31919 -6.61345,9.00499 -20.10818,21.86162 -17.01785,16.21308 -20.78139,20.52499 -30.20629,34.60694 -11.79375,17.62148 -11.8687,17.93465 -6.37311,26.64022 4.55818,7.2206 14.48889,14.55602 21.0359,15.53835 0.33487,0.0503 5.4689,-1.2418 11.40888,-2.87119 z M 356.70933,47.064416 353.32873,28.919956 333.21711,6.0459162 C 315.30247,-14.329441 311.3941,-18.085271 297.4381,-28.336601 c -13.94616,-10.24411 -37.66534,-24.51398 -38.82282,-23.35654 -0.23966,0.23963 7.06835,6.64528 16.24023,14.23442 9.17194,7.58918 19.47902,17.31122 22.90472,21.60458 7.20906,9.0349602 13.08429,20.6335072 13.07921,25.8201072 -0.005,4.9007998 -3.42597,10.1340098 -9.27302,14.1844598 -8.63361,5.98084 -17.52522,4.18148 -24.9482,-5.04877 -1.32102,-1.6427 -3.08055,-3.8298 -3.91004,-4.86025 -1.26052,-1.56597 -1.33133,-1.38062 -0.43121,1.12872 5.47881,15.27474 11.9137,23.05361 23.41213,28.30209 3.38184,1.54371 13.74163,4.41294 23.02168,6.3761 19.79502,4.18753 31.55729,8.58644 36.91538,13.80574 2.12111,2.06623 3.99326,3.21638 4.16024,2.5558 0.16705,-0.66052 -1.21765,-9.36594 -3.07699,-19.34544 z m 267.13275,9.80923 c 4.47323,-1.79077 15.72601,-4.86221 25.00611,-6.82533 30.19208,-6.38703 38.51592,-12.60355 46.43381,-34.67819 0.90005,-2.50934 0.82926,-2.69469 -0.43121,-1.12872 -0.82949,1.03045 -2.58901,3.21755 -3.91003,4.86025 -7.423,9.23025 -16.3146,11.02961 -24.94825,5.04877 -5.84697,-4.05045 -9.26816,-9.28366 -9.273,-14.1844598 -0.004,-5.1866 5.87018,-16.785147 13.07921,-25.8201072 3.42573,-4.29336 13.7328,-14.0154 22.90473,-21.60458 9.17189,-7.58914 16.47999,-13.9946 16.24025,-14.23442 -1.15748,-1.15744 -24.8767,13.11243 -38.82285,23.35654 -13.95598,10.25133 -17.86435,14.00716 -35.77901,34.3825172 l -20.11162,22.8740398 -3.36575,18.14446 c -1.85114,9.9795 -3.37088,18.74876 -3.37723,19.48728 -0.004,0.73848 1.841,-0.40441 4.10513,-2.53969 2.26405,-2.13536 7.77645,-5.34762 12.24975,-7.13836 z M 489.68405,23.668156 c 9.0949,-5.54457 17.57869,-15.9915598 30.63235,-37.720897 12.91593,-21.50011 13.0269,-21.75066 20.54993,-46.39174 6.56852,-21.51462 7.75526,-26.89742 9.01822,-40.903979 l 1.45436,-16.12917 -33.37519,-50.0668 c -18.35641,-27.53665 -33.73928,-50.06672 -34.18424,-50.06672 -0.44481,0 -15.82787,22.53007 -34.18428,50.06672 l -33.37519,50.0668 1.45432,16.12917 c 1.26297,14.006559 2.44974,19.389359 9.01826,40.903979 7.523,24.64108 7.634,24.89163 20.54993,46.39174 8.6874,14.46122021 15.22761,23.8681772 19.75763,28.418157 7.10374,7.13492 13.74093,11.80414 16.77933,11.80414 0.99077,0 3.64777,-1.12561 5.90457,-2.5014 z M 357.08577,-155.8051 c 8.60474,-5.36311 9.38226,-6.29775 50.92987,-61.21996 23.20547,-30.67554 42.39655,-56.46168 42.64679,-57.30257 0.2502,-0.84088 -4.89007,-6.48745 -11.42294,-12.54796 -13.20488,-12.24999 -23.05399,-17.95819 -36.79631,-21.32593 l -8.46048,-2.07335 -15.72865,7.19104 c -14.25499,6.51727 -16.80493,8.18593 -27.21529,17.80963 -9.41042,8.69929 -12.3461,12.29923 -16.24154,19.91657 -13.314,26.03501 -19.47714,51.23442 -15.62179,63.87384 0.61871,2.0284 2.02411,8.27649 3.12303,13.88459 2.96536,15.13281 7.25949,24.83686 13.95497,31.53592 7.22703,7.23092 9.59785,7.26032 20.83234,0.25814 z m 274.21971,-0.25814 c 6.69547,-6.69906 10.98962,-16.40307 13.95496,-31.53589 1.09894,-5.60814 2.50431,-11.85619 3.12306,-13.88462 3.85531,-12.63938 -2.30782,-37.83881 -15.62181,-63.87382 -3.89544,-7.61734 -6.83112,-11.21728 -16.24153,-19.91657 -10.41037,-9.6237 -12.96031,-11.29236 -27.21532,-17.80963 l -15.72862,-7.19104 -8.46047,2.07335 c -13.74237,3.36774 -23.59148,9.07594 -36.79631,21.32593 -6.53288,6.06051 -11.67323,11.70708 -11.42294,12.54796 0.2502,0.84089 19.43671,26.62099 42.63654,57.2891 41.11552,54.35104 42.39859,55.89732 50.76658,61.18352 11.18729,7.06719 13.75982,7.04167 21.00586,-0.20825 z"
       id="path950"
       inkscape:connector-curvature="0" />
  </g>
</svg>
