<?xml version="1.0" encoding="UTF-8" standalone="no"?>
<!-- Created with Inkscape (http://www.inkscape.org/) -->

<svg
   xmlns:dc="http://purl.org/dc/elements/1.1/"
   xmlns:cc="http://creativecommons.org/ns#"
   xmlns:rdf="http://www.w3.org/1999/02/22-rdf-syntax-ns#"
   xmlns:svg="http://www.w3.org/2000/svg"
   xmlns="http://www.w3.org/2000/svg"
   xmlns:sodipodi="http://sodipodi.sourceforge.net/DTD/sodipodi-0.dtd"
   xmlns:inkscape="http://www.inkscape.org/namespaces/inkscape"
   width="210mm"
   height="297mm"
   viewBox="0 0 210 297"
   version="1.1"
   id="svg2959"
   inkscape:version="0.92.5 (2060ec1f9f, 2020-04-08)"
   sodipodi:docname="Gilane.svg">
  <defs
     id="defs2953" />
  <sodipodi:namedview
     id="base"
     pagecolor="#ffffff"
     bordercolor="#666666"
     borderopacity="1.0"
     inkscape:pageopacity="0.0"
     inkscape:pageshadow="2"
     inkscape:zoom="1.4"
     inkscape:cx="439.84985"
     inkscape:cy="499.27886"
     inkscape:document-units="mm"
     inkscape:current-layer="layer1"
     showgrid="false"
     inkscape:window-width="3840"
     inkscape:window-height="2056"
     inkscape:window-x="0"
     inkscape:window-y="50"
     inkscape:window-maximized="1" />
  <metadata
     id="metadata2956">
    <rdf:RDF>
      <cc:Work
         rdf:about="">
        <dc:format>image/svg+xml</dc:format>
        <dc:type
           rdf:resource="http://purl.org/dc/dcmitype/StillImage" />
        <dc:title></dc:title>
      </cc:Work>
    </rdf:RDF>
  </metadata>
  <g
     inkscape:label="Layer 1"
     inkscape:groupmode="layer"
     id="layer1">
    <g
       transform="matrix(0.62027879,0,0,0.62027879,1037.2831,109.98924)"
       id="g2414">
      <path
         inkscape:connector-curvature="0"
         id="path1568"
         d="m -1567.5033,278.27774 c -0.3456,-0.55911 -0.8051,-2.79363 -1.0212,-4.9656 -0.4042,-4.0636 -3.0435,-9.89129 -6.1846,-13.65607 -0.9812,-1.17604 -5.6712,-4.87481 -10.4222,-8.2195 -10.6701,-7.51176 -16.1431,-13.56331 -20.5095,-22.67743 -10.0792,-21.03907 -7.6486,-47.36242 6.7439,-73.03708 l 4.9232,-8.78229 -4.4174,-8.57272 c -8.5797,-16.65069 -14.7507,-38.747592 -16.2064,-58.031402 -0.6146,-8.14171 -0.9019,-9.12119 -2.7904,-9.51582 -1.1579,-0.24195 -10.6236,-1.36509 -21.035,-2.49587 -10.4114,-1.13078 -19.0608,-2.18694 -19.2209,-2.34703 -0.1601,-0.16009 7.2333,-1.07441 16.4298,-2.03184 9.1965,-0.95742 18.7945,-1.99502 21.329,-2.30578 l 4.608,-0.565 0.6354,-8.95047 c 0.6982,-9.83689 3.6115,-25.319359 6.5267,-34.685869 l 1.8736,-6.020031 -4.8468,0.57402 c -18.864,2.23417 -41.3563,-12.81517956 -52.7947,-35.32435 -15.4498,-30.403226 -0.013,-67.651963 31.4313,-75.842103 11.2085,-2.919435 21.4584,-1.462675 21.4584,3.04977 0,1.73585 -1.7048,3.72504 -6.2613,7.305896 -10.8905,8.5585 -15.2093,16.381671 -14.5717,26.395581 1.0617,16.672396 12.6273,19.940316 43.333,12.243866 12.8707,-3.226066 16.0033,-3.676226 22.0677,-3.171206 5.4307,0.45225 7.569,0.23744 9.2322,-0.92748 1.1904,-0.83382 5.8777,-3.50012 10.4163,-5.9251 l 8.2518,-4.40904 -3.6743,-1.53523 c -6.8932,-2.88014 -11.8129,-12.635851 -11.7717,-23.343201 0.029,-7.450636 2.1253,-11.876831 10.5504,-22.271751 18.0957,-22.3266 20.6602,-25.74197 22.9273,-30.53418 4.8043,-10.15553 13.0772,-14.61482 22.1274,-11.9272 5.5818,1.65762 9.1068,4.93002 12.4072,11.51809 2.7868,5.56304 4.6035,8.01925 18.6899,25.26875 14.4557,17.701875 14.7628,18.289705 14.7558,28.249651 -0.01,6.89363 -0.4246,8.85748 -2.9928,14 -2.3989,4.803671 -3.8995,6.473901 -7.6201,8.481591 l -4.6329,2.5 5.263,2.32063 c 2.8946,1.27635 7.594,3.85582 10.4431,5.73216 5.0046,3.29593 5.4237,3.39156 12.3699,2.82225 6.2051,-0.50856 9.2442,-0.0725 22.1898,3.184046 25.7146,6.46862 36.2567,5.30736 41.25,-4.543856 5.6165,-11.08083 0.8009,-23.904881 -12.7822,-34.039241 -6.363,-4.747426 -7.4113,-6.278726 -6.0456,-8.830636 1.8225,-3.405405 11.7938,-4.151735 21.5428,-1.61244 13.3096,3.4667 23.9987,12.020296 30.402,24.328266 11.6748,22.440591 8.8314,44.567157 -8.4141,65.4746274 -12.118,14.6912798 -29.1726,23.0418796 -43.5752,21.3361096 -3.9885,-0.47237 -4.9551,-0.31593 -4.5512,0.7366 3.541,9.22768 7.1875,26.82579 8.231,39.72309 l 0.6983,8.63161 4.1221,0.5553 c 2.2672,0.30542 11.8742,1.3441 21.349,2.30819 9.4747,0.96409 17.0932,1.88656 16.9298,2.04993 -0.1634,0.16338 -8.8155,1.22223 -19.2269,2.35301 -10.4114,1.13078 -19.8448,2.24581 -20.9632,2.47784 -1.8177,0.37714 -2.1665,1.68743 -3.2884,12.35475 -2.1729,20.660192 -8.0879,40.679962 -16.9043,57.213342 l -3.5064,6.57557 3.9212,6.92443 c 9.776,17.26347 13.6873,30.52965 13.6873,46.42443 0,24.02774 -8.0189,38.9359 -28.2094,52.4454 -4.0334,2.69874 -8.4121,6.32095 -9.7304,8.04937 -2.8544,3.74234 -5.4362,10.6589 -5.4362,14.56357 0,3.23995 -2.7808,4.6645 -5.874,3.00909 -3.4612,-1.85238 -9.0514,-9.26025 -11.3105,-14.98808 -1.7436,-4.42088 -2.2034,-7.65571 -2.2144,-15.57935 -0.013,-9.54886 0.178,-10.44999 4.2376,-19.97446 5.6788,-13.32352 8.1647,-23.23039 8.146,-32.46388 -0.022,-10.92595 -0.2796,-11.07799 -9.6003,-5.66943 -9.9597,5.77942 -21.9814,10.17849 -33.1273,12.12216 -4.7774,0.83312 -8.9715,1.8457 -9.3201,2.25019 -0.3485,0.40448 -1.6702,10.41042 -2.937,22.23542 -1.2668,11.825 -2.6141,21.85659 -2.994,22.29241 -0.38,0.43583 -1.7516,-9.13305 -3.0482,-21.26418 -1.2965,-12.13113 -2.6282,-22.49494 -2.9593,-23.03069 -0.3311,-0.53575 -4.5261,-1.65838 -9.3221,-2.49473 -13.5265,-2.35884 -26.4714,-7.36813 -36.9357,-14.29314 -5.0222,-3.32352 -5.7051,-2.33238 -5.7254,8.31043 -0.018,9.36989 2.1034,17.84411 8.1836,32.69183 3.8077,9.29849 4.2139,11.10566 4.2223,18.78807 0.01,9.53804 -1.771,16.00639 -6.4327,23.35713 -3.9771,6.27111 -10.7734,10.418 -12.4987,7.62629 z"
         style="fill:#550000;stroke:none;stroke-opacity:1" />
      <g
         transform="translate(70.237288,9.4915254)"
         id="g2242">
        <path
           style="fill:#862302;fill-opacity:1;stroke:none;stroke-opacity:1"
           d="m -1582.242,158.55279 c -0.01,-0.6875 -1.3512,-12.725 -2.9884,-26.75 -1.6372,-14.025 -2.982,-26.06251 -2.9884,-26.75001 -0.018,-1.93902 -2.4976,-1.47602 -4.6066,0.86017 -1.0478,1.1606 -3.5962,3.45135 -5.6632,5.09055 l -3.7583,2.98038 3.0083,-8.15877 c 1.6545,-4.48732 3.0082,-8.578067 3.0082,-9.090547 0,-1.77135 -3.9252,-0.92217 -7.7056,1.66703 -3.5118,2.405277 -4.3335,2.551177 -11.034,1.959237 -9.1457,-0.807957 -11.2498,0.16622 -11.2897,5.22713 l -0.029,3.71482 -2.9707,-3.26578 c -3.5033,-3.85128 -3.777,-7.293117 -0.9011,-11.331877 2.976,-4.17949 5.674,-5.30401 12.1496,-5.064 5.6484,0.20935 5.7519,0.16249 8.3665,-3.78841 4.2376,-6.40353 3.1462,-7.31863 -7.8332,-6.56736 l -9.2525,0.63312 7.25,-4.26318 c 11.4419,-6.72813 11.9262,-6.47724 -19.1051,-9.89741 -10.3704,-1.14298 -19.0315,-1.90183 -19.247,-1.68632 -0.7296,0.72961 1.5952,16.18254 3.7036,24.61731 7.0293,28.121867 25.4612,52.996647 47.8985,64.641307 9.2684,4.81019 24.0144,8.02059 23.9884,5.22261 z"
           id="path1476"
           inkscape:connector-curvature="0" />
        <path
           style="fill:#862302;fill-opacity:1;stroke:none;stroke-opacity:1"
           d="m -1550.4067,157.24502 c 11.9614,-3.98558 20.5312,-9.57761 31.1763,-20.34347 13.4703,-13.62313 21.0759,-27.19274 26.5626,-47.392017 2.4072,-8.86228 4.4273,-25.70675 3.0829,-25.70675 -1.0469,0 -35.731,3.89635 -40.3955,4.53795 -2.6342,0.36234 -4.25,1.10255 -4.25,1.94695 0,0.7493 3.2625,3.22542 7.25,5.5025 l 7.25,4.14015 -9.75,-0.62411 c -9.1521,-0.58584 -9.75,-0.50684 -9.75,1.28834 0,1.05185 1.0301,3.4415 2.2891,5.31034 2.157,3.20192 2.6421,3.40749 8.4101,3.56459 7.2234,0.19673 9.7245,1.34032 12.3506,5.64711 2.6928,4.41636 2.4406,7.115517 -1.0205,10.920397 l -2.9707,3.26578 -0.045,-3 c -0.082,-5.48306 -1.0491,-6 -11.2299,-6 -8.0266,0 -9.7113,-0.304737 -12.4384,-2.249997 -3.4797,-2.48201 -6.3477,-2.93423 -6.342,-1 0,0.6875 1.3025,4.726877 2.8901,8.976407 3.2512,8.70246 2.5717,8.99209 -4.3467,1.85275 -2.1742,-2.24354 -4.5091,-4.07916 -5.1888,-4.07916 -0.6963,0 -1.4886,1.85527 -1.8151,4.25 -1.0791,7.91709 -5.5432,48.14611 -5.5432,49.95396 0,2.58401 4.532,2.33429 13.8237,-0.76172 z"
           id="path1474"
           inkscape:connector-curvature="0" />
        <path
           style="fill:#862302;fill-opacity:1;stroke:none;stroke-opacity:1"
           d="m -1632.9387,46.658193 c 23.8701,-2.50654 24.3606,-2.82983 13.7046,-9.03398 l -6.4963,-3.78228 9.25,-0.0196 c 10.742,-0.0227 11.4597,-0.88312 6.1302,-7.34873 -3.0846,-3.74218 -3.1804,-3.77725 -8.5021,-3.11235 -5.2931,0.66133 -5.4487,0.60616 -9.3802,-3.32536 -4.9785,-4.97849 -5.362,-8.98246 -1.2479,-13.0285902 l 2.75,-2.70455 0.3148,3.2694103 c 0.2075,2.1551704 1.1618,3.8243599 2.8,4.8977299 2.1908,1.4355 3.1369,1.47195 7.9896,0.30781 5.1242,-1.22927 5.7945,-1.17073 9.7001,0.84708 2.3075,1.19218 4.9706,2.722321 5.918,3.400311 1.3119,0.93889 2.0004,0.95475 2.8886,0.0666 1.1028,-1.102761 0.2456,-4.152711 -4.7181,-16.78891121 -0.4527,-1.15238 1.9126,0.43691 5.5811,3.75000001 3.5017,3.1625003 6.8777,5.7500007 7.5022,5.7500007 0.7426,0 2.0884,-8.5641107 3.8893,-24.7500005 1.5145,-13.6125 3.0206,-26.5081 3.3469,-28.65688 l 0.5933,-3.90688 -4.7262,0.64779 c -2.5994,0.35629 -7.8683,1.74053 -11.7087,3.0761 -30.3405,10.55137 -53.4877,42.1817098 -59.3545,81.10705 -0.8275,5.49055 -1.5073,10.32032 -1.5105,10.73282 -0.01,1.12824 2.6647,0.98078 25.2858,-1.39459 z"
           id="path1386"
           inkscape:connector-curvature="0" />
        <path
           style="fill:#862302;fill-opacity:1;stroke:none;stroke-opacity:1"
           d="m -1489.2304,44.413253 c 0,-6.59061 -2.7256,-19.66253 -6.1352,-29.42421 -9.4372,-27.01857 -27.7363,-48.05448 -49.8458,-57.30083 -6.9129,-2.89101 -18.561,-5.67677 -19.5598,-4.67793 -0.328,0.32792 0.7846,12.70824 2.4723,27.51182 1.6877,14.8035798 3.0685,27.4477405 3.0685,28.0981405 0,2.3778095 2.6392,1.04935 8.7564,-4.4075407 l 6.2564,-5.58109 -3.046,8.2612 c -4.0591,11.0087412 -3.1131,13.4055102 3.3499,8.4878302 4.417,-3.36084 7.8056,-3.98763 13.5705,-2.51012 4.3198,1.10712 5.2709,1.05871 7.4668,-0.3801 1.6686,-1.09332 2.6225,-2.7502995 2.8312,-4.9182299 l 0.3148,-3.2694103 2.75,2.8960203 c 3.8059,4.0080099 3.6046,7.7010399 -0.6741,12.3686699 -3.176,3.46463 -3.8463,3.74144 -9.25,3.81987 -8.1357,0.1181 -7.9327,0.0431 -10.2443,3.783471 -3.7886,6.130049 -3.247,6.631439 7.1684,6.636139 l 9.25,0.004 -7.25,4.1847 c -3.9875,2.30159 -7.25,4.68921 -7.25,5.30583 0,1.08867 30.5734,5.06685 41.25,5.36741 l 4.75,0.13389 z"
           id="path1384"
           inkscape:connector-curvature="0" />
      </g>
      <g
         transform="translate(70.237288,9.4915254)"
         id="g2106">
        <g
           id="g1966">
          <g
             id="g1654">
            <path
               style="fill:#eec225;fill-opacity:1;stroke:none;stroke-opacity:1"
               d="m -1579.7385,186.05279 c -0.252,-1.5125 -0.9019,-6.70816 -1.4444,-11.54592 -1.1396,-10.16369 -1.3668,-10.70408 -4.5012,-10.70408 -3.3555,0 -15.1979,-3.7994 -21.0463,-6.75231 -30.3705,-15.33442 -49.3436,-45.84322 -54.9782,-88.405007 l -0.6165,-4.65731 -6.2027,-0.6453 c -3.4114,-0.35491 -7.5093,-0.89757 -9.1063,-1.2059 l -2.9037,-0.5606 0.5768,9.36321 c 1.4077,22.85102 10.0505,48.515287 23.2083,68.915487 15.7673,24.44591 40.5144,42.08896 66.5223,47.42596 10.2243,2.09809 11.0303,2.00375 10.4919,-1.22823 z"
               id="path1544"
               inkscape:connector-curvature="0" />
            <g
               id="g1626">
              <g
                 id="g1600">
                <path
                   style="fill:#440f00;fill-opacity:1;stroke:none;stroke-opacity:1"
                   d="m -1594.7015,181.18887 c -1.7505,-1.75052 -2.0439,-8.55533 -0.4937,-11.45182 1.248,-2.33196 5.5076,-2.56811 6.3578,-0.35247 0.93,2.42361 0.7218,8.33527 -0.3652,10.3663 -1.3919,2.60065 -3.7258,3.21101 -5.4989,1.43799 z"
                   id="path1542"
                   inkscape:connector-curvature="0" />
                <path
                   style="fill:#862302;fill-opacity:1;stroke:none;stroke-opacity:1"
                   d="m -1590.3909,178.25574 c 1.5527,-3.40781 1.462,-5.67555 -0.3205,-8.01182 -1.2839,-1.68283 -1.6178,-1.74153 -2.5088,-0.44113 -1.6368,2.38858 -2.2781,5.79658 -1.5996,8.5 0.809,3.22335 2.9491,3.20062 4.4289,-0.0471 z"
                   id="path1540"
                   inkscape:connector-curvature="0" />
              </g>
              <g
                 id="g1596">
                <path
                   style="fill:#440f00;fill-opacity:1;stroke:none;stroke-opacity:1"
                   d="m -1615.2566,173.75382 c -2.252,-4.20795 3.6684,-13.79304 7.59,-12.28816 2.4878,0.95463 1.7909,7.76215 -1.1527,11.2604 -3.0177,3.58634 -4.9066,3.88791 -6.4373,1.02776 z"
                   id="path1538"
                   inkscape:connector-curvature="0" />
                <path
                   style="fill:#862302;fill-opacity:1;stroke:none;stroke-opacity:1"
                   d="m -1609.2194,170.55279 c 2.2153,-3.6335 2.5383,-6.29247 0.8881,-7.31234 -1.7427,-1.07707 -4.9063,2.83169 -5.5619,6.87212 -0.4871,3.0012 -0.2916,3.69022 1.0467,3.69022 0.905,0 2.5372,-1.4625 3.6271,-3.25 z"
                   id="path1536"
                   inkscape:connector-curvature="0" />
              </g>
              <g
                 id="g1592">
                <path
                   style="fill:#440f00;fill-opacity:1;stroke:none;stroke-opacity:1"
                   d="m -1631.5637,164.13612 c -1.8363,-1.83622 -0.4971,-6.70294 2.7333,-9.93333 3.7766,-3.77665 4.7931,-4.07713 6.566,-1.94096 3.3709,4.06166 -5.6251,15.54856 -9.2993,11.87429 z"
                   id="path1534"
                   inkscape:connector-curvature="0" />
                <path
                   style="fill:#862302;fill-opacity:1;stroke:none;stroke-opacity:1"
                   d="m -1625.303,160.16793 c 2.3378,-2.97201 2.7718,-7.36514 0.7276,-7.36514 -2.4592,0 -7.3123,7.12746 -6.1422,9.02067 1.0686,1.72907 3.2855,1.05126 5.4146,-1.65553 z"
                   id="path1532"
                   inkscape:connector-curvature="0" />
              </g>
              <g
                 id="g1588">
                <path
                   style="fill:#440f00;fill-opacity:1;stroke:none;stroke-opacity:1"
                   d="m -1645.5162,149.50042 c -1.4278,-3.72094 4.4471,-10.69763 9.0083,-10.69763 3.252,0 3.0813,4.89127 -0.3114,8.92327 -2.7335,3.24859 -7.7393,4.26988 -8.6969,1.77436 z"
                   id="path1530"
                   inkscape:connector-curvature="0" />
                <path
                   style="fill:#862302;fill-opacity:1;stroke:none;stroke-opacity:1"
                   d="m -1638.0796,146.80581 c 2.9852,-2.98521 3.4722,-5.96338 1.104,-6.75188 -1.7782,-0.59206 -7.2548,5.19946 -7.2548,7.67194 0,2.98548 2.6402,2.59055 6.1508,-0.92006 z"
                   id="path1528"
                   inkscape:connector-curvature="0" />
              </g>
              <g
                 id="g1584">
                <path
                   style="fill:#440f00;fill-opacity:1;stroke:none;stroke-opacity:1"
                   d="m -1658.2304,132.44881 c 0,-4.58311 7.3477,-9.8778 11.4978,-8.28525 4.6828,1.79696 -2.0521,10.63923 -8.1036,10.63923 -2.8977,0 -3.3942,-0.34435 -3.3942,-2.35398 z"
                   id="path1526"
                   inkscape:connector-curvature="0" />
                <path
                   style="fill:#862302;fill-opacity:1;stroke:none;stroke-opacity:1"
                   d="m -1651.3019,132.33978 c 2.8181,-1.45729 4.0715,-3.36174 4.0715,-6.18617 0,-2.25873 -3.9932,-0.73598 -7.2791,2.77576 -4.0946,4.37605 -2.3162,6.26687 3.2076,3.41041 z"
                   id="path1524"
                   inkscape:connector-curvature="0" />
              </g>
              <g
                 id="g1580">
                <path
                   style="fill:#440f00;fill-opacity:1;stroke:none;stroke-opacity:1"
                   d="m -1667.1773,115.3667 c -2.5033,-3.01624 3.8402,-8.56392 9.7923,-8.56392 2.935,0 4.5213,2.44622 3.1943,4.92573 -2.2817,4.26341 -10.5462,6.57872 -12.9866,3.63819 z"
                   id="path1522"
                   inkscape:connector-curvature="0" />
                <path
                   style="fill:#862302;fill-opacity:1;stroke:none;stroke-opacity:1"
                   d="m -1657.4804,113.212 c 3.0255,-1.95692 2.9126,-4.40922 -0.2029,-4.40922 -5.0206,0 -9.5702,3.53557 -7.9413,6.17127 0.7334,1.18665 5.0188,0.25948 8.1442,-1.76205 z"
                   id="path1520"
                   inkscape:connector-curvature="0" />
              </g>
              <g
                 id="g1572">
                <path
                   style="fill:#440f00;fill-opacity:1;stroke:none;stroke-opacity:1"
                   d="m -1673.5637,97.136113 c -1.6025,-1.60246 -0.4164,-4.51533 2.5833,-6.34429 7.5851,-4.62472 14.7385,-0.27157 8.1151,4.93838 -2.5423,1.99982 -9.2262,2.87816 -10.6984,1.40591 z"
                   id="path1518"
                   inkscape:connector-curvature="0" />
                <path
                   style="fill:#862302;fill-opacity:1;stroke:none;stroke-opacity:1"
                   d="m -1663.1064,94.190543 c 2.4292,-2.19837 2.3665,-3.02623 -0.2816,-3.71871 -2.322,-0.60724 -8.165,1.42594 -9.2793,3.22892 -2.1685,3.50864 5.7755,3.91559 9.5609,0.48979 z"
                   id="path1516"
                   inkscape:connector-curvature="0" />
              </g>
              <g
                 id="g1576">
                <path
                   style="fill:#440f00;fill-opacity:1;stroke:none;stroke-opacity:1"
                   d="m -1676.2787,76.964733 c -2.7312,-2.21155 -1.9988,-3.82649 2.6082,-5.75142 3.9169,-1.63658 9.1219,-0.87354 10.4058,1.52546 2.5558,4.77553 -8.073,8.22696 -13.014,4.22596 z"
                   id="path1514"
                   inkscape:connector-curvature="0" />
                <path
                   style="fill:#862302;fill-opacity:1;stroke:none;stroke-opacity:1"
                   d="m -1665.2304,75.200813 c 1.3333,-1.30698 1.3333,-1.57575 0,-2.41888 -3.1325,-1.98082 -11,-0.48723 -11,2.08826 0,2.9539 8.0762,3.19664 11,0.33062 z"
                   id="path1512"
                   inkscape:connector-curvature="0" />
              </g>
            </g>
          </g>
          <g
             id="g1740">
            <path
               style="fill:#eec225;fill-opacity:1;stroke:none;stroke-opacity:1"
               d="m -1558.6641,187.75206 c 15.3083,-2.71077 30.5005,-9.83198 44.3393,-20.78362 26.2095,-20.74152 45.1022,-58.79285 47.7564,-96.184937 l 0.6333,-8.92146 -5.3977,0.60251 c -2.9687,0.33137 -7.1976,0.89231 -9.3976,1.24651 l -4,0.64402 -0.7584,7.62865 c -1.7605,17.70949 -9.0738,38.080877 -19.0574,53.085417 -6.4065,9.62825 -20.5037,23.52664 -28.9974,28.58825 -7.319,4.36157 -16.4563,8.02001 -23.7435,9.50646 -3.2044,0.65363 -6.1143,1.47662 -6.4666,1.82886 -0.4555,0.4555 -3.341,20.06008 -3.4676,23.56007 -0.018,0.49004 2.7088,0.2349 8.5572,-0.80073 z"
               id="path1510"
               inkscape:connector-curvature="0" />
            <g
               id="g1712">
              <g
                 id="g1658">
                <path
                   style="fill:#440f00;fill-opacity:1;stroke:none;stroke-opacity:1"
                   d="m -1556.2304,180.80279 c -3.8276,-3.82757 -1.8283,-15.02255 2.3935,-13.4025 3.4295,1.31602 4.8559,11.01027 2.0351,13.83107 -1.9812,1.98114 -2.0229,1.9771 -4.4286,-0.42857 z"
                   id="path1508"
                   inkscape:connector-curvature="0" />
                <path
                   style="fill:#862302;fill-opacity:1;stroke:none;stroke-opacity:1"
                   d="m -1552.199,178.74414 c 2.1326,-3.98486 -1.7958,-12.50636 -4.0923,-8.87705 -1.1905,1.88131 -1.1762,5.18191 0.036,8.3706 1.1783,3.09926 2.5752,3.27367 4.0561,0.50645 z"
                   id="path1506"
                   inkscape:connector-curvature="0" />
              </g>
              <g
                 id="g1662">
                <path
                   style="fill:#440f00;fill-opacity:1;stroke:none;stroke-opacity:1"
                   d="m -1536.9579,173.58645 c -6.6992,-7.15121 -3.9373,-16.60227 2.8642,-9.80083 2.527,2.52705 2.9332,3.62777 2.6717,7.24002 -0.3651,5.04337 -2.35,5.96157 -5.5359,2.56081 z"
                   id="path1504"
                   inkscape:connector-curvature="0" />
                <path
                   style="fill:#862302;fill-opacity:1;stroke:none;stroke-opacity:1"
                   d="m -1532.4631,171.22446 c 0.352,-2.52988 -3.3228,-8.42167 -5.2526,-8.42167 -2.2704,0 -1.8999,5.24065 0.5947,8.412 2.3294,2.96129 4.2468,2.96528 4.6579,0.01 z"
                   id="path1502"
                   inkscape:connector-curvature="0" />
              </g>
              <g
                 id="g1666">
                <path
                   style="fill:#440f00;fill-opacity:1;stroke:none;stroke-opacity:1"
                   d="m -1520.2763,163.52099 c -4.6203,-3.64093 -6.5955,-10.87438 -3.3132,-12.1339 3.8082,-1.46135 10.1028,6.31633 8.9214,11.0234 -0.6534,2.60332 -3.0992,3.08762 -5.6082,1.1105 z"
                   id="path1500"
                   inkscape:connector-curvature="0" />
                <path
                   style="fill:#862302;fill-opacity:1;stroke:none;stroke-opacity:1"
                   d="m -1516.2304,160.35855 c 0,-3.3732 -4.1791,-8.08473 -6.4114,-7.22814 -2.1075,0.80872 -1.3577,4.0809 1.7006,7.42238 2.6991,2.94885 4.7108,2.8659 4.7108,-0.19424 z"
                   id="path1498"
                   inkscape:connector-curvature="0" />
              </g>
              <g
                 id="g1670">
                <path
                   style="fill:#440f00;fill-opacity:1;stroke:none;stroke-opacity:1"
                   d="m -1509.3967,148.05279 c -4.5794,-4.95697 -4.6489,-9.25 -0.1498,-9.25 3.5617,0 8.3161,5.10144 8.3161,8.92308 0,2.70666 -0.3385,3.07692 -2.8129,3.07692 -1.7861,0 -3.7403,-1.00386 -5.3534,-2.75 z"
                   id="path1496"
                   inkscape:connector-curvature="0" />
                <path
                   style="fill:#862302;fill-opacity:1;stroke:none;stroke-opacity:1"
                   d="m -1502.2304,148.84984 c 0,-3.41809 -5.2577,-9.04705 -8.4503,-9.04705 -1.6703,0 -0.1397,4.56385 2.3734,7.07692 2.8443,2.84434 6.0769,3.89234 6.0769,1.97013 z"
                   id="path1494"
                   inkscape:connector-curvature="0" />
              </g>
              <g
                 id="g1674">
                <path
                   style="fill:#440f00;fill-opacity:1;stroke:none;stroke-opacity:1"
                   d="m -1498.3134,131.87361 c -3.8704,-3.87035 -3.7067,-7.42269 0.3636,-7.8902 2.0966,-0.24081 3.6532,0.55318 6.3276,3.22763 4.3354,4.3354 4.2009,6.96374 -0.379,7.40605 -2.5388,0.24518 -3.9269,-0.35811 -6.3122,-2.74348 z"
                   id="path1492"
                   inkscape:connector-curvature="0" />
                <path
                   style="fill:#862302;fill-opacity:1;stroke:none;stroke-opacity:1"
                   d="m -1490.2304,131.9771 c 0,-3.06695 -6.7836,-8.0441 -9.0525,-6.64184 -1.413,0.87328 1.2217,5.48803 3.9942,6.99602 3.514,1.91126 5.0583,1.80313 5.0583,-0.35418 z"
                   id="path1490"
                   inkscape:connector-curvature="0" />
              </g>
              <g
                 id="g1678">
                <path
                   style="fill:#440f00;fill-opacity:1;stroke:none;stroke-opacity:1"
                   d="m -1487.9221,115.79318 c -1.2054,-0.48555 -2.9462,-2.03428 -3.8683,-3.44162 -1.3522,-2.06366 -1.4365,-2.84808 -0.4359,-4.05379 1.5888,-1.91428 4.3466,-1.89693 8.4562,0.0532 3.794,1.80036 5.9992,5.59228 4.2624,7.32914 -1.3145,1.31444 -5.299,1.36798 -8.4144,0.11307 z"
                   id="path1488"
                   inkscape:connector-curvature="0" />
                <path
                   style="fill:#862302;fill-opacity:1;stroke:none;stroke-opacity:1"
                   d="m -1480.6292,114.63899 c 1.102,-1.78301 -4.2667,-5.83621 -7.7303,-5.83621 -4.1447,0 -3.5136,2.92574 1.132,5.24845 4.0976,2.0487 5.6121,2.1836 6.5983,0.58776 z"
                   id="path1486"
                   inkscape:connector-curvature="0" />
              </g>
              <g
                 id="g1682">
                <path
                   style="fill:#440f00;fill-opacity:1;stroke:none;stroke-opacity:1"
                   d="m -1483.5407,96.224513 c -2.1757,-1.19904 -2.7402,-2.15544 -2.5,-4.23526 0.2634,-2.28088 0.8387,-2.72761 3.8103,-2.95896 4.7621,-0.37076 10.2481,3.00934 9.8162,6.04805 -0.2597,1.82708 -1.0307,2.26646 -4.3162,2.4597 -2.2,0.12939 -5.2646,-0.4617 -6.8103,-1.31353 z"
                   id="path1484"
                   inkscape:connector-curvature="0" />
                <path
                   style="fill:#862302;fill-opacity:1;stroke:none;stroke-opacity:1"
                   d="m -1473.9323,96.171313 c 2.2395,-2.23945 -6.0033,-7.18634 -9.6455,-5.78871 -2.1121,0.81051 -2.0875,1.73138 0.097,3.63471 2.8415,2.4753 8.0515,3.65065 9.5482,2.154 z"
                   id="path1482"
                   inkscape:connector-curvature="0" />
              </g>
              <g
                 id="g1686">
                <path
                   style="fill:#440f00;fill-opacity:1;stroke:none;stroke-opacity:1"
                   d="m -1480.9221,77.608333 c -5.2495,-2.53678 -3.0522,-7.07827 3.4247,-7.07827 4.8672,0 8.267,1.75717 8.267,4.27273 0,3.57952 -6.7421,5.19736 -11.6917,2.80554 z"
                   id="path1480"
                   inkscape:connector-curvature="0" />
                <path
                   style="fill:#862302;fill-opacity:1;stroke:none;stroke-opacity:1"
                   d="m -1470.7304,75.664703 c 1.4015,-1.39667 -2.1792,-3.86192 -5.6093,-3.86192 -6.0902,0 -8.0482,3.02903 -3.1407,4.85851 2.9503,1.09984 7.1233,0.62455 8.75,-0.99659 z"
                   id="path1478"
                   inkscape:connector-curvature="0" />
              </g>
            </g>
          </g>
          <g
             id="g1864">
            <path
               style="fill:#eec225;fill-opacity:1;stroke:none;stroke-opacity:1"
               d="m -1662.8981,48.803393 c 0.4577,-0.42084 1.2682,-4.30563 1.801,-8.63288 5.6528,-45.9111302 35.996,-83.50165 73.0815,-90.53671 l 6.5143,-1.23574 1.1355,-9.23922 c 1.7502,-14.241756 1.7324,-14.356056 -2.2364,-14.356056 -1.8545,0 -7.6864,1.09451 -12.9599,2.43224 -44.7168,11.34335 -80.538,59.937046 -84.3309,114.400106 l -0.6499,9.33235 8.4063,-0.69947 c 4.6234,-0.38471 8.7807,-1.04379 9.2385,-1.46462 z"
               id="path1454"
               inkscape:connector-curvature="0" />
            <g
               id="g1836">
              <g
                 id="g1810">
                <path
                   style="fill:#440f00;fill-opacity:1;stroke:none;stroke-opacity:1"
                   d="m -1674.9221,41.608323 c -4.4398,-2.14552 -3.6843,-6.11819 1.3465,-7.07988 3.63,-0.69392 9.1343,1.01181 10.3013,3.19223 2.1302,3.98033 -5.9057,6.66245 -11.6478,3.88765 z"
                   id="path1452"
                   inkscape:connector-curvature="0" />
                <path
                   style="fill:#862302;fill-opacity:1;stroke:none;stroke-opacity:1"
                   d="m -1664.7304,39.664703 c 1.4015,-1.39667 -2.1792,-3.86192 -5.6093,-3.86192 -6.0902,0 -8.0482,3.02903 -3.1407,4.85851 2.9503,1.09984 7.1233,0.62455 8.75,-0.99659 z"
                   id="path1450"
                   inkscape:connector-curvature="0" />
              </g>
              <g
                 id="g1806">
                <path
                   style="fill:#440f00;fill-opacity:1;stroke:none;stroke-opacity:1"
                   d="m -1671.4804,22.230813 c -3.6947,-2.00444 -3.8159,-6.122399 -0.2068,-7.02823 3.0067,-0.75464 9.3112,1.422301 10.757,3.71439 0.56,0.88768 0.7356,2.35013 0.3903,3.24989 -0.8049,2.09773 -7.1236,2.13466 -10.9405,0.064 z"
                   id="path1448"
                   inkscape:connector-curvature="0" />
                <path
                   style="fill:#862302;fill-opacity:1;stroke:none;stroke-opacity:1"
                   d="m -1661.7672,21.862393 c 0.8158,-1.32005 -3.4187,-5.035379 -5.9018,-5.178089 -5.8873,-0.33838 -6.7765,0.67315 -3.2556,3.703549 2.8074,2.41638 8.0532,3.26107 9.1574,1.47454 z"
                   id="path1446"
                   inkscape:connector-curvature="0" />
              </g>
              <g
                 id="g1802">
                <path
                   style="fill:#440f00;fill-opacity:1;stroke:none;stroke-opacity:1"
                   d="m -1665.3073,2.8797028 c -3.4599,-3.45984001 -3.6274,-4.62962 -0.8741,-6.10313 2.7695,-1.48219 8.2962,0.3783 10.8795,3.66241999 2.7607,3.50973001 1.6849,5.36379001 -3.1124,5.36379001 -3.0545,0 -4.644,-0.67405 -6.893,-2.92308 z"
                   id="path1444"
                   inkscape:connector-curvature="0" />
                <path
                   style="fill:#862302;fill-opacity:1;stroke:none;stroke-opacity:1"
                   d="m -1655.6292,3.6389928 c 1.0867,-1.75835 -4.2633,-5.83621 -7.657,-5.83621 -3.9954,0 -3.844,2.48076999 0.3058,5.01096 3.6775,2.24219 6.294,2.53592 7.3512,0.82525 z"
                   id="path1442"
                   inkscape:connector-curvature="0" />
              </g>
              <g
                 id="g1798">
                <path
                   style="fill:#440f00;fill-opacity:1;stroke:none;stroke-opacity:1"
                   d="m -1653.0008,-12.198657 c -1.7987,-1.09668 -3.7704,-3.0913 -4.3815,-4.43249 -2.8058,-6.15814 3.2588,-7.65912 8.7519,-2.16607 3.6322,3.6322 4.3989,7.00271 1.8182,7.99301 -2.2795,0.8747298 -2.5766,0.8077798 -6.1886,-1.39445 z"
                   id="path1440"
                   inkscape:connector-curvature="0" />
                <path
                   style="fill:#862302;fill-opacity:1;stroke:none;stroke-opacity:1"
                   d="m -1647.2304,-14.124637 c 0,-2.45519 -4.548,-6.07258 -7.6349,-6.07258 -3.1509,0 -2.982,1.53691 0.558,5.07692 3.4001,3.40011 7.0769,3.91741 7.0769,0.99566 z"
                   id="path1438"
                   inkscape:connector-curvature="0" />
              </g>
              <g
                 id="g1794">
                <path
                   style="fill:#440f00;fill-opacity:1;stroke:none;stroke-opacity:1"
                   d="m -1640.191,-26.617347 c -3.4697,-1.93984 -6.2299,-7.35547 -4.959,-9.73003 1.4598,-2.7277 4.3579,-2.25765 7.8963,1.28071 2.4036,2.40362 3.06,3.85298 2.8269,6.24181 -0.3467,3.55282 -2.1338,4.23722 -5.7642,2.20751 z"
                   id="path1436"
                   inkscape:connector-curvature="0" />
                <path
                   style="fill:#862302;fill-opacity:1;stroke:none;stroke-opacity:1"
                   d="m -1635.2304,-28.797217 c 0,-2.11548 -6.6612,-8.72741 -7.9747,-7.91565 -1.6929,1.04626 -1.1732,3.18649 1.5636,6.43892 2.7705,3.29254 6.4111,4.13112 6.4111,1.47673 z"
                   id="path1434"
                   inkscape:connector-curvature="0" />
              </g>
              <g
                 id="g1790">
                <path
                   style="fill:#440f00;fill-opacity:1;stroke:none;stroke-opacity:1"
                   d="m -1628.7352,-40.611097 c -4.2954,-4.29537 -4.5813,-10.58612 -0.4811,-10.58612 4.1475,0 9.1454,7.53609 7.6251,11.49776 -0.8676,2.26101 -4.4253,1.80701 -7.144,-0.91164 z"
                   id="path1432"
                   inkscape:connector-curvature="0" />
                <path
                   style="fill:#862302;fill-opacity:1;stroke:none;stroke-opacity:1"
                   d="m -1622.9309,-40.535297 c 0.7224,-1.8826 -2.206,-7.54152 -4.5525,-8.79732 -4.4235,-2.36739 -4.266,3.61637 0.2131,8.09545 2.3721,2.3721 3.6209,2.5741 4.3394,0.70187 z"
                   id="path1430"
                   inkscape:connector-curvature="0" />
              </g>
              <g
                 id="g1786">
                <path
                   style="fill:#440f00;fill-opacity:1;stroke:none;stroke-opacity:1"
                   d="m -1612.6016,-50.652707 c -4.28,-4.61819 -4.2785,-11.544506 0,-11.544506 3.2378,0 6.506,5.317286 6.1412,9.991676 -0.3472,4.44841 -2.8693,5.0859 -6.1437,1.55285 z"
                   id="path1428"
                   inkscape:connector-curvature="0" />
                <path
                   style="fill:#862302;fill-opacity:1;stroke:none;stroke-opacity:1"
                   d="m -1607.2304,-52.305897 c 0,-2.75499 -2.6008,-7.52417 -4.5009,-8.25328 -3.4814,-1.335966 -3.0549,5.80613 0.5628,9.42387 2.2752,2.27515 3.9381,1.78084 3.9381,-1.17059 z"
                   id="path1426"
                   inkscape:connector-curvature="0" />
              </g>
              <g
                 id="g1782">
                <path
                   style="fill:#440f00;fill-opacity:1;stroke:none;stroke-opacity:1"
                   d="m -1594.7688,-56.615537 c -2.1194,-3.23452 -1.6041,-10.487436 0.851,-11.979836 3.9513,-2.40185 7.5082,7.12748 4.6522,12.463896 -1.4047,2.62477 -3.5923,2.43235 -5.5032,-0.48406 z"
                   id="path1424"
                   inkscape:connector-curvature="0" />
                <path
                   style="fill:#862302;fill-opacity:1;stroke:none;stroke-opacity:1"
                   d="m -1589.6107,-62.036443 c -0.2876,-1.83658 -1.0835,-4.01472 -1.7687,-4.8403 -1.0983,-1.32333 -1.4,-1.29014 -2.5484,0.28036 -1.7872,2.44414 -1.6333,6.482006 0.3552,9.321046 1.6066,2.29373 1.7016,2.30834 3.0714,0.47251 0.8741,-1.17149 1.2139,-3.16864 0.8905,-5.233616 z"
                   id="path1422"
                   inkscape:connector-curvature="0" />
              </g>
            </g>
          </g>
          <g
             id="g1778">
            <path
               style="fill:#eec225;fill-opacity:1;stroke:none;stroke-opacity:1"
               d="m -1466.6037,42.107623 c -1.9147,-24.909949 -11.0234,-50.9157502 -24.9599,-71.26172 -6.4945,-9.48145 -21.1849,-24.40388 -29.548,-30.01466 -12.8668,-8.632346 -32.7247,-16.000866 -43.1773,-16.021446 l -3.5585,-0.007 1.2605,10.75 c 0.6933,5.912496 1.2821,11.240426 1.3085,11.839846 0.026,0.59941 3.1196,1.63877 6.8738,2.30969 14.1739,2.53301 28.9081,10.76891 41.2502,23.05737 8.5756,8.53831 13.8563,15.94111 19.6477,27.54308979 6.5109,13.04351021 12.2763,33.39533021 12.2763,43.33540021 0,2.15584 0.5713,4.39387 1.2696,4.9734 1.2118,1.00567 5.6227,1.63524 14.1279,2.01649 l 3.8975,0.17471 z"
               id="path1420"
               inkscape:connector-curvature="0" />
            <g
               id="g1758">
              <path
                 inkscape:connector-curvature="0"
                 id="path1418"
                 d="m -1482.659,41.231353 c -2.147,-2.14697 -1.9812,-3.11393 0.8518,-4.97022 4.6887,-3.07215 12.5768,-1.85005 12.5768,1.94852 0,4.1372 -10.0513,6.39895 -13.4286,3.0217 z"
                 style="fill:#440f00;fill-opacity:1;stroke:none;stroke-opacity:1" />
              <path
                 inkscape:connector-curvature="0"
                 id="path1416"
                 d="m -1471.2438,39.244293 c 1.3439,-1.34429 1.3454,-1.62007 0.013,-2.46236 -2.2779,-1.44045 -7.3806,-1.16242 -9.5589,0.52085 -1.9186,1.48262 -1.9179,1.5181 0.059,3.06209 2.3118,1.80563 7.1303,1.23646 9.4866,-1.12058 z"
                 style="fill:#862302;fill-opacity:1;stroke:none;stroke-opacity:1" />
              <path
                 inkscape:connector-curvature="0"
                 id="path1414"
                 d="m -1485.5637,23.136113 c -1.6025,-1.60246 -0.4164,-4.51533 2.5833,-6.344289 7.5851,-4.624721 14.7385,-0.27157 8.1151,4.938379 -2.5423,1.99982 -9.2262,2.87816 -10.6984,1.40591 z"
                 style="fill:#440f00;fill-opacity:1;stroke:none;stroke-opacity:1" />
              <path
                 inkscape:connector-curvature="0"
                 id="path1412"
                 d="m -1475.0401,20.130563 c 1.7771,-1.60827 1.8032,-1.85934 0.3072,-2.953229 -3.0579,-2.235991 -11.7444,1.798859 -9.9887,4.639699 1.0122,1.63777 7.1991,0.56004 9.6815,-1.68647 z"
                 style="fill:#862302;fill-opacity:1;stroke:none;stroke-opacity:1" />
              <path
                 inkscape:connector-curvature="0"
                 id="path1410"
                 d="m -1492.7359,4.7938328 c -0.9915,-1.60427 0.3883,-4.68425001 2.8092,-6.27045 8.4036,-5.50625 15.6108,0.0233 7.4661,5.72812 -2.4793,1.73654 -9.3143,2.09729 -10.2753,0.54233 z"
                 style="fill:#440f00;fill-opacity:1;stroke:none;stroke-opacity:1" />
              <path
                 inkscape:connector-curvature="0"
                 id="path1408"
                 d="m -1483.4804,2.8137428 c 4.1498,-2.53019001 4.3012,-5.01096 0.3058,-5.01096 -3.3937,0 -8.7438,4.07786 -7.657,5.83621 1.0572,1.71067 3.6738,1.41694 7.3512,-0.82525 z"
                 style="fill:#862302;fill-opacity:1;stroke:none;stroke-opacity:1" />
              <path
                 inkscape:connector-curvature="0"
                 id="path1406"
                 d="m -1499.9804,-10.869497 c -2.4377,-0.96412 -1.2936,-5.08225 2.2848,-8.22413 5.7376,-5.0377 11.3252,-3.48128 8.6422,2.40729 -1.6759,3.67827 -7.9242,7.0044598 -10.927,5.81684 z"
                 style="fill:#440f00;fill-opacity:1;stroke:none;stroke-opacity:1" />
              <path
                 inkscape:connector-curvature="0"
                 id="path1404"
                 d="m -1492.8764,-14.649467 c 2.5619,-2.37435 3.3131,-4.54731 2.0192,-5.8412 -0.9409,-0.9409 -6.04,1.97958 -7.7708,4.45071 -3.0153,4.30491 1.4437,5.38291 5.7516,1.39049 z"
                 style="fill:#862302;fill-opacity:1;stroke:none;stroke-opacity:1" />
              <path
                 inkscape:connector-curvature="0"
                 id="path1402"
                 d="m -1512.1579,-26.609837 c -1.6106,-1.94062 0.9164,-7.87879 4.2948,-10.09239 6.4709,-4.23991 9.1232,2.21449 3.3021,8.03563 -3.7392,3.73917 -5.749,4.28331 -7.5969,2.05676 z"
                 style="fill:#440f00;fill-opacity:1;stroke:none;stroke-opacity:1" />
              <path
                 inkscape:connector-curvature="0"
                 id="path1400"
                 d="m -1504.8193,-30.273947 c 3.7822,-4.49483 3.3185,-7.87047 -0.7926,-5.77105 -2.817,1.43856 -5.5687,4.92855 -5.5963,7.09778 -0.036,2.80814 3.5333,2.06702 6.3889,-1.32673 z"
                 style="fill:#862302;fill-opacity:1;stroke:none;stroke-opacity:1" />
              <path
                 inkscape:connector-curvature="0"
                 id="path1398"
                 d="m -1524.8696,-39.699457 c -1.5146,-3.9469 3.2422,-11.49776 7.2432,-11.49776 4.4615,0 4.4445,5.49762 -0.032,10.32794 -2.7217,2.93674 -6.3098,3.51881 -7.2112,1.16982 z"
                 style="fill:#440f00;fill-opacity:1;stroke:none;stroke-opacity:1" />
              <path
                 inkscape:connector-curvature="0"
                 id="path1396"
                 d="m -1520.1437,-40.479017 c 2.1299,-1.63535 3.9133,-5.12267 3.9133,-7.65246 0,-2.36587 -0.3602,-2.47852 -3.1504,-0.98525 -2.2319,1.19446 -5.2525,7.45853 -4.3224,8.96353 0.7688,1.24393 1.6159,1.16638 3.5595,-0.32582 z"
                 style="fill:#862302;fill-opacity:1;stroke:none;stroke-opacity:1" />
              <path
                 inkscape:connector-curvature="0"
                 id="path1394"
                 d="m -1540.2566,-50.246187 c -2.1963,-4.10386 2.6139,-12.557916 6.7018,-11.778466 3.3816,0.64478 2.9336,8.218196 -0.701,11.852876 -2.5341,2.53408 -4.6186,2.50823 -6.0008,-0.0744 z"
                 style="fill:#440f00;fill-opacity:1;stroke:none;stroke-opacity:1" />
              <path
                 inkscape:connector-curvature="0"
                 id="path1392"
                 d="m -1532.6811,-56.421637 c 0.8995,-4.09533 -0.7944,-5.530506 -3.4239,-2.90102 -2.3934,2.39346 -3.6244,6.38265 -2.7072,8.773 0.5597,1.45833 0.918,1.38524 3.056,-0.62335 1.3321,-1.25145 2.7159,-3.61334 3.0751,-5.24863 z"
                 style="fill:#862302;fill-opacity:1;stroke:none;stroke-opacity:1" />
              <path
                 inkscape:connector-curvature="0"
                 id="path1390"
                 d="m -1557.0304,-55.397217 c -0.66,-0.66 -1.2,-3.29026 -1.2,-5.845006 0,-9.073 7.1558,-10.92479 7.8115,-2.02146 0.4836,6.566746 -3.35,11.127986 -6.6115,7.866466 z"
                 style="fill:#440f00;fill-opacity:1;stroke:none;stroke-opacity:1" />
              <path
                 inkscape:connector-curvature="0"
                 id="path1388"
                 d="m -1551.6653,-60.692407 c 0.3566,-1.900886 0.098,-4.265056 -0.6105,-5.589566 l -1.2284,-2.29535 -1.8631,2.30084 c -2.0862,2.57636 -2.3992,6.209126 -0.7934,9.209576 1.4296,2.67117 3.6501,0.88036 4.4954,-3.6255 z"
                 style="fill:#862302;fill-opacity:1;stroke:none;stroke-opacity:1" />
            </g>
          </g>
        </g>
        <g
           id="g1985">
          <path
             inkscape:connector-curvature="0"
             id="path1546"
             d="m -1567.5362,151.05279 c 2.8025,-24.6125 4.994,-44.86132 4.87,-44.99736 -0.1241,-0.13604 -2.7257,0.21482 -5.7813,0.77969 -3.8568,0.71297 -7.0072,0.70177 -10.302,-0.0366 -2.6105,-0.58501 -4.8951,-0.91481 -5.077,-0.73289 -0.182,0.18192 1.8958,19.88472 4.6171,43.78398 2.7214,23.89927 4.9549,44.01571 4.9635,44.70321 0.01,0.6875 0.3752,1.25 0.8149,1.25 0.4396,0 3.0923,-20.1375 5.8948,-44.75 z"
             style="fill:#eec225;fill-opacity:1;stroke:none;stroke-opacity:1" />
          <path
             inkscape:connector-curvature="0"
             id="path1472"
             d="m -1591.7716,102.86953 c 0.5603,-0.90661 -2.2163,-3.642617 -2.951,-2.907887 -0.2441,0.244127 -1.1601,2.157997 -2.0354,4.253037 l -1.5916,3.80917 3.0294,-2.15709 c 1.6661,-1.18641 3.263,-2.53516 3.5486,-2.99723 z"
             style="fill:#eec225;fill-opacity:1;stroke:none;stroke-opacity:1" />
          <path
             inkscape:connector-curvature="0"
             id="path1470"
             d="m -1550.2083,103.36978 c -1.2632,-3.827537 -1.9411,-4.248017 -3.8198,-2.36931 -0.9303,0.93026 -0.6004,1.8211 1.4771,3.98957 3.2842,3.42793 3.8741,3.01991 2.3427,-1.62026 z"
             style="fill:#eec225;fill-opacity:1;stroke:none;stroke-opacity:1" />
          <path
             inkscape:connector-curvature="0"
             id="path1468"
             d="m -1624.2307,98.802933 c 1.2052,-0.64497 4.9596,-0.80494 9.7313,-0.41462 7.018,0.57408 8.0348,0.42449 10.519,-1.54759 3.3806,-2.68368 3.3893,-3.11483 0.1611,-7.99292 l -2.5889,-3.9121 -3.0842,3.51269 c -2.7637,3.14768 -3.5597,3.49105 -7.6611,3.30449 -2.5173,-0.11451 -5.3859,-0.15012 -6.3747,-0.0792 -2.9323,0.2105 -6.7022,5.05252 -6.7022,8.608407 0,4.28361 1.1196,5.14006 2.7218,2.08213 0.7236,-1.38117 2.1987,-2.983767 3.2779,-3.561337 z"
             style="fill:#eec225;fill-opacity:1;stroke:none;stroke-opacity:1" />
          <path
             inkscape:connector-curvature="0"
             id="path1466"
             d="m -1516.2457,100.06856 c 0.01,-1.228827 -1.2983,-3.703827 -2.9037,-5.499997 -2.7478,-3.07425 -3.2694,-3.25095 -8.8939,-3.01294 -5.7015,0.24128 -6.1146,0.0938 -9.0277,-3.22405 l -3.0527,-3.47689 -2.9935,4.43551 -2.9935,4.43551 3.1592,2.65829 c 3.0402,2.55821 3.4707,2.63301 11.4339,1.98687 7.929,-0.64335 8.3795,-0.56668 10.781,1.834797 1.3784,1.37842 2.5131,3.08917 2.5215,3.80167 0.027,2.32576 1.9528,-1.52494 1.9694,-3.93877 z"
             style="fill:#eec225;fill-opacity:1;stroke:none;stroke-opacity:1" />
          <path
             inkscape:connector-curvature="0"
             id="path1464"
             d="m -1560.2387,99.210763 c 17.8687,-9.72533 26.5944,-37.80888 18.8886,-60.79221 -2.6348,-7.85869 -5.0954,-11.96189 -10.783,-17.98132 -11.1125,-11.7608695 -26.5931,-12.9854499 -39.5193,-3.126139 -8.58,6.544249 -15.3919,21.417389 -16.2552,35.491689 -2.0891,34.05791 23.8902,59.349987 47.6689,46.40798 z"
             style="fill:#eec225;fill-opacity:1;stroke:none;stroke-opacity:1" />
          <path
             inkscape:connector-curvature="0"
             id="path1462"
             d="m -1611.9804,76.816433 c 1.0788,-0.008 1.75,-0.78076 1.75,-2.01365 0,-2.50349 -0.4624,-2.49535 -4.632,0.0816 -3.8967,2.40834 -4.3367,3.41131 -1.118,2.54873 1.2375,-0.33164 3.0375,-0.60913 4,-0.61664 z"
             style="fill:#eec225;fill-opacity:1;stroke:none;stroke-opacity:1" />
          <path
             inkscape:connector-curvature="0"
             id="path1460"
             d="m -1528.2304,77.401563 c 0,-0.39428 -6.8026,-4.59878 -7.4405,-4.59878 -0.1794,0 -0.5551,0.87512 -0.8348,1.9447 -0.4109,1.57129 0.095,2.0206 2.6334,2.33997 1.728,0.21739 3.7044,0.46727 4.3919,0.55529 0.6875,0.088 1.25,-0.0205 1.25,-0.24118 z"
             style="fill:#eec225;fill-opacity:1;stroke:none;stroke-opacity:1" />
          <path
             inkscape:connector-curvature="0"
             id="path1458"
             d="m -1612.703,56.803323 c -0.026,-7.50627 -0.1597,-7.9995 -2.174,-8 -1.1807,-3e-4 -16.1897,1.57446 -33.3534,3.49946 -17.1637,1.925 -31.9102,3.5 -32.77,3.5 -0.8598,0 -1.2358,0.32751 -0.8355,0.72779 0.5394,0.53944 56.5332,7.28967 67.6329,8.15336 1.2545,0.0976 1.5225,-1.31016 1.5,-7.88061 z"
             style="fill:#eec225;fill-opacity:1;stroke:none;stroke-opacity:1" />
          <path
             inkscape:connector-curvature="0"
             id="path1456"
             d="m -1497.7304,60.770633 c 29.3227,-3.05842 33.2115,-3.58965 32.3781,-4.42304 -0.4658,-0.46586 -62.8526,-7.54481 -66.4923,-7.54481 -2.3183,0 -2.3858,0.22947 -2.3858,8.11129 v 8.11129 l 3.25,-0.56284 c 1.7875,-0.30956 16.75,-1.97091 33.25,-3.69189 z"
             style="fill:#eec225;fill-opacity:1;stroke:none;stroke-opacity:1" />
          <path
             inkscape:connector-curvature="0"
             id="path1382"
             d="m -1610.2304,37.802783 c 0,-1.6484 -0.6593,-1.99609 -3.75,-1.97776 l -3.75,0.0222 2.5,1.95556 c 3.2177,2.51689 5,2.51689 5,0 z"
             style="fill:#eec225;fill-opacity:1;stroke:none;stroke-opacity:1" />
          <path
             inkscape:connector-curvature="0"
             id="path1380"
             d="m -1531.2304,37.802783 2.5,-1.95553 -4.1564,-0.0222 c -3.6688,-0.0196 -4.095,0.21236 -3.6334,1.97776 0.6543,2.50173 2.0915,2.50173 5.2898,0 z"
             style="fill:#eec225;fill-opacity:1;stroke:none;stroke-opacity:1" />
          <path
             inkscape:connector-curvature="0"
             id="path1378"
             d="m -1601.5274,18.471273 c -0.2856,-0.744399 -2.2369,-2.168469 -4.3361,-3.1646 -3.3553,-1.5922 -4.5126,-1.66741 -9.5731,-0.62217 -4.8502,1.00179 -6.2205,0.94899 -8.7042,-0.33541 -1.6213,-0.83841 -3.2372,-2.43584 -3.5907,-3.54986 -0.9024,-2.8430595 -2.4989,-1.4761495 -2.4989,2.13949 0,2.02742 0.9958,4.013691 3.0341,6.05195 2.8445,2.84453 3.3632,2.99291 8.3046,2.37553 4.4414,-0.55491 5.6855,-0.33225 7.9069,1.41511 1.4499,1.1405 2.9364,3.01943 3.3033,4.1754 0.5965,1.87955 0.9846,1.61363 3.6703,-2.51511 1.6517,-2.53928 2.7695,-5.22593 2.4838,-5.97033 z"
             style="fill:#eec225;fill-opacity:1;stroke:none;stroke-opacity:1" />
          <path
             inkscape:connector-curvature="0"
             id="path1376"
             d="m -1536.7206,24.223663 c 3.3003,-3.49932 3.4987,-3.56373 8.8988,-2.88903 5.2351,0.65408 5.6816,0.53178 8.5573,-2.34396 1.9887,-1.988679 3.0341,-4.03676 3.0341,-5.9443 0,-4.2764195 -0.691,-4.3525895 -4.5428,-0.50075 -3.1976,3.19753 -3.776,3.40942 -7.2167,2.64344 -6.6042,-1.47027 -11.5673,-1.00186 -14.9567,1.411621 l -3.1717,2.258489 2.6939,4.4402 c 1.4817,2.44211 2.8367,4.454421 3.0111,4.471801 0.1745,0.0174 1.8362,-1.578991 3.6927,-3.547511 z"
             style="fill:#eec225;fill-opacity:1;stroke:none;stroke-opacity:1" />
          <path
             inkscape:connector-curvature="0"
             id="path1374"
             d="m -1593.9346,8.5896135 c -3.2539,-3.3963207 -3.8466,-2.9857907 -2.3289,1.6130395 1.0368,3.14141 1.378,3.40166 3.0726,2.3434 1.8329,-1.14466 1.8042,-1.29692 -0.7437,-3.9564395 z"
             style="fill:#eec225;fill-opacity:1;stroke:none;stroke-opacity:1" />
          <path
             inkscape:connector-curvature="0"
             id="path1372"
             d="m -1549.4553,6.7019428 c -0.1513,-0.41341 -1.5657,0.36423 -3.1431,1.7280907 -2.7275,2.3583195 -2.7774,2.5459295 -1.0197,3.8312195 1.6578,1.21219 1.9817,1.03411 3.1431,-1.72809 0.7122,-1.6937595 1.1711,-3.4178099 1.0197,-3.8312202 z"
             style="fill:#eec225;fill-opacity:1;stroke:none;stroke-opacity:1" />
          <path
             inkscape:connector-curvature="0"
             id="path1370"
             d="m -1563.6081,3.3027828 c -0.2786,-1.65 -2.3794,-20.0999998 -4.6685,-40.9999998 -2.2891,-20.9 -4.4059,-38.674996 -4.7039,-39.499996 -0.3953,-1.09429 -9.855,75.4099158 -10.2011,82.4999958 -0.03,0.60366 3.9401,1 10.0156,1 h 10.0644 z"
             style="fill:#eec225;fill-opacity:1;stroke:none;stroke-opacity:1" />
        </g>
      </g>
      <g
         transform="translate(70.237288,9.4915254)"
         id="g2236">
        <g
           id="g2140">
          <path
             inkscape:connector-curvature="0"
             id="path1566"
             d="m -1628.7835,260.05279 c 4.3453,-6.58294 5.8323,-12.09101 5.8718,-21.75 0.034,-8.42156 -0.2534,-9.70698 -4.4786,-20 -7.776,-18.9431 -9.6219,-28.92398 -7.3541,-39.76305 l 1.4107,-6.74265 -9.6983,-9.74715 c -5.3341,-5.36093 -11.2734,-12.10622 -13.1984,-14.98952 -1.9883,-2.97815 -4.1479,-5.13769 -5,-5 -3.5256,0.56967 -13.643,24.15219 -15.9493,37.17603 -3.0771,17.37709 1.4059,37.29184 10.9926,48.83207 1.7205,2.07116 7.5395,6.89337 12.931,10.71604 10.1614,7.20458 15.1931,12.783 17.0789,18.93431 0.6043,1.97116 1.2754,4.14642 1.4914,4.83392 0.7462,2.37565 3.436,1.23636 5.9023,-2.5 z"
             style="fill:#862302;fill-opacity:1;stroke:none;stroke-opacity:1" />
          <g
             id="g2112">
            <path
               style="fill:#440f00;fill-opacity:1;stroke:none;stroke-opacity:1"
               d="m -1638.2304,244.76847 c -1.2983,-0.86874 -1.239,-1.2028 0.4411,-2.48468 2.1705,-1.656 8.1196,-2.00085 9.0326,-0.52359 0.6203,1.00374 -4.434,4.05367 -6.674,4.02728 -0.7148,-0.008 -1.9747,-0.46698 -2.7997,-1.01901 z"
               id="path1564"
               inkscape:connector-curvature="0" />
            <path
               style="fill:#440f00;fill-opacity:1;stroke:none;stroke-opacity:1"
               d="m -1653.4804,230.72269 c -4.3489,-2.53299 -0.3944,-7.63961 7.6629,-9.89552 7.7008,-2.15608 15.4372,0.71362 12.9658,4.80944 -2.7918,4.62669 -15.878,7.85314 -20.6287,5.08608 z"
               id="path1562"
               inkscape:connector-curvature="0" />
            <path
               style="fill:#440f00;fill-opacity:1;stroke:none;stroke-opacity:1"
               d="m -1660.9554,209.87934 c -4.6366,-1.16989 -8.275,-3.82186 -8.275,-6.03151 0,-3.72058 9.1886,-8.05407 17,-8.0175 3.6898,0.0173 11.2754,2.99104 12.4412,4.87728 3.2881,5.32031 -11.3284,11.65394 -21.1662,9.17173 z"
               id="path1560"
               inkscape:connector-curvature="0" />
            <path
               style="fill:#440f00;fill-opacity:1;stroke:none;stroke-opacity:1"
               d="m -1654.4959,184.71474 c -2.0711,-0.48793 -5.4887,-1.76622 -7.5947,-2.84064 -4.0474,-2.0648 -10.1503,-8.30737 -10.1245,-10.35611 0.1092,-8.66159 19.998,-5.61867 28.3793,4.34191 3.7876,4.50126 3.3076,6.96503 -1.7301,8.88033 -3.168,1.20449 -3.716,1.20292 -8.93,-0.0255 z"
               id="path1558"
               inkscape:connector-curvature="0" />
          </g>
        </g>
        <g
           id="g2148">
          <path
             inkscape:connector-curvature="0"
             id="path1556"
             d="m -1511.6076,261.05279 c 1.9889,-8.27509 7.1019,-14.6537 17.218,-21.47996 13.408,-9.04763 19.1308,-16.37116 23.2632,-29.77004 3.2467,-10.52728 3.2248,-27.01563 -0.052,-38.82033 -2.6854,-9.67527 -11.8627,-28.5664 -14.0523,-28.92607 -0.8525,-0.14004 -3.2266,2.22103 -5.5,5.46985 -2.2,3.14394 -8.2201,9.93787 -13.378,15.09763 l -9.3779,9.38139 1.1279,3.76479 c 1.5714,5.2446 1.3821,16.32935 -0.4085,23.92545 -0.8288,3.51599 -3.6203,11.61599 -6.2033,18 -4.321,10.67932 -4.696,12.28684 -4.6896,20.10729 0.01,9.89145 1.2292,14.71593 5.3827,21.26538 3.391,5.34702 5.6965,6.03306 6.6695,1.98462 z"
             style="fill:#862302;fill-opacity:1;stroke:none;stroke-opacity:1" />
          <g
             id="g2118">
            <path
               style="fill:#440f00;fill-opacity:1;stroke:none;stroke-opacity:1"
               d="m -1515.5101,244.21527 c -1.5288,-0.8291 -2.5147,-1.93608 -2.191,-2.45996 0.9106,-1.47325 6.8625,-1.1249 9.0296,0.52848 1.6801,1.28188 1.7394,1.61594 0.4411,2.48468 -2.0522,1.37321 -4.0005,1.22516 -7.2797,-0.5532 z"
               id="path1554"
               inkscape:connector-curvature="0" />
            <path
               style="fill:#440f00;fill-opacity:1;stroke:none;stroke-opacity:1"
               d="m -1507.7304,229.93931 c -7.1938,-3.27238 -8.3303,-7.06614 -2.7756,-9.2656 5.7485,-2.27626 19.2756,2.66186 19.2756,7.03666 0,4.04754 -9.6395,5.34971 -16.5,2.22894 z"
               id="path1552"
               inkscape:connector-curvature="0" />
            <path
               style="fill:#440f00;fill-opacity:1;stroke:none;stroke-opacity:1"
               d="m -1496.8902,209.89267 c -4.649,-1.17761 -9.7844,-4.44239 -10.1746,-6.46843 -0.5086,-2.64111 2.3816,-5.23476 7.3988,-6.63947 9.8232,-2.75033 24.0632,2.61293 21.9006,8.2485 -1.4491,3.77642 -12.4076,6.56086 -19.1248,4.8594 z"
               id="path1550"
               inkscape:connector-curvature="0" />
            <path
               style="fill:#440f00;fill-opacity:1;stroke:none;stroke-opacity:1"
               d="m -1501.9804,184.33569 c -4.457,-1.96977 -4.2966,-5.10734 0.5,-9.7806 7.367,-7.17766 20.5848,-10.47423 25.2109,-6.2877 2.7533,2.49168 2.5773,3.85288 -1.0293,7.96052 -5.938,6.76299 -18.4354,10.86832 -24.6816,8.10778 z"
               id="path1548"
               inkscape:connector-curvature="0" />
          </g>
        </g>
        <g
           id="g2157">
          <path
             inkscape:connector-curvature="0"
             id="path1368"
             d="m -1676.8506,-2.0655272 c 2.4639,-0.54045 3.6942,-2.22051 8.5181,-11.6316898 7.6899,-15.00272 12.8776,-22.32461 23.8018,-33.59434 5.1152,-5.27689 9.3003,-10.11439 9.3003,-10.75 0,-2.13119 -9.273,-1.22098 -23.1387,2.27123 -17.8125,4.48625 -25.9187,5.27977 -32.9762,3.22808 -12.9895,-3.77614 -18.8381,-18.436226 -12.6679,-31.753047 2.8933,-6.24438 9.3067,-13.82651 14.3117,-16.919796 5.207,-3.21809 4.563,-4.98212 -1.8188,-4.98212 -16.6128,0 -31.0977,9.030706 -38.6331,24.086025 -4.9686,9.926822 -6.4633,17.105752 -5.8122,27.913968 0.8511,14.12866 7.1338,26.75871 19.1514,38.5 11.7756,11.5048798 26.6026,16.56240979 39.9636,13.6316898 z"
             style="fill:#862302;fill-opacity:1;stroke:none;stroke-opacity:1" />
          <g
             id="g2132">
            <path
               style="fill:#440f00;fill-opacity:1;stroke:none;stroke-opacity:1"
               d="m -1689.7064,-6.5822672 c -8.0889,-8.0889698 -3.8153,-31.1361998 7.0998,-38.2880398 2.3345,-1.52962 2.6551,-1.5092 5.1128,0.32575 5.2656,3.93134 6.6239,13.79801 3.3483,24.32253 -2.2453,7.21404 -5.4239,12.2031498 -9.1935,14.4298798 -3.4646,2.0466 -3.54,2.03725 -6.3674,-0.79012 z"
               id="path1366"
               inkscape:connector-curvature="0" />
            <path
               style="fill:#440f00;fill-opacity:1;stroke:none;stroke-opacity:1"
               d="m -1715.3549,-22.321757 c -1.7794,-1.77932 -2.0323,-2.90411 -1.5564,-6.92205 1.5295,-12.91377 15.7132,-27.36713 19.6457,-20.01915 3.731,6.97134 -3.3393,23.04419 -12.1651,27.65502 -3.4452,1.79983 -3.4058,1.80458 -5.9242,-0.71382 z"
               id="path1364"
               inkscape:connector-curvature="0" />
            <path
               style="fill:#440f00;fill-opacity:1;stroke:none;stroke-opacity:1"
               d="m -1730.1265,-49.572017 c -2.0383,-2.45603 1.4755,-7.51703 7.8977,-11.3752 9.1023,-5.468206 16.2271,-3.750866 12.3044,2.96579 -3.8421,6.57853 -17.1308,12.11014 -20.2021,8.40941 z"
               id="path1362"
               inkscape:connector-curvature="0" />
            <path
               style="fill:#440f00;fill-opacity:1;stroke:none;stroke-opacity:1"
               d="m -1726.7515,-75.589003 c -1.6507,-1.207 -1.7189,-1.61406 -0.514,-3.06593 3.5589,-4.288181 13.4445,-6.163741 16.0351,-3.04228 3.6226,4.36502 -10.3728,9.87279 -15.5211,6.10821 z"
               id="path1360"
               inkscape:connector-curvature="0" />
            <path
               style="fill:#440f00;fill-opacity:1;stroke:none;stroke-opacity:1"
               d="m -1710.2304,-91.948764 c -3.938,-1.96726 -4.2219,-3.60105 -0.7034,-4.04825 2.8115,-0.35733 7.3341,2.97024 6.3035,4.63785 -0.9461,1.53088 -1.4646,1.4763 -5.6001,-0.5896 z"
               id="path1358"
               inkscape:connector-curvature="0" />
          </g>
        </g>
        <g
           id="g2166">
          <path
             inkscape:connector-curvature="0"
             id="path1356"
             d="m -1446.8299,-4.2458872 c 11.1688,-4.17877 24.8239,-17.4755998 30.9869,-30.1739198 10.3908,-21.40918 5.3266,-47.978438 -11.8002,-61.909127 -7.2517,-5.898446 -15.0076,-8.896076 -24.8372,-9.599476 -9.6035,-0.68722 -10.0286,0.46558 -2.3566,6.390506 16.1666,12.48516 19.5148,32.852161 7.085,43.097837 -7.7914,6.42237 -16.8242,6.58792 -40.1604,0.73603 -14.0145,-3.51433 -23.318,-4.4581 -23.318,-2.36543 0,0.62026 4.1625,5.46993 9.25,10.77706 10.7076,11.16987 17.9854,21.62115 24.5755,35.29207 4.1723,8.6550198 4.9968,9.7457898 7.6745,10.1521398 5.8049,0.88091999 17.3755,-0.33052 22.9005,-2.39769 z"
             style="fill:#862302;fill-opacity:1;stroke:none;stroke-opacity:1" />
          <g
             id="g2125">
            <path
               style="fill:#440f00;fill-opacity:1;stroke:none;stroke-opacity:1"
               d="m -1463.8806,-6.1255872 c -4.6995,-2.86557 -9.4864,-13.2478798 -10.1069,-21.9212198 -0.5741,-8.02399 0.8523,-13.29353 4.3414,-16.03804 3.094,-2.43374 5.6267,-1.77498 9.3116,2.4219 8.8207,10.04621 10.1319,32.1693798 2.1595,36.4360898 -2.4189,1.29457 -2.0006,1.36046 -5.7056,-0.89873 z"
               id="path1354"
               inkscape:connector-curvature="0" />
            <path
               style="fill:#440f00;fill-opacity:1;stroke:none;stroke-opacity:1"
               d="m -1436.7619,-21.147547 c -3.0927,-1.25378 -9.4541,-8.76297 -11.6731,-13.77923 -2.2812,-5.15702 -2.6944,-12.48234 -0.8307,-14.72791 4.4726,-5.38921 15.7415,4.88087 19.0283,17.34176 1.2854,4.87342 0.7935,8.18635 -1.5659,10.54578 -1.7513,1.7513 -2.0691,1.791 -4.9586,0.6196 z"
               id="path1352"
               inkscape:connector-curvature="0" />
            <path
               style="fill:#440f00;fill-opacity:1;stroke:none;stroke-opacity:1"
               d="m -1428.4212,-50.732847 c -5.9137,-3.07927 -10.6389,-8.92012 -9.1457,-11.304926 0.5715,-0.91269 2.5685,-1.78876 4.4378,-1.94681 4.2806,-0.36194 13.2331,4.908666 16.0234,9.433496 1.7804,2.88712 1.8081,3.27818 0.3363,4.75 -2.2408,2.24081 -6.161,1.92732 -11.6518,-0.93176 z"
               id="path1350"
               inkscape:connector-curvature="0" />
            <path
               style="fill:#440f00;fill-opacity:1;stroke:none;stroke-opacity:1"
               d="m -1432.4804,-76.265303 c -3.9376,-2.07873 -5.0183,-5.23124 -2.1682,-6.324922 4.3646,-1.674869 12.4858,0.35605 15.3804,3.846322 1.2995,1.56677 1.2503,1.91811 -0.4411,3.1549 -2.6754,1.9563 -8.354,1.65558 -12.7711,-0.6763 z"
               id="path1348"
               inkscape:connector-curvature="0" />
            <path
               style="fill:#440f00;fill-opacity:1;stroke:none;stroke-opacity:1"
               d="m -1441.9276,-90.988924 c -2.299,-1.4615 2.4716,-5.20829 6.6315,-5.20829 3.3202,0 2.4086,2.95877 -1.4022,4.55103 -4.0168,1.67831 -3.6881,1.63701 -5.2293,0.65726 z"
               id="path1346"
               inkscape:connector-curvature="0" />
          </g>
        </g>
      </g>
      <g
         transform="translate(70.237288,9.4915254)"
         id="g2204">
        <path
           style="fill:#862302;fill-opacity:1;stroke:none;stroke-opacity:1"
           d="m -1591.7304,-77.717213 c 3.3,-0.79682 7.6609,-1.45579 9.691,-1.46438 2.03,-0.009 3.9271,-0.39769 4.2157,-0.86468 0.2886,-0.46698 1.3048,-8.102371 2.2582,-16.967531 0.9533,-8.865156 1.947,-15.904866 2.208,-15.643796 0.2611,0.26107 1.2676,7.27154 2.2366,15.578826 0.9691,8.30729 2.0017,15.729081 2.2948,16.492861 0.3231,0.84203 2.0215,1.39452 4.3143,1.40348 2.0798,0.008 6.5787,0.67436 9.9976,1.48052 6.6288,1.56301 12.8202,0.97873 19.5864,-1.84837 4.4282,-1.85023 7.541,-8.165921 8.3629,-16.968131 0.5449,-5.834626 0.3122,-7.188986 -2.0416,-11.882016 -1.4611,-2.91323 -8.0442,-11.82178 -14.6292,-19.79678 -6.5849,-7.975 -13.5937,-17.56915 -15.5751,-21.32034 -4.2235,-7.99586 -7.8396,-10.67218 -14.4196,-10.67218 -6.2291,0 -10.3598,2.79487 -13.6068,9.20647 -3.248,6.41373 -4.7682,8.4838 -19.2696,26.24 -6.2678,7.67468 -12.0098,15.42272 -12.7598,17.21789 -3.2086,7.679206 -0.072,23.507716 5.3646,27.069747 2.1506,1.40915 11.2953,3.97147 14.7716,4.13898 0.55,0.0265 3.7,-0.60375 7,-1.40057 z"
           id="path1344"
           inkscape:connector-curvature="0" />
        <g
           id="g2190">
          <g
             id="g2172">
            <path
               style="fill:#440f00;fill-opacity:1;stroke:none;stroke-opacity:1"
               d="m -1606.7759,-100.65175 c -4.8282,-4.82825 -2.3158,-15.27555 5.0863,-21.14982 6.4599,-5.1266 10.1201,-9.1326 12.2176,-13.37204 1.1273,-2.27866 2.3408,-3.67208 2.6965,-3.09649 1.2163,1.96787 0.909,14.53912 -0.4173,17.07289 -0.7197,1.375 -4.3976,5.52191 -8.1731,9.21537 -5.9247,5.79598 -6.8645,7.19928 -6.8645,10.25 0,4.161626 -1.1828,4.442696 -4.5455,1.08009 z"
               id="path1342"
               inkscape:connector-curvature="0" />
            <path
               style="fill:#ffffff;stroke:none;stroke-opacity:1"
               d="m -1602.8781,-111.43618 c -1.0392,-1.68149 -2.3523,-0.60408 -2.3523,1.9301 0,2.56202 0.068,2.59853 1.4113,0.76103 0.7763,-1.06156 1.1997,-2.27257 0.941,-2.69113 z"
               id="path1340"
               inkscape:connector-curvature="0" />
            <path
               style="fill:#eec225;fill-opacity:1;stroke:none;stroke-opacity:1"
               d="m -1594.9096,-119.80366 c -0.7069,-1.84219 -2.2568,-1.76146 -4.4599,0.23232 -1.4056,1.27208 -1.5674,2.05412 -0.7432,3.594 1.0367,1.93705 1.0903,1.93339 3.3956,-0.23232 1.2882,-1.21025 2.1016,-2.82755 1.8075,-3.594 z"
               id="path1338"
               inkscape:connector-curvature="0" />
            <path
               style="fill:#ffffff;stroke:none;stroke-opacity:1"
               d="m -1590.5473,-125.38471 c -0.3192,-0.79773 -0.5562,-0.56078 -0.6042,0.60417 -0.043,1.05416 0.193,1.64479 0.5253,1.3125 0.3323,-0.33229 0.3678,-1.19479 0.079,-1.91667 z"
               id="path1336"
               inkscape:connector-curvature="0" />
          </g>
          <g
             id="g2178">
            <path
               style="fill:#440f00;fill-opacity:1;stroke:none;stroke-opacity:1"
               d="m -1544.2304,-101.12048 c 0,-3.18885 -2.6771,-6.82117 -10.2477,-13.90421 -5.8003,-5.42669 -7.2419,-9.82966 -6.0716,-18.54379 l 0.823,-6.12873 3.2172,5.67994 c 1.7694,3.12397 4.3933,6.49897 5.8308,7.5 8.9805,6.25366 13.3772,12.35098 13.4263,18.61972 0.037,4.66206 -3.3705,9.700336 -6.5598,9.700336 -0.23,0 -0.4182,-1.31547 -0.4182,-2.923266 z"
               id="path1334"
               inkscape:connector-curvature="0" />
            <path
               style="fill:#ffffff;stroke:none;stroke-opacity:1"
               d="m -1541.629,-110.79358 c -0.323,-0.84172 -1.0417,-1.24956 -1.597,-0.90632 -0.6657,0.41139 -0.611,1.36926 0.1605,2.81072 1.2744,2.38132 2.4719,0.79382 1.4365,-1.9044 z"
               id="path1332"
               inkscape:connector-curvature="0" />
            <path
               style="fill:#eec225;fill-opacity:1;stroke:none;stroke-opacity:1"
               d="m -1546.2304,-117.05623 c 0,-3.63562 -4.4946,-5.62158 -5.6875,-2.51302 -0.4012,1.0455 0.2262,2.26976 1.7534,3.42179 2.6498,1.99873 3.9341,1.70207 3.9341,-0.90877 z"
               id="path1330"
               inkscape:connector-curvature="0" />
            <path
               style="fill:#ffffff;stroke:none;stroke-opacity:1"
               d="m -1555.5473,-125.38471 c -0.3192,-0.79773 -0.5562,-0.56078 -0.6042,0.60417 -0.043,1.05416 0.193,1.64479 0.5253,1.3125 0.3323,-0.33229 0.3678,-1.19479 0.079,-1.91667 z"
               id="path842"
               inkscape:connector-curvature="0" />
          </g>
        </g>
      </g>
    </g>
  </g>
</svg>
