<?xml version="1.0" encoding="UTF-8" standalone="no"?>
<svg
   xmlns:dc="http://purl.org/dc/elements/1.1/"
   xmlns:cc="http://creativecommons.org/ns#"
   xmlns:rdf="http://www.w3.org/1999/02/22-rdf-syntax-ns#"
   xmlns:svg="http://www.w3.org/2000/svg"
   xmlns="http://www.w3.org/2000/svg"
   xmlns:sodipodi="http://sodipodi.sourceforge.net/DTD/sodipodi-0.dtd"
   xmlns:inkscape="http://www.inkscape.org/namespaces/inkscape"
   viewBox="0 0 512 512"
   style="height: 512px; width: 512px;"
   version="1.1"
   id="svg8"
   sodipodi:docname="Hegathe.svg"
   inkscape:version="0.92.5 (2060ec1f9f, 2020-04-08)">
  <metadata
     id="metadata14">
    <rdf:RDF>
      <cc:Work
         rdf:about="">
        <dc:format>image/svg+xml</dc:format>
        <dc:type
           rdf:resource="http://purl.org/dc/dcmitype/StillImage" />
        <dc:title></dc:title>
      </cc:Work>
    </rdf:RDF>
  </metadata>
  <defs
     id="defs12" />
  <sodipodi:namedview
     pagecolor="#ffffff"
     bordercolor="#666666"
     borderopacity="1"
     objecttolerance="10"
     gridtolerance="10"
     guidetolerance="10"
     inkscape:pageopacity="0"
     inkscape:pageshadow="2"
     inkscape:window-width="3840"
     inkscape:window-height="2056"
     id="namedview10"
     showgrid="false"
     inkscape:zoom="1.84375"
     inkscape:cx="22.946663"
     inkscape:cy="343.5208"
     inkscape:window-x="0"
     inkscape:window-y="50"
     inkscape:window-maximized="1"
     inkscape:current-layer="svg8" />
  <g
     id="g4458"
     transform="matrix(1.0954125,0,0,1.0954125,1185.4085,299.92241)">
    <g
       id="g4376">
      <path
         style="fill:#661c13;fill-opacity:1"
         d="m -895.10348,188.97269 c -2.8585,-0.79755 -5.5,-3.37673 -5.5,-5.37017 0,-3.89817 8.1269,-9.35975 22.7979,-15.32112 6.3966,-2.5992 18.8894,-10.37362 21.2607,-13.23086 1.1803,-1.42223 0.9283,-1.51757 -2.3742,-0.89802 -8.4302,1.58151 -22.7978,-3.43328 -23.4886,-8.19829 -0.3934,-2.71425 5.1216,-7.32891 11.5332,-9.6503 15.4688,-5.60061 31.8422,-25.36502 40.8593,-49.321301 3.9541,-10.5049 7.4787,-26.22255 7.4942,-33.4192 0.01,-3.60675 -1.549,-14.63175 -3.4595,-24.5 -6.6383,-34.28983 -6.9436,-36.71167 -6.3422,-50.30839 0.6782,-15.33378 3.9157,-28.89634 9.3985,-39.3726 6.9872,-13.35084 22.1276,-25.7613 31.4279,-25.7613 2.0431,0 6.4539,0.85255 9.8018,1.89456 22.4194,6.97769 37.0518,30.18931 43.2483,68.60544 0.8252,5.11553 1.296,17.91537 1.306,35.5 0.014,24.0042 -0.2626,29.02544 -2.1717,39.5 -4.2318,23.21772 -10.7248,41.103431 -21.4698,59.141591 -17.8681,29.99583 -55.5625,67.39719 -65.4295,64.92073 -3.5345,-0.88709 -3.1836,-5.86794 0.8891,-12.62115 1.8048,-2.99264 3.6699,-6.11617 4.1445,-6.94117 0.4747,-0.825 -1.1145,0.34978 -3.5315,2.61062 -11.678,10.92373 -25.037,18.20238 -38.3272,20.88255 -8.2195,1.65757 -28.5617,2.83646 -32.0672,1.85838 z"
         id="path4311"
         inkscape:connector-curvature="0" />
      <g
         id="g4365">
        <path
           id="path4309"
           d="m -862.49518,183.1058 c 14.039,-2.9391 27.1908,-10.88087 40.008,-24.159 6.6597,-6.89918 16.8837,-21.40464 16.8837,-23.95397 0,-2.16941 -2.1437,-1.60803 -5.2632,1.37831 l -2.8726,2.75 2.4952,-4.5 c 3.8144,-6.879 8.2018,-18.62318 10.2735,-27.5 1.4894,-6.38183 1.8571,-11.843151 1.8178,-27.000001 -0.052,-20.14231 -0.1921,-21.24908 -7.9029,-62.58546 -1.9068,-10.22201 -3.9975,-22.82201 -4.646,-28 -1.622,-12.95093 -1.6284,-44.89448 -0.01,-52.24385 0.7058,-3.20611 1.0172,-6.09539 0.692,-6.4206 -1.0666,-1.06661 -5.3395,3.81425 -8.3927,9.58689 -9.1681,17.3337 -11.4458,42.4456 -6.3184,69.66302 1.1397,6.05 3.1903,16.85 4.5568,24 6.888,36.03891 5.3764,64.07766 -4.7126,87.413421 -4.8195,11.14734 -9.9872,18.48501 -20.1545,28.61755 -10.844,10.80683 -19.8865,16.98513 -33.5226,22.90412 -11.4154,4.95506 -14.8798,6.98549 -15.7389,9.2241 -0.3256,0.84846 0.036,1.97691 0.8038,2.50766 1.9253,1.33115 22.8684,0.23034 32.004,-1.68219 z"
           style="fill:#aa2006;fill-opacity:1"
           inkscape:connector-curvature="0" />
        <path
           id="path4307"
           d="m -814.46348,173.95817 c 19.4485,-14.25912 44.5931,-44.66097 56.2866,-68.05522 13.2711,-26.550611 18.279,-53.661131 17.3023,-93.668441 -0.786,-32.1976 -4.4954,-50.86142 -13.5229,-68.04096 -4.1694,-7.93429 -13.5137,-18.57241 -16.3137,-18.57241 -2.4968,0 -2.3872,1.29239 0.5361,6.32193 5.6167,9.6636 11.4518,28.17485 14.7139,46.67807 0.7768,4.40591 1.3242,15.13208 1.3271,26 0.01,21.29963 -1.0842,27.98207 -7.9095,48.5 -7.0302,21.13391 -14.4588,36.58165 -26.7365,55.598051 -5.2387,8.11404 -7.3265,12.45013 -8.9074,18.5 -2.7663,10.58588 -8.3761,22.18594 -15.4278,31.90195 -7.7119,10.62557 -11.4882,16.60681 -11.4882,18.19578 0,2.52825 3.8497,1.25307 10.14,-3.35875 z"
           style="fill:#aa2006;fill-opacity:1"
           inkscape:connector-curvature="0" />
        <path
           id="path4305"
           d="m -853.06358,149.11715 c 5.032,-1.26978 6.7387,-2.33427 10.9601,-6.83598 12.7606,-13.60797 21.5,-37.7377 21.5,-59.362451 0,-6.61372 -0.1667,-7.27377 -1.5,-5.94044 -0.825,0.825 -1.5,2.03885 -1.5,2.69745 0,2.51857 -7.4013,19.77682 -11.5557,26.945411 -9.3172,16.07741 -20.6915,26.92553 -35.1943,33.56642 -10.2933,4.71334 -9.7363,7.81402 1.75,9.74166 5.2351,0.87857 9.7816,0.64098 15.5399,-0.81207 z"
           style="fill:#aa2006;fill-opacity:1"
           inkscape:connector-curvature="0" />
      </g>
      <path
         style="fill:#ffffff"
         d="m -773.97158,3.991529 c 8.5302,-4.04785997 14.154,-15.57673 12.9972,-26.64442 -1.9528,-18.68393 -17.1374,-30.30807 -31.1291,-23.83011 -18.6355,8.62794 -18.1681,40.6346 0.73,49.98896 5.1638,2.55602 12.6014,2.76356 17.4019,0.48557 z"
         id="path4301"
         inkscape:connector-curvature="0" />
      <g
         id="g4360">
        <path
           id="path4303"
           d="m -791.46028,106.36392 c 16.0267,-24.710541 28.8184,-56.193221 32.4001,-79.742781 1.5117,-9.93937 2.0006,-32.03938 0.7067,-31.9457 -0.4125,0.0299 -2.1,2.15612 -3.75,4.72503003 -1.7549,2.73224997 -5.0426,5.92616997 -7.9216,7.69569997 -4.2644,2.62103 -5.8668,3.02407 -12,3.01821 -5.9697,-0.006 -7.9209,-0.47233 -12.4577,-2.97928 -2.9586,-1.63489 -6.8961,-4.95906 -8.75,-7.38704997 -4.2162,-5.52186003 -4.2701,-4.66138003 -0.8379,13.37308997 8.4154,44.21778 8.784,47.01539 8.8286,67 0.041,18.16174 -0.6125,23.897071 -3.9569,34.750001 -1.2768,4.14334 1.5476,1.03845 7.7387,-8.50722 z"
           style="fill:#f19306;fill-opacity:1"
           inkscape:connector-curvature="0" />
        <path
           id="path4299"
           d="m -805.43068,-40.848271 c 5.7173,-9.42518 17.0351,-14.07829 27.0773,-11.13237 2.8874,0.84704 6.9135,2.67895 8.9468,4.07092 2.0334,1.39197 3.9216,2.53086 4.1962,2.53086 0.7872,0 -2.9723,-10.33226 -6.2853,-17.27404 -4.1046,-8.60057 -9.676,-15.64758 -13.7002,-17.329 -12.2588,-5.12205 -21.1325,3.65595 -23.3609,23.1088 -1.2128,10.5876 -1.3567,20.5073 -0.2967,20.46263 0.4125,-0.0174 1.9528,-2.0144 3.4228,-4.4378 z"
           style="fill:#f19306;fill-opacity:1"
           inkscape:connector-curvature="0" />
      </g>
    </g>
    <g
       id="g4356">
      <path
         style="fill:#661c13;fill-opacity:1"
         d="m -852.86948,103.87114 c -2.7958,-3.10448 -6.7373,-11.953081 -8.8874,-19.952491 -2.2413,-8.33832 -3.1384,-28.94048 -1.5152,-34.79751 l 0.8314,-3 -2.6723,2.5 c -1.4698,1.375 -4.2822,4.75 -6.2499,7.5 -4.3753,6.11481 -5.9963,7.5 -8.7767,7.5 -3.1423,0 -5.1728,-2.78484 -6.9191,-9.48935 -2.742,-10.527 -1.3635,-23.06531 3.607,-32.80822 l 1.9986,-3.91753 -3.9568,3.17974 c -8.3358,6.69888 -14.1889,2.13002 -14.1921,-11.07815 0,-16.80683 4.2746,-26.30803 18.0739,-40.13649 5.3512,-5.3625 9.6033,-9.75 9.4492,-9.75 -1.2056,0 -8.6919,3.73604 -14.0153,6.9943 -7.9532,4.86793 -10.7221,5.65917 -12.463,3.56152 -2.0903,-2.51866 -0.6075,-8.0851 5.3624,-20.12994 4.7096,-9.50227 6.5438,-12.07642 12.9225,-18.13556 8.7048,-8.26873 18.1512,-14.14627 29.2402,-18.19323 10.9533,-3.99748 16.7405,-4.77795 19.9304,-2.68785 3.2539,2.13202 3.1553,4.77272 -0.37,9.91058 -12.2866,17.90679 -22.0506,51.11076 -22.1135,75.20028 -0.029,11.04464 4.5494,25.12746 15.4492,47.52231 5.2834,10.85525 5.4924,13.37206 2.0144,24.26244 -1.3709,4.29267 -3.6441,13.51767 -5.0516,20.5 -1.4076,6.98233 -3.2155,13.707651 -4.0178,14.945151 -1.7476,2.69577 -5.4821,2.93895 -7.6785,0.5 z"
         id="path4297"
         inkscape:connector-curvature="0" />
      <path
         style="fill:#aa2006;fill-opacity:1"
         d="m -846.62428,95.871139 c 2.4879,-12.76186 4.2236,-20.1384 6.5636,-27.89461 1.3515,-4.47954 2.4565,-9.65454 2.4557,-11.5 0,-4.78501 -8.103,-20.25857 -10.8203,-20.66818 -3.5497,-0.53508 -6.2656,1.76719 -9.0228,7.64861 -2.4657,5.25953 -2.6545,6.62862 -2.6432,19.16418 0.013,14.69296 1.9383,24.03527 7.0179,34.05932 3.3447,6.600561 5.0461,6.387041 6.4491,-0.80932 z"
         id="path4295"
         inkscape:connector-curvature="0" />
      <path
         style="fill:#f19306;fill-opacity:1"
         d="m -873.74448,51.716949 c 5.9986,-8.06685 13.8627,-15.41335 19.5888,-18.2993 2.2287,-1.12329 4.1521,-2.12447 4.2743,-2.22484 0.1221,-0.10037 -1.3202,-4.77095 -3.2051,-10.37907 -1.8849,-5.60812 -3.7116,-11.88318 -4.0594,-13.94459 -1.1218,-6.64990997 -1.3693,-7.08054997 -3.7424,-6.50964997 -3.3762,0.81223997 -7.4915,5.01101997 -12.795,13.05437997 -8.3404,12.64938 -11.5911,24.35133 -9.8198,35.34997 1.0275,6.38009 2.367,9.85729 3.7973,9.85729 0.455,0 3.1376,-3.10689 5.9613,-6.90419 z"
         id="path4293"
         inkscape:connector-curvature="0" />
      <path
         style="fill:#aa2006;fill-opacity:1"
         d="m -881.60378,11.760089 c 9.0741,-9.51059 13.5796,-12.93127 19.2221,-14.59397 l 4.2782,-1.26068 1.2197,-10.34931 c 0.6708,-5.69212 1.96,-13.74358 2.8648,-17.89215 2.4389,-11.18233 2.4097,-11.49438 -1.1076,-11.83928 -8.5993,-0.84321 -33.182,22.36752 -38.0497,35.92609 -1.7468,4.86541 -3.0696,21.17482 -2.0477,25.24636 0.5097,2.03059 1.2761,2.62399 3.3893,2.62399 2.1066,0 4.4448,-1.79659 10.2309,-7.86105 z"
         id="path4291"
         inkscape:connector-curvature="0" />
      <path
         style="fill:#f19306;fill-opacity:1"
         d="m -888.60348,-37.384381 c 9.7639,-6.50265 28.2399,-12.15502 34.5525,-10.57066 2.1722,0.5452 2.7052,0.17527 3.8107,-2.64498 0.7069,-1.80336 2.6018,-6.652 4.211,-10.77476 1.6092,-4.12276 5.0633,-11.05708 7.6758,-15.40961 2.6125,-4.35253 4.75,-8.06687 4.75,-8.25408 0,-0.88688 -6.1912,-0.17582 -11.061,1.27035 -13.1946,3.91839 -29.8539,14.57758 -37.2049,23.80506 -3.7883,4.75526 -12.7341,21.93154 -12.7341,24.4499 0,1.73371 1.1042,1.38936 6,-1.87122 z"
         id="path4289"
         inkscape:connector-curvature="0" />
    </g>
    <g
       id="g4319">
      <path
         style="fill:#661c13;fill-opacity:1"
         d="m -900.66328,70.970429 c -7.4571,-6.37487 -10.3395,-7.3588 -24.7547,-8.44993 -12.7357,-0.96401 -30.8534,-4.84812 -34.9355,-7.48956 -1.2668,-0.81969 -2.25,-2.46816 -2.25,-3.77234 0,-2.63745 2.2592,-3.93535 11.5258,-6.6214 7.7605,-2.2495 17.4742,-7.39195 17.4742,-9.2509 0,-0.2829 -3.7125,-0.72953 -8.25,-0.99252 -15.1499,-0.87808 -30.3485,-8.35076 -43.3584,-21.318 -6.3432,-6.32242 -8.5746,-9.32787 -10.25,-13.80572997 -4.90972,-13.12242003 -2.5942,-14.37097003 15.8584,-8.55086003 5.9116,1.86458 9.7658,2.36942 18.1986,2.38376 7.2465,0.0123 11.1024,-0.38515 11.95,-1.23181 1.0017,-1.00056 0.9235,-1.25 -0.3917,-1.25 -3.5007,0 -20.7682,-6.49154 -31.2569,-11.75076 -25.77902,-12.926 -35.74092,-23.02207 -44.64792,-45.24924 -3.4754,-8.67256 -4.2202,-11.71363 -4.2799,-17.47323 -0.062,-5.98938 0.1859,-7.02476 1.7569,-7.33855 3.6569,-0.73041 6.4864,0.89919 12.7671,7.35303 11.3882,11.70215 26.39732,22.59148 38.90382,28.22532 6.3307,2.8518 19.1882,7.37856 19.6489,6.91783 0.1712,-0.17121 -5.1449,-3.20775 -11.8135,-6.74785 -19.4357,-10.31752 -31.0761,-22.70409 -37.93422,-40.36592 -8.0362,-20.695819 -8.714,-42.313299 -2.2439,-71.570629 3.8793,-17.54202 8.2143,-27 12.37522,-27 3.7854,0 4.802,3.80221 6.9513,26 2.5675,26.51763 9.7857,49.55668 20.3647,65 3.7417,5.462229 10.5764,12.999999 11.7874,12.999999 0.4847,0 -0.4385,-2.3625 -2.0515,-5.25 -10.4588,-18.722629 -18.3722,-57.411849 -18.4595,-90.249999 -0.072,-27.17309 3.4908,-44.97323 12.8108,-64 8.3535,-17.05356 15.332,-23.53964 18.6521,-17.33596 1.2,2.24223 1.1786,2.57872 -1.577,24.83596 -2.0231,16.33998 -2.035,45.99214 -0.025,61.27561 2.6583,20.20897 9.774,44.43701 17.608,59.95309 3.1423,6.22375 12.0316,19.70609 15.8907,24.101279 1.8343,2.08915 5.5301,4.91078 8.2129,6.27027 2.6829,1.35949 5.3672,3.54569 5.9652,4.85822 2.4842,5.45225 -1.9024,17.55149 -11.2831,31.12114 -2.8213,4.08121 -5.5105,7.42039 -5.976,7.42039 -1.1456,0 -4.5225,11.82325 -5.9507,20.83471 -1.8796,11.85962 0.047,22.43147 9.5957,52.66529 4.8632,15.39771 7.8134,22.9571 18.0497,46.25 0.7855,1.7875 1.2828,3.25 1.105,3.25 -0.1777,0 -2.7712,-2.09282 -5.7634,-4.65071 z"
         id="path4287"
         inkscape:connector-curvature="0" />
      <path
         style="fill:#aa2006;fill-opacity:1"
         d="m -905.60348,60.840779 c 0,-0.4292 -1.5068,-4.3667 -3.3485,-8.75 -1.8417,-4.3833 -4.1279,-10.33214 -5.0804,-13.21964 l -1.7318,-5.25 h -5.0162 c -4.4513,0 -5.5402,0.4623 -9.6697,4.10531 -5.6032,4.94322 -13.7554,9.1716 -20.9551,10.86904 -3.9952,0.9419 -5.2264,1.65359 -4.9962,2.8878 0.4526,2.42541 15.7929,5.95885 30.8425,7.10414 6.9154,0.52626 13.6718,1.39562 15.0144,1.93189 3.0438,1.21584 4.941,1.33927 4.941,0.32146 z"
         id="path4285"
         inkscape:connector-curvature="0" />
      <path
         style="fill:#f19306;fill-opacity:1"
         d="m -919.54468,28.962339 c 0.7628,-0.76276 0.079,-4.35671 -2.3689,-12.45664 -1.8925,-6.26151 -3.7611,-12.86231 -4.1523,-14.66844 -0.7576,-3.49701 -2.8237,-5.22779 -8.6771,-7.26889 -3.1747,-1.10701 -4.5157,-0.99887 -10.5,0.84679 -9.5122,2.93369 -15.6944,3.5087 -23.8605,2.21925 -5.9654,-0.94195 -17.4105,-3.89048 -22.1276,-5.70059 -1.9856,-0.76195 -1.7101,1.99062 0.7156,7.15124003 5.7401,12.21144997 28.9639,28.18617997 44.912,30.89312997 4.901,0.83186 24.9944,0.0486 26.0588,-1.01585 z"
         id="path4283"
         inkscape:connector-curvature="0" />
      <path
         style="fill:#aa2006;fill-opacity:1"
         d="m -928.10398,-18.128861 c -0.054,-9.72954 -0.2871,-11.05741 -2.4589,-13.98836 -4.038,-5.44964 -8.9309,-8.02958 -21.3374,-11.25086 -17.972,-4.66635 -28.192,-8.87044 -40.1333,-16.50923 -7.5333,-4.81897 -19.00652,-14.25771 -26.03862,-21.42126 -3.2828,-3.34416 -6.5453,-6.08029 -7.25,-6.08029 -3.5836,0 0.6336,16.26704 7.7737,29.98599 5.2643,10.11475 11.4003,16.85919 21.37822,23.4983 10.9928,7.31436 29.1678,15.87407 40.1945,18.93005 4.8797,1.35241 12.6973,3.5565 17.3723,4.89797 4.675,1.34148 8.9632,2.495 9.5294,2.56337 0.6529,0.0788 1.0077,-3.80731 0.9701,-10.62568 z"
         id="path4281"
         inkscape:connector-curvature="0" />
      <path
         style="fill:#f19306;fill-opacity:1"
         d="m -925.52818,-40.260791 c 1.4387,-5.52212 1.4226,-5.95053 -0.263,-7.00322 -0.9875,-0.6167 -3.869,-5.24999 -6.4034,-10.29618 -6.1602,-12.26571 -8.4974,-15.04659 -17.9089,-21.30801 -9.815,-6.52993 -20.8951,-17.84551 -25.9202,-26.471239 -10.5425,-18.09628 -16.8161,-41.67179 -19.1701,-72.03942 -0.8537,-11.01432 -1.6943,-12.61759 -3.9067,-7.45137 -2.72962,6.37402 -7.20952,25.15756 -8.54582,35.83158 -1.6346,13.05665 -0.7385,31.71597 2.0158,41.97328 4.0965,15.256089 13.79982,30.660779 24.25052,38.499339 2.9021,2.17672 12.2515,7.65178 20.7765,12.16682 17.4108,9.22115 23.9021,13.31614 29,18.29452 1.925,1.87986 3.7346,3.4782 4.0214,3.55188 0.2868,0.0737 1.2111,-2.51292 2.0539,-5.74798 z"
         id="path4279"
         inkscape:connector-curvature="0" />
      <path
         style="fill:#aa2006;fill-opacity:1"
         d="m -918.56938,-51.628861 c 6.6061,-7.03779 14.9659,-24.19761 14.9659,-30.71989 0,-2.60015 -0.627,-3.31457 -4.511,-5.14028 -14.992,-7.04707 -34.4239,-43.888609 -41.3682,-78.431349 -3.5528,-17.67259 -4.4053,-29.45871 -3.8248,-52.8807 0.3096,-12.48829 1.225,-26.20411 2.1077,-31.57778 1.9562,-11.90965 1.9778,-14 0.1443,-14 -3.2854,0 -13.4369,18.94682 -17.4131,32.5 -6.7984,23.17308 -7.709,53.54752 -2.5332,84.5 2.7795,16.6222 8.1869,35.82229 12.8774,45.72408 4.8299,10.195979 7.4495,13.926559 17.5933,25.054469 4.1817,4.58741 8.0153,10.13344 10.3685,15 4.8446,10.01916 6.294,12.22145 8.0432,12.22145 0.7909,0 2.3884,-1.0125 3.55,-2.25 z"
         id="path4277"
         inkscape:connector-curvature="0" />
    </g>
    <g
       id="g4410">
      <path
         style="fill:#661c13;fill-opacity:1"
         d="m -838.10348,-100.48659 c -8.8984,-1.03861 -20.463,-4.01299 -29.1867,-7.50668 -5.6634,-2.26807 -8.4167,-2.74184 -16.3133,-2.80709 -5.7347,-0.0474 -11.3992,0.50356 -14.2917,1.39006 -12.0633,3.69715 -10.2171,-8.38345 2.4882,-16.28147 7.6624,-4.76322 6.4139,-6.08649 -6.309,-6.68709 -15.9439,-0.75265 -17.5273,-3.22378 -7.9308,-12.37728 7.414,-7.07176 12.7106,-9.57185 20.3398,-9.60076 5.3123,-0.0201 5.931,0.21236 7.4065,2.78331 l 1.61,2.80526 7.4404,-3.73786 c 16.116,-8.09616 46.1506,-12.88446 53.9797,-8.60574 5.3537,2.92588 6.268,5.9663 6.2966,20.93758 0.014,7.31252 0.1197,16.67049 0.2351,20.79549 0.1762,6.29818 -0.1568,8.09283 -2.0779,11.19959 -4.3657,7.06003 -10.9068,9.184359 -23.6869,7.69268 z"
         id="path4267"
         inkscape:connector-curvature="0" />
      <path
         style="fill:#f19306;fill-opacity:1"
         d="m -822.91728,-106.32909 c 6.0586,-3.69423 7.9315,-10.41711 5.6726,-20.36203 -1.3131,-5.78043 -1.3611,-8.06461 -0.3173,-15.08051 1.3956,-9.38094 0.4494,-12.98344 -4.0415,-15.38638 -6.2126,-3.32421 -35.3397,1.88344 -48.9436,8.75066 -12.7987,6.46079 -18.0023,14.12563 -14.5412,21.41931 4.0561,8.54757 18.6328,16.16885 39.4848,20.64416 11.4999,2.46815 18.6549,2.47281 22.6862,0.0148 z"
         id="path4265"
         inkscape:connector-curvature="0" />
      <path
         style="fill:#661c13;fill-opacity:1"
         d="m -851.60348,-125.02826 c -13.5546,-2.03818 -20.4626,-8.68784 -16.6615,-16.03837 5.0353,-9.73722 30.587,-11.4032 38.8877,-2.5355 3.5655,3.80907 4.1693,6.55773 2.2542,10.26118 -2.7097,5.24006 -15.663,9.63854 -24.4804,8.31269 z"
         id="path4263"
         inkscape:connector-curvature="0" />
      <g
         id="g4399">
        <path
           id="path4261"
           d="m -839.43348,-130.40935 c 2.0185,-0.56063 4.7185,-1.89315 6,-2.96115 2.3259,-1.93838 2.3008,-1.94188 -14.1343,-1.97509 -14.9492,-0.0302 -16.32,0.11096 -14.897,1.53404 3.8713,3.87131 15.2765,5.55609 23.0313,3.4022 z"
           style="fill:#ffffff"
           inkscape:connector-curvature="0" />
        <path
           id="path4259"
           d="m -832.60348,-140.26492 c 0,-1.37435 -6.0034,-3.86788 -11.1307,-4.62314 -5.7107,-0.84119 -15.0185,0.98061 -18.0881,3.54034 -2.2617,1.88604 -2.1464,1.90261 13.4688,1.93559 8.6625,0.0183 15.75,-0.36546 15.75,-0.85279 z"
           style="fill:#ffffff"
           inkscape:connector-curvature="0" />
      </g>
      <g
         id="g4380">
        <path
           id="path4257"
           d="m -895.19458,-113.88968 c 2.6999,-0.81905 6.6374,-1.48918 8.75,-1.48918 2.1126,0 3.8411,-0.47404 3.8411,-1.05343 0,-1.65593 -5.3591,-7.94651 -6.7699,-7.94654 -3.6039,-8e-5 -12.2301,7.56274 -12.2301,10.72248 0,1.60384 0.401,1.58924 6.4089,-0.23333 z"
           style="fill:#aa2006;fill-opacity:1"
           inkscape:connector-curvature="0" />
        <path
           id="path4255"
           d="m -887.72528,-138.62886 c 1.1417,-1.7875 2.6024,-3.96785 3.246,-4.84522 0.6709,-0.91448 0.886,-2.72813 0.504,-4.25 -0.6102,-2.43138 -1.0882,-2.65478 -5.6794,-2.65478 -6.4606,0 -10.7331,1.83825 -16.3884,7.0511 -6.6625,6.14124 -6.2242,6.81449 4.6896,7.20383 5.0875,0.18149 9.768,0.42338 10.4012,0.53753 0.6332,0.11415 2.0853,-1.25496 3.227,-3.04246 z"
           style="fill:#aa2006;fill-opacity:1"
           inkscape:connector-curvature="0" />
      </g>
    </g>
    <g
       id="g4349">
      <g
         id="g4323">
        <path
           id="path4275"
           d="m -724.49058,37.871139 c 1.2903,-10.32828 0.9377,-37.75723997 -0.6421,-49.94878 -3.0066,-23.20356 -9.1863,-43.22961 -18.1451,-58.80122 -6.7024,-11.6496 -9.1417,-14.61266 -23.8738,-29 -11.1762,-10.914669 -13.4926,-13.693659 -14.4403,-17.324329 -1.2564,-4.81341 -0.379,-8.91054 2.2653,-10.57854 2.0353,-1.28383 8.7892,1.84672 20.941,9.70653 22.7857,14.73786 40.3141,32.911189 49.7024,51.531019 11.8377,23.47787 15.4673,56.38814 8.5078,77.1413 -3.4744,10.36025 -10.5228,21.1784 -18.2191,27.96297 -3.1399,2.76802 -5.9577,5.03913 -6.2617,5.04691 -0.304,0.008 -0.2295,-2.57336 0.1656,-5.73586 z"
           style="fill:#661c13;fill-opacity:1"
           inkscape:connector-curvature="0" />
        <path
           id="path4273"
           d="m -713.22348,27.784669 c 9.707,-13.22361 13.0946,-25.97271 12.3595,-46.51477 -0.5623,-15.71422 -3.0278,-27.2739 -8.7473,-41.01295 -8.8395,-21.23321 -29.0403,-42.309739 -56.2193,-58.656319 -8.8077,-5.2973 -12.7729,-6.26858 -12.7729,-3.12871 0,4.65415 2.7622,8.4201 13.7182,18.70323 13.8223,12.973439 21.6566,23.175279 28.3208,36.879589 11.5601,23.77224 16.9357,50.03278 16.9528,82.8164 0.01,18.04607 0.5165,18.91236 6.3882,10.91353 z"
           style="fill:#aa2006;fill-opacity:1"
           inkscape:connector-curvature="0" />
      </g>
      <g
         id="g4327">
        <path
           id="path4271"
           d="m -687.24568,-26.132941 c -0.1116,-24.85422 -4.8148,-43.10328 -15.1212,-58.67196 -2.5756,-3.89068 -10.77,-13.17949 -18.2097,-20.641799 -20.1488,-20.20975 -38.1762,-31.29584 -55.4025,-34.07005 -6.6933,-1.07792 -8.6244,-2.18828 -8.6244,-4.95887 0,-2.62214 4.8361,-4.8186 15.4177,-7.00251 24.0743,-4.96859 43.4783,-0.49643 67.6417,15.58981 20.7523,13.81535 32.2797,31.22968 34.4276,52.009459 1.7653,17.077 -6.199,49.24156 -16.7746,67.74592 l -3.2838,5.74592 -0.071,-15.74592 z"
           style="fill:#661c13;fill-opacity:1"
           inkscape:connector-curvature="0" />
        <path
           id="path4269"
           d="m -677.74448,-42.628861 c 6.5694,-20.5789 7.7636,-41.24633 3.1475,-54.47278 -5.8347,-16.718259 -20.8968,-31.612299 -43.4862,-43.000869 -11.635,-5.86581 -14.8447,-6.95158 -24.4301,-8.264 -8.1178,-1.11148 -20.7839,-0.19885 -29.5606,2.12995 l -3.9705,1.0535 9.4705,3.17361 c 11.1824,3.74729 19.7345,8.36302 31.1366,16.80497 9.5193,7.04792 27.1102,24.45196 34.2806,33.916409 9.0731,11.97595 15.3593,29.00329 17.6328,47.76196 0.6764,5.58099 1.5891,10.14725 2.0282,10.14725 0.4391,0 2.1271,-4.1625 3.7512,-9.25 z"
           style="fill:#f19306;fill-opacity:1"
           inkscape:connector-curvature="0" />
      </g>
      <g
         id="g4331">
        <path
           id="path4253"
           d="m -679.95618,-143.9053 c -7.8591,-5.34379 -26.4299,-14.99817 -36.4464,-18.94733 -16.8641,-6.64899 -27.0208,-8.79808 -41.7009,-8.82368 -20.7857,-0.0362 -28.8504,2.61548 -26.5284,8.7227 1.9807,5.20978 1.3059,8.43288 -2.2216,10.61018 -5.3819,3.32194 -7.6862,3.49499 -12.5041,0.93907 -8.2237,-4.36263 -14.2651,-14.29557 -14.2361,-23.406 0.031,-9.86411 12.3855,-22.71577 26.5066,-27.57415 11.8673,-4.08296 24.4257,-3.40264 40.4338,2.19042 23.8788,8.34301 54.9115,30.0353 65.8845,46.05425 2.8578,4.17196 6.6429,12.66936 5.926,13.30354 -0.1434,0.12683 -2.4444,-1.25423 -5.1134,-3.069 z"
           style="fill:#661c13;fill-opacity:1"
           inkscape:connector-curvature="0" />
        <path
           id="path4251"
           d="m -790.15058,-154.53938 c 2.663,-1.21331 3.1177,-3.6948 1.6199,-8.83948 -2.3397,-8.03606 7.9733,-12.25713 29.9272,-12.2491 18.2112,0.007 34.7388,4.53425 57.6414,15.79039 7.2277,3.55229 13.4152,6.45871 13.75,6.45871 2.0522,0 -0.1732,-3.78054 -5.1508,-8.75 -7.4092,-7.3971 -17.177,-14.67217 -29.7751,-22.17667 -28.2629,-16.83577 -51.5727,-21.10017 -68.5247,-12.53625 -12.0454,6.08517 -18.8829,14.38855 -18.9091,22.96292 -0.018,5.96965 4.0568,13.82716 9.0447,17.4404 4.5937,3.32764 6.4825,3.67332 10.3765,1.89908 z"
           style="fill:#aa2006;fill-opacity:1"
           inkscape:connector-curvature="0" />
      </g>
      <g
         id="g4335">
        <path
           id="path4249"
           d="m -856.47088,-173.29499 c -8.2022,-12.69037 -10.6835,-27.18299 -6.2294,-36.38398 4.2976,-8.8776 16.9349,-16.88284 33.8581,-21.44779 8.8418,-2.38504 11.3964,-2.62453 27.7387,-2.60049 20.7663,0.0305 28.2804,1.513 42,8.28621 8.3603,4.1274 31.6764,18.2191 31.0996,18.79589 -0.183,0.18306 -8.1728,-1.89057 -17.755,-4.60808 -25.6456,-7.27306 -39.4789,-8.4484 -54.5949,-4.63861 -10.7717,2.71488 -19.6271,10.34083 -26.2991,22.64802 -3.1538,5.81739 -3.4506,7.08633 -3.4506,14.75019 0,8.02795 -0.1065,8.42511 -2.5,9.32134 -1.375,0.51486 -6.4056,1.19355 -11.1791,1.5082 l -8.6791,0.57209 z"
           style="fill:#661c13;fill-opacity:1"
           inkscape:connector-curvature="0" />
        <path
           id="path4245"
           d="m -837.04028,-172.91146 c 1.808,-0.36082 2.0754,-1.18817 2.1618,-6.68957 0.1229,-7.82952 2.0055,-13.09934 7.7864,-21.79493 10.7659,-16.19422 23.5978,-21.70637 47.9886,-20.61424 7.15,0.32016 14.35,0.86536 16,1.21157 2.8849,0.60532 2.9208,0.57069 0.9352,-0.90236 -3.7376,-2.77283 -14.6589,-5.81316 -26.3909,-7.3468 -24.3113,-3.17806 -51.9407,3.15812 -64.5819,14.81039 -8.6626,7.98491 -9.5751,17.77159 -2.9565,31.70861 5.0928,10.7239 5.7371,11.29747 11.9103,10.60189 2.7961,-0.31505 6.0122,-0.7581 7.147,-0.98456 z"
           style="fill:#f19306;fill-opacity:1"
           inkscape:connector-curvature="0" />
      </g>
    </g>
  </g>
</svg>
