<?xml version="1.0" encoding="UTF-8" standalone="no"?>
<svg
   xmlns:dc="http://purl.org/dc/elements/1.1/"
   xmlns:cc="http://creativecommons.org/ns#"
   xmlns:rdf="http://www.w3.org/1999/02/22-rdf-syntax-ns#"
   xmlns:svg="http://www.w3.org/2000/svg"
   xmlns="http://www.w3.org/2000/svg"
   xmlns:sodipodi="http://sodipodi.sourceforge.net/DTD/sodipodi-0.dtd"
   xmlns:inkscape="http://www.inkscape.org/namespaces/inkscape"
   viewBox="0 0 967.55911 967.55911"
   version="1.1"
   id="svg8"
   sodipodi:docname="Jehanna.svg"
   inkscape:version="0.92.5 (2060ec1f9f, 2020-04-08)"
   width="256mm"
   height="256mm">
  <metadata
     id="metadata14">
    <rdf:RDF>
      <cc:Work
         rdf:about="">
        <dc:format>image/svg+xml</dc:format>
        <dc:type
           rdf:resource="http://purl.org/dc/dcmitype/StillImage" />
        <dc:title></dc:title>
      </cc:Work>
    </rdf:RDF>
  </metadata>
  <defs
     id="defs12" />
  <sodipodi:namedview
     pagecolor="#ffffff"
     bordercolor="#666666"
     borderopacity="1"
     objecttolerance="10"
     gridtolerance="10"
     guidetolerance="10"
     inkscape:pageopacity="0"
     inkscape:pageshadow="2"
     inkscape:window-width="3840"
     inkscape:window-height="2056"
     id="namedview10"
     showgrid="false"
     inkscape:zoom="0.921875"
     inkscape:cx="169.1851"
     inkscape:cy="606.53255"
     inkscape:window-x="0"
     inkscape:window-y="50"
     inkscape:window-maximized="1"
     inkscape:current-layer="g3264"
     units="mm"
     showguides="false" />
  <g
     id="g5289"
     transform="translate(0,455.55911)">
    <g
       id="g3264"
       transform="matrix(5.0372804,0,0,5.0372804,6204.7643,3135.9666)">
      <g
         transform="matrix(-4.5703845,0,0,4.5703845,-4898.662,2839.3262)"
         id="g3643">
        <path
           inkscape:connector-curvature="0"
           id="path3592"
           d="m -820.74996,-737.74461 c 4.11251,-2.17324 7.97704,-4.973 9.96505,-7.21944 1.05129,-1.18794 2.40873,-3.40272 3.22903,-5.26841 1.38247,-3.14431 2.0202,-6.95047 2.28258,-13.62311 0.15328,-3.89832 0.10073,-6.81679 -0.12275,-6.81679 -0.15237,0 -2.78457,1.70128 -4.41133,2.8512 -2.66435,1.88337 -4.23374,3.48395 -5.15802,5.26052 -1.6932,3.25455 -3.02335,8.58887 -3.48967,13.99465 -0.24621,2.85418 -1.43423,5.88776 -3.2176,8.21612 -1.70999,2.23254 -1.79681,2.01418 -0.77986,-1.96135 0.91648,-3.58276 1.15998,-5.45269 0.91209,-7.00439 -0.2471,-1.54679 -0.65395,-2.74469 -0.90368,-2.66074 -0.10489,0.0353 -0.16319,0.14669 -0.12954,0.24762 0.38235,1.14707 0.63365,2.63059 0.63365,3.74079 0,1.40803 -0.53192,4.32743 -1.16586,6.39873 l -0.36455,1.19112 -0.32545,-1.09186 c -0.71427,-2.39626 -1.16831,-4.92827 -1.17473,-6.55115 -0.006,-1.39679 0.10362,-2.00679 0.63373,-3.5417 0.35223,-1.01985 0.58409,-1.9106 0.51524,-1.97945 -0.18644,-0.18644 -0.41516,0.26783 -1.026,2.0378 -0.47309,1.37085 -0.54902,1.89304 -0.53532,3.68187 0.0135,1.76885 0.14013,2.56239 0.8361,5.24104 0.45109,1.73612 0.82016,3.29098 0.82016,3.45524 0,0.80711 -2.0475,-1.9453 -2.97842,-4.00383 -0.9367,-2.07131 -1.34518,-3.72255 -1.78096,-7.19938 -0.75298,-6.00755 -1.61792,-9.35363 -3.20784,-12.40965 -0.92427,-1.77657 -2.49367,-3.37715 -5.15801,-5.26052 -1.62677,-1.14992 -4.25897,-2.8512 -4.41134,-2.8512 -0.22347,0 -0.27603,2.91847 -0.12274,6.81679 0.26802,6.81617 0.89553,10.46937 2.37752,13.84117 1.94599,4.42748 3.92408,6.67178 8.66028,9.82576 2.31446,1.54127 6.55571,3.86444 7.03656,3.85432 0.15387,-0.003 1.30663,-0.54854 2.56168,-1.21177 z m 3.78145,-7.51355 c -0.19826,-1.89516 -0.19947,-2.45359 -0.006,-2.68692 0.13444,-0.162 0.33172,-0.29454 0.43838,-0.29454 0.10666,0 1.40876,-0.96034 2.89355,-2.13409 1.48479,-1.17375 2.82643,-2.22991 2.98144,-2.34703 0.24299,-0.1836 0.23903,-0.48342 -0.0288,-2.17609 -0.22561,-1.42605 -0.25142,-2.03445 -0.0943,-2.22373 0.11894,-0.14331 0.25414,-0.22268 0.30045,-0.17637 0.0463,0.0463 0.24888,1.09814 0.45015,2.3374 0.28539,1.75713 0.31286,2.29692 0.12479,2.45173 -1.46863,1.20888 -4.9596,3.90209 -5.66782,4.37261 l -0.90423,0.60074 0.0654,1.09081 c 0.036,0.59995 0.1253,1.38333 0.19852,1.74085 l 0.13312,0.65004 1.15749,-1.03172 1.1575,-1.03172 -0.0656,-1.48862 c -0.0918,-2.08213 0.31072,-2.13536 0.61113,-0.0808 l 0.22864,1.56363 -1.73651,1.70556 c -0.95509,0.93807 -1.79291,1.67072 -1.86185,1.62812 -0.0689,-0.0426 -0.23795,-1.15403 -0.37559,-2.46984 z m -16.63918,-0.72563 c -0.0364,-0.0149 0.0418,-0.7994 0.17388,-1.74327 0.3104,-2.21883 0.70017,-2.20302 0.61051,0.0248 l -0.0639,1.5891 1.15545,1.02984 1.15545,1.02984 0.12564,-0.65378 c 0.0691,-0.35958 0.17638,-1.11993 0.23841,-1.68967 l 0.11276,-1.03588 -3.3151,-2.61463 c -1.8233,-1.43804 -3.37299,-2.66924 -3.44374,-2.73599 -0.12557,-0.11847 0.51577,-4.54507 0.68268,-4.71198 0.0463,-0.0463 0.18238,0.0341 0.30238,0.17869 0.15945,0.19213 0.14055,0.74111 -0.0702,2.03962 -0.15861,0.97721 -0.28873,1.86681 -0.28914,1.97689 -4e-4,0.11008 1.51792,1.39683 3.37408,2.85945 2.27843,1.79536 3.37483,2.78351 3.37483,3.0416 0,0.59267 -0.4132,4.18707 -0.51813,4.50721 -0.0635,0.19375 -0.64679,-0.25245 -1.81656,-1.38964 -0.94767,-0.92126 -1.75282,-1.68723 -1.78923,-1.70216 z m 19.08671,-6.37774 -0.25183,-1.93295 3.37917,-3.3915 3.37917,-3.3915 -0.21823,-1.95713 c -0.12003,-1.07642 -0.2452,-1.98409 -0.27816,-2.01704 -0.0329,-0.033 -0.64219,0.61842 -1.35385,1.44752 l -1.29393,1.50744 0.25941,1.61813 c 0.21531,1.34306 0.21448,1.66316 -0.005,1.88308 -0.31245,0.31318 -0.36381,0.15421 -0.71183,-2.20321 l -0.22752,-1.54121 1.83571,-2.08177 c 1.00964,-1.14498 1.89675,-2.08178 1.97135,-2.08178 0.0746,0 0.24959,1.24578 0.38885,2.7684 l 0.2532,2.7684 -3.30242,3.43419 c -2.87195,2.98654 -3.30242,3.51726 -3.30242,4.07151 v 0.63732 l 0.48727,-0.48727 c 0.54853,-0.54853 0.90237,-0.62724 0.90237,-0.20072 0,0.1576 -0.27685,0.44794 -0.61521,0.64519 -0.57891,0.33747 -0.60894,0.41267 -0.50887,1.27446 0.0958,0.82479 -0.15366,1.54522 -0.43692,1.26196 -0.0542,-0.0542 -0.2119,-0.9684 -0.3504,-2.03152 z m -18.40609,0.58311 c 0.10171,-0.87575 0.0732,-0.94806 -0.50744,-1.28653 -0.33837,-0.19725 -0.61521,-0.48759 -0.61521,-0.64519 0,-0.42652 0.35383,-0.34781 0.90236,0.20072 l 0.48728,0.48727 v -0.63732 c 0,-0.55425 -0.43047,-1.08497 -3.30242,-4.07151 l -3.30242,-3.43419 0.2532,-2.7684 c 0.13926,-1.52262 0.31424,-2.7684 0.38884,-2.7684 0.0746,0 0.96172,0.9368 1.97136,2.08178 l 1.8357,2.08177 -0.22752,1.54121 c -0.34801,2.35742 -0.39938,2.51639 -0.71182,2.20321 -0.21939,-0.21992 -0.22023,-0.54002 -0.005,-1.88308 l 0.25941,-1.61813 -1.29393,-1.50744 c -0.71167,-0.8291 -1.3209,-1.48048 -1.35386,-1.44752 -0.033,0.033 -0.15812,0.94062 -0.27815,2.01704 l -0.21823,1.95713 3.38083,3.3915 3.38083,3.3915 -0.19858,1.58816 c -0.29988,2.39831 -0.34686,2.55746 -0.67464,2.28543 -0.1983,-0.16458 -0.24743,-0.49821 -0.17068,-1.15901 z m 20.50786,-1.85293 c -0.31285,-1.21624 -0.33093,-1.50099 -0.10939,-1.72253 0.22154,-0.22154 0.28769,-0.14665 0.40019,0.45301 l 0.13478,0.71843 0.53573,-0.42237 c 0.49023,-0.38649 0.54168,-0.39289 0.60576,-0.0753 0.0385,0.19087 -0.0508,0.42018 -0.19852,0.50958 -0.73734,0.44629 -0.76035,0.48993 -0.58341,1.10688 0.11608,0.40472 0.10277,0.68856 -0.0389,0.83026 -0.29704,0.29703 -0.32249,0.24934 -0.74621,-1.39794 z m -22.60882,0.37891 c 0.18008,-0.62792 0.15862,-0.6692 -0.58062,-1.11663 -0.1477,-0.0894 -0.23703,-0.31871 -0.19852,-0.50958 0.0641,-0.31757 0.11554,-0.31117 0.60576,0.0753 l 0.53574,0.42237 0.13478,-0.71843 c 0.11342,-0.60459 0.17741,-0.67578 0.4039,-0.4493 0.20022,0.20023 0.2224,0.44603 0.0866,0.96019 -0.10036,0.38008 -0.28275,1.07733 -0.40531,1.54945 -0.17883,0.6889 -0.27601,0.81425 -0.49218,0.63484 -0.19855,-0.16478 -0.22226,-0.38776 -0.0902,-0.84823 z m 11.54669,5.89172 c 0.0714,-0.11556 0.32674,-0.73632 0.56737,-1.37946 l 0.43751,-1.16935 -0.56852,-1.05098 c -0.31269,-0.57805 -0.64522,-1.05099 -0.73895,-1.05099 -0.0937,0 0.0941,0.469 0.4173,1.04223 0.56364,0.99953 0.57623,1.07456 0.30722,1.83151 -0.4253,1.19672 -0.59711,1.22409 -0.85798,0.13664 -0.18128,-0.75563 -0.18308,-1.09475 -0.008,-1.42269 0.32839,-0.61361 0.11644,-0.70349 -0.26959,-0.11433 -0.30273,0.46201 -0.29451,0.58452 0.13011,1.94034 0.24928,0.79596 0.51168,1.35264 0.5831,1.23708 z m 1.11222,-5.68355 c 0.56312,-0.97536 0.57977,-1.06468 0.29953,-1.60661 -0.36036,-0.69687 -0.57448,-0.59522 -0.24934,0.11837 0.20224,0.44389 0.15323,0.6353 -0.38778,1.51455 -0.3406,0.55355 -0.53814,1.00646 -0.43897,1.00646 0.0992,0 0.44862,-0.46475 0.77656,-1.03277 z m -0.56349,-0.34041 c 0,-0.4156 -0.8498,-2.0797 -0.9387,-1.83819 -0.12166,0.33051 0.51115,2.02025 0.7566,2.02025 0.10015,0 0.1821,-0.0819 0.1821,-0.18206 z m -1.6822,-0.34676 c -0.0954,-0.46647 0.005,-0.89192 0.39111,-1.6535 0.28579,-0.56398 0.48838,-1.11915 0.45019,-1.23371 -0.0382,-0.11456 -0.36218,0.42684 -0.71999,1.20311 -0.61913,1.34322 -0.63467,1.43316 -0.32167,1.86179 0.32783,0.44895 0.32847,0.44839 0.20036,-0.17769 z m 2.36636,-2.77897 c 0.40615,-0.96495 0.87553,-2.30333 1.04307,-2.97416 0.28789,-1.15269 0.28048,-1.33248 -0.13499,-3.27297 -0.24179,-1.12931 -0.69796,-2.76115 -1.01371,-3.62632 l -0.57408,-1.57303 0.72779,-0.88817 c 0.40533,-0.49465 1.10874,-1.05668 1.5876,-1.26851 0.7409,-0.32773 0.9341,-0.34463 1.39687,-0.12216 0.29537,0.142 0.66508,0.48663 0.82158,0.76584 0.24549,0.438 0.24612,0.58781 0.005,1.09186 -0.2307,0.48134 -0.40186,0.5842 -0.97214,0.5842 -0.60749,0 -0.69983,-0.0668 -0.75496,-0.54593 -0.0742,-0.6452 -0.35304,-0.71508 -0.53726,-0.13466 -0.35531,1.11949 1.68149,1.65829 2.4716,0.65382 0.95272,-1.21118 -0.008,-3.05028 -1.59295,-3.05028 -0.61761,0 -1.58743,0.56081 -2.51192,1.45255 -0.46404,0.44761 -0.84476,0.72823 -0.84603,0.62361 -10e-4,-0.10463 0.22646,-0.86023 0.50609,-1.67913 l 0.5084,-1.48889 -0.6741,-1.9852 -0.67411,-1.9852 -0.66563,2.02675 -0.66562,2.02674 0.46897,1.34809 c 0.25793,0.74145 0.51204,1.48209 0.56468,1.64587 0.0526,0.16378 -0.29692,-0.0722 -0.77681,-0.52434 -0.95988,-0.90442 -1.92764,-1.46085 -2.54075,-1.46085 -1.58522,0 -2.54566,1.8391 -1.59295,3.05028 0.79011,1.00447 2.82692,0.46567 2.47161,-0.65382 -0.18422,-0.58042 -0.46303,-0.51054 -0.53726,0.13466 -0.0551,0.47916 -0.14747,0.54593 -0.75496,0.54593 -0.57028,0 -0.74145,-0.10286 -0.97215,-0.5842 -0.24158,-0.50405 -0.24096,-0.65386 0.005,-1.09186 0.15649,-0.27921 0.52059,-0.62115 0.80911,-0.75986 0.76039,-0.36558 1.94904,0.16301 2.91941,1.29824 l 0.76934,0.90005 -0.48775,1.29582 c -0.65201,1.73222 -1.45708,5.10318 -1.45411,6.08853 0.002,0.70521 0.96928,3.91689 1.27009,4.21771 0.38691,0.3869 0.28364,-0.3813 -0.2844,-2.11567 l -0.64969,-1.98367 0.34631,-1.74379 c 0.3495,-1.7598 1.4046,-5.18427 1.69027,-5.486 0.2659,-0.28085 1.4823,3.49587 1.9745,6.13048 0.2104,1.12621 -0.0258,2.24468 -0.96914,4.58878 -0.40527,1.00709 -0.67396,1.93282 -0.5971,2.0572 0.0784,0.12678 0.46421,-0.54471 0.87822,-1.52834 z m -1.73831,-14.41222 c -0.2825,-0.85343 -0.28331,-1.04595 -0.008,-1.9852 0.16746,-0.57206 0.37489,-1.11418 0.46096,-1.2047 0.17585,-0.18494 0.80007,1.49234 0.80007,2.14979 0,0.64547 -0.62302,2.33721 -0.79171,2.14978 -0.0815,-0.0905 -0.2889,-0.58987 -0.46096,-1.10967 z m 0.8458,14.38914 c 0.005,-0.13959 -0.26941,-0.80698 -0.6107,-1.48307 l -0.62053,-1.22926 0.45767,-1.39546 0.45766,-1.39547 0.39003,1.27898 c 0.36585,1.19965 0.37038,1.33202 0.0731,2.13409 -0.39511,1.06608 -0.15547,1.13051 0.28678,0.0771 0.31209,-0.74334 0.30479,-0.84528 -0.18429,-2.57642 -0.28009,-0.99135 -0.53936,-1.77234 -0.57617,-1.73553 -0.0368,0.0368 -0.31905,0.87111 -0.6272,1.85398 l -0.56027,1.78705 0.75204,1.46891 c 0.41363,0.8079 0.75647,1.35469 0.76187,1.21509 z"
           style="fill:#459942;fill-opacity:1;stroke-width:0.19851981" />
        <g
           style="fill:#00296e;fill-opacity:1"
           inkscape:label="Bells"
           id="Bells">
          <path
             inkscape:label="Bell"
             style="fill:#00296e;fill-opacity:1;stroke-width:0.19851983"
             d="m -818.89632,-764.43403 c 0.13593,-0.16378 0.5042,-0.29778 0.81839,-0.29778 0.55045,0 0.76038,-0.25672 0.39472,-0.48271 -0.0971,-0.06 -0.23771,-0.35561 -0.31249,-0.65691 -0.16762,-0.67531 -0.8572,-1.44114 -1.29766,-1.44114 -0.44045,0 -1.13004,0.76583 -1.29765,1.44114 -0.0748,0.3013 -0.21541,0.5969 -0.3125,0.65691 -0.36565,0.22599 -0.15572,0.48271 0.39473,0.48271 0.31418,0 0.68246,0.134 0.81838,0.29778 0.13593,0.16378 0.31459,0.29778 0.39704,0.29778 0.0824,0 0.26112,-0.134 0.39704,-0.29778 z m -0.96778,-0.42186 c -0.73115,-0.14623 -0.78662,-0.49417 -0.22551,-1.41445 0.23579,-0.38673 0.55477,-0.64519 0.79625,-0.64519 0.42775,0 1.18908,1.03865 1.19038,1.62398 4.2e-4,0.18845 -0.19361,0.37104 -0.44593,0.41964 -0.24567,0.0473 -0.5025,0.0982 -0.57074,0.11306 -0.0682,0.0149 -0.40325,-0.0288 -0.74445,-0.097 z"
             id="Bell"
             inkscape:connector-curvature="0" />
          <path
             inkscape:label="Bell"
             style="fill:#00296e;fill-opacity:1;stroke-width:0.19851983"
             d="m -827.79131,-764.43405 c -0.1359,-0.16378 -0.5042,-0.29778 -0.8184,-0.29778 -0.5504,0 -0.7604,-0.25672 -0.3947,-0.48271 0.097,-0.06 0.2377,-0.35561 0.3125,-0.65691 0.1676,-0.67531 0.8572,-1.44114 1.2977,-1.44114 0.4404,0 1.13,0.76583 1.2976,1.44114 0.075,0.3013 0.2154,0.5969 0.3125,0.65691 0.3657,0.22599 0.1557,0.48271 -0.3947,0.48271 -0.3142,0 -0.6825,0.134 -0.8184,0.29778 -0.1359,0.16378 -0.3146,0.29778 -0.397,0.29778 -0.082,0 -0.2612,-0.134 -0.3971,-0.29778 z m 0.9678,-0.42186 c 0.7311,-0.14623 0.7866,-0.49417 0.2255,-1.41445 -0.2358,-0.38673 -0.5548,-0.64519 -0.7962,-0.64519 -0.4278,0 -1.1891,1.03865 -1.1904,1.62398 -4e-4,0.18845 0.1936,0.37104 0.4459,0.41964 0.2457,0.0473 0.5025,0.0982 0.5707,0.11306 0.068,0.0149 0.4033,-0.0288 0.7445,-0.097 z"
             id="Bell-1"
             inkscape:connector-curvature="0" />
        </g>
      </g>
    </g>
  </g>
</svg>
