<?xml version="1.0" encoding="UTF-8" standalone="no"?>
<svg
   xmlns:dc="http://purl.org/dc/elements/1.1/"
   xmlns:cc="http://creativecommons.org/ns#"
   xmlns:rdf="http://www.w3.org/1999/02/22-rdf-syntax-ns#"
   xmlns:svg="http://www.w3.org/2000/svg"
   xmlns="http://www.w3.org/2000/svg"
   xmlns:sodipodi="http://sodipodi.sourceforge.net/DTD/sodipodi-0.dtd"
   xmlns:inkscape="http://www.inkscape.org/namespaces/inkscape"
   viewBox="0 0 967.55911 967.55911"
   version="1.1"
   id="svg8"
   sodipodi:docname="Markarth.svg"
   inkscape:version="0.92.5 (2060ec1f9f, 2020-04-08)"
   width="256mm"
   height="256mm">
  <metadata
     id="metadata14">
    <rdf:RDF>
      <cc:Work
         rdf:about="">
        <dc:format>image/svg+xml</dc:format>
        <dc:type
           rdf:resource="http://purl.org/dc/dcmitype/StillImage" />
        <dc:title></dc:title>
      </cc:Work>
    </rdf:RDF>
  </metadata>
  <defs
     id="defs12" />
  <sodipodi:namedview
     pagecolor="#ffffff"
     bordercolor="#666666"
     borderopacity="1"
     objecttolerance="10"
     gridtolerance="10"
     guidetolerance="10"
     inkscape:pageopacity="0"
     inkscape:pageshadow="2"
     inkscape:window-width="3840"
     inkscape:window-height="2056"
     id="namedview10"
     showgrid="false"
     inkscape:zoom="0.65186406"
     inkscape:cx="90.327834"
     inkscape:cy="783.64756"
     inkscape:window-x="0"
     inkscape:window-y="50"
     inkscape:window-maximized="1"
     inkscape:current-layer="g3264"
     units="mm"
     showguides="false" />
  <g
     id="g5289"
     transform="translate(0,455.55911)">
    <g
       id="g3264"
       transform="matrix(5.0372804,0,0,5.0372804,6204.7643,3135.9666)">
      <g
         id="g4369"
         transform="matrix(0.75675615,0,0,0.75675615,-44.214369,-119.15074)">
        <path
           id="path4252"
           d="m -1443.5049,-580.46754 c -0.8171,-0.51108 -1.7016,-1.89308 -2.216,-3.46246 -0.2186,-0.66696 -2.5956,-8.71671 -5.2823,-17.88833 -4.5995,-15.70172 -4.8914,-16.79381 -4.9973,-18.69845 l -0.1125,-2.02279 -1.4716,-1.15267 c -2.6091,-2.04359 -4.534,-4.91908 -5.3577,-8.00332 -0.4911,-1.83889 -0.4475,-5.32766 0.094,-7.55723 0.5362,-2.20561 1.4355,-4.4621 2.5551,-6.41059 0.4932,-0.85818 0.8215,-1.62627 0.7298,-1.70687 -0.092,-0.0806 -3.3828,-2.49887 -7.3135,-5.37394 -8.0233,-5.86853 -9.362,-6.92322 -11.2468,-8.86059 -1.5943,-1.63867 -2.5806,-3.15588 -3.1557,-4.85427 -0.5979,-1.76558 -0.4763,-4.9203 0.2784,-7.22346 0.2862,-0.87348 0.5216,-1.68831 0.523,-1.81073 0,-0.12241 -0.4517,-0.28283 -1.0069,-0.35647 -2.761,-0.36626 -4.8196,-1.87463 -5.48,-4.01539 -0.2847,-0.92252 -0.3528,-1.76739 -0.33,-4.09081 l 0.029,-2.92816 h -1.923 c -4.2466,0 -6.5323,-1.36909 -8.0467,-4.81975 -0.2502,-0.57013 -0.5681,-1.48367 -0.7065,-2.03011 l -0.2515,-0.99352 -1.4016,0.69574 c -1.3077,0.6491 -1.5289,0.69574 -3.3002,0.69574 -1.6493,0 -2.0491,-0.0706 -3.0462,-0.53778 -1.351,-0.63307 -3.2505,-2.37666 -4.1474,-3.80704 -0.3501,-0.55837 -0.6577,-1.04588 -0.6836,-1.08337 -0.026,-0.0375 -0.5547,0.43148 -1.1752,1.04213 -0.6949,0.68387 -1.7006,1.39321 -2.6187,1.84694 -1.2889,0.63704 -1.6819,0.73772 -2.9064,0.74454 -1.5357,0.009 -2.3284,-0.23786 -3.6632,-1.13886 -0.4717,-0.31841 -0.8828,-0.54798 -0.9135,-0.51016 -0.031,0.0378 -0.2862,0.57958 -0.5677,1.20392 -0.6707,1.48724 -2.0831,2.97947 -3.3263,3.5143 -0.9993,0.42988 -3.9975,0.91526 -4.4889,0.72671 -0.2087,-0.0801 -0.2691,0.19328 -0.2722,1.23085 -0.01,1.83915 -0.2896,3.63592 -0.7182,4.54242 -0.198,0.41897 -1.1023,1.48031 -2.0094,2.35855 l -1.6494,1.5968 0.6495,1.25928 c 0.8187,1.58741 0.9641,3.41628 0.4538,5.70955 l -0.3425,1.53979 0.6635,0.50152 c 1.8797,1.42081 3.1162,2.61823 3.8404,3.71893 l 0.8037,1.22164 2.0908,0.0138 c 1.8313,0.0121 3.3723,0.25356 4.3628,0.6836 0.2168,0.0941 0.5852,-0.2956 1.3342,-1.41136 1.4233,-2.12052 1.8879,-3.26601 1.995,-4.91889 0.1248,-1.92814 -0.3152,-2.80249 -2.331,-4.63146 -1.9163,-1.73873 -2.6844,-3.11561 -2.6739,-4.793 0.01,-1.26887 0.3738,-2.06697 1.4076,-3.07098 2.8027,-2.72191 8.5649,-3.07068 12.7634,-0.77254 3.42,1.87197 6.3058,5.11073 7.512,8.43056 0.5166,1.42202 0.5343,1.61504 0.5992,6.54302 0.05,3.81609 -0.011,5.67987 -0.2484,7.50097 -0.9058,6.9628 -3.7308,10.92792 -8.9162,12.51462 -0.7485,0.22904 -1.5972,0.41654 -1.8859,0.41668 -0.3452,1.6e-4 -1.0074,0.39447 -1.9329,1.15092 -2.726,2.22814 -5.3592,3.69617 -7.7162,4.30186 -1.6697,0.42908 -4.6588,0.393 -6.5024,-0.0785 -1.7933,-0.45864 -3.9503,-1.45873 -5.7296,-2.65649 -1.2554,-0.84507 -1.3432,-0.87269 -2.283,-0.71842 -4.0978,0.67264 -8.5842,-0.74459 -11.8093,-3.73051 -2.1077,-1.95133 -3.8392,-4.7663 -4.4655,-7.25971 -0.3008,-1.19744 -0.412,-1.36144 -1.5755,-2.32394 -2.4346,-2.01397 -4.2529,-4.63935 -5.187,-7.48917 -0.5386,-1.64299 -0.5708,-1.93119 -0.5609,-5.01866 0.01,-2.75645 0.085,-3.57448 0.48,-5.16152 0.5815,-2.3358 0.5867,-2.97329 0.036,-4.42406 -0.8241,-2.17182 -1.089,-3.85 -1.0876,-6.89157 0,-3.50134 0.3673,-5.09068 1.8567,-8.0667 1.1782,-2.35423 2.6578,-4.09901 4.3748,-5.15882 1.1724,-0.72365 1.1784,-0.73205 1.1784,-1.67422 0,-0.5208 0.1282,-1.61701 0.2849,-2.43601 1.4803,-7.73726 7.257,-13.34474 15.176,-14.7316 0.9151,-0.16026 1.7238,-0.29138 1.7971,-0.29138 0.073,0 0.791,-0.81244 1.5947,-1.80541 2.3615,-2.9174 5.4501,-5.3389 8.3186,-6.52176 2.3698,-0.9772 3.8728,-1.26833 6.4778,-1.25471 2.6335,0.0138 4.3715,0.37481 6.8823,1.42977 l 1.4298,0.6007 1.5245,-0.87936 c 6.7702,-3.90503 13.8333,-4.28967 19.3458,-1.05352 0.7643,0.44869 2.099,1.52176 2.966,2.38461 l 1.5765,1.56881 1.5999,-0.30862 c 3.1485,-0.60735 4.4063,-0.73285 7.2509,-0.72348 5.8956,0.0194 9.6276,1.42733 12.8422,4.8449 1.62,1.72216 2.4883,3.13068 3.3619,5.45308 0.7173,1.90672 0.7959,1.96747 2.5905,2.00228 3.5495,0.0688 8.7728,1.95131 11.734,4.22893 1.5322,1.17856 3.3157,3.16396 4.061,4.52078 0.36,0.65525 0.6991,1.19135 0.7537,1.19135 0.055,0 0.3976,-0.54314 0.7623,-1.20698 1.2652,-2.30302 4.1799,-4.92575 7.1163,-6.40341 2.4516,-1.23371 6.3932,-2.31089 8.456,-2.31089 1.3051,0 2.1472,-0.21276 2.2725,-0.57415 1.5457,-4.45729 3.4813,-7.17935 6.5349,-9.19009 4.0108,-2.64098 9.9997,-3.26988 17.451,-1.83256 l 1.5987,0.30837 1.6769,-1.65139 c 1.9253,-1.89605 3.2774,-2.75429 5.5954,-3.55171 2.2505,-0.77419 4.2408,-1.05217 6.5038,-0.90836 3.3472,0.21269 6.8591,1.32426 10.1494,3.21251 l 1.5139,0.86875 1.4176,-0.59562 c 2.4986,-1.04981 4.2402,-1.41095 6.8703,-1.4247 2.605,-0.0136 4.108,0.27751 6.4778,1.25471 2.8685,1.18286 5.9571,3.60436 8.3186,6.52176 0.8037,0.99297 1.5213,1.80541 1.5947,1.80541 0.073,0 0.882,0.13112 1.7971,0.29138 7.919,1.38686 13.6956,6.99434 15.176,14.7316 0.1567,0.819 0.2849,1.91521 0.2849,2.43601 0,0.94217 0.01,0.95057 1.1784,1.67422 1.717,1.05981 3.1966,2.80459 4.3748,5.15882 1.4894,2.97602 1.8552,4.56536 1.8567,8.0667 0,3.04157 -0.2635,4.71975 -1.0876,6.89157 -0.5508,1.45165 -0.5454,2.08958 0.038,4.42406 0.402,1.60866 0.472,2.38212 0.4764,5.26078 0,3.18771 -0.026,3.46289 -0.5484,4.96299 -0.9792,2.80924 -2.7996,5.41805 -5.1811,7.4248 -1.179,0.99354 -1.2959,1.16608 -1.594,2.35263 -0.6243,2.48545 -2.3585,5.30291 -4.4635,7.25179 -3.2251,2.98592 -7.7115,4.40315 -11.8093,3.73051 -0.9398,-0.15427 -1.0276,-0.12665 -2.283,0.71842 -3.0641,2.0626 -5.9998,3.03905 -9.1371,3.03905 -3.6963,0 -6.7871,-1.3168 -10.8112,-4.60591 -0.9254,-0.75645 -1.5876,-1.15076 -1.9328,-1.15092 -0.2887,-1.4e-4 -1.1374,-0.18764 -1.8859,-0.41668 -5.1854,-1.5867 -8.0104,-5.55182 -8.9162,-12.51462 -0.237,-1.8211 -0.2987,-3.68488 -0.2484,-7.50097 0.065,-4.92798 0.083,-5.121 0.5992,-6.54302 1.2061,-3.31983 4.092,-6.55859 7.512,-8.43056 4.2183,-2.30895 9.9415,-1.95397 12.7584,0.79133 1.0596,1.03265 1.4046,1.77798 1.4125,3.05219 0.011,1.67739 -0.7576,3.05427 -2.6738,4.793 -2.0158,1.82897 -2.4558,2.70332 -2.331,4.63146 0.1071,1.65288 0.5716,2.79837 1.995,4.91889 0.749,1.11576 1.1174,1.50548 1.3342,1.41136 0.9905,-0.43004 2.5315,-0.67149 4.3628,-0.6836 l 2.0908,-0.0138 0.8037,-1.22164 c 0.7241,-1.1007 1.9607,-2.29812 3.8404,-3.71893 l 0.6635,-0.50152 -0.3426,-1.53979 c -0.5102,-2.29327 -0.3648,-4.12214 0.4539,-5.70955 l 0.6495,-1.25928 -1.6494,-1.5968 c -0.9071,-0.87824 -1.8084,-1.93338 -2.0029,-2.34475 -0.4518,-0.9557 -0.7261,-2.63591 -0.7275,-4.45696 0,-1.12173 -0.059,-1.41068 -0.2694,-1.33011 -0.4914,0.18855 -3.4896,-0.29683 -4.4889,-0.72671 -1.2432,-0.53483 -2.6556,-2.02706 -3.3263,-3.5143 -0.2815,-0.62434 -0.537,-1.1661 -0.5677,-1.20392 -0.031,-0.0378 -0.4418,0.19175 -0.9135,0.51016 -1.3348,0.901 -2.1275,1.14743 -3.6632,1.13886 -1.2245,-0.007 -1.6175,-0.1075 -2.9065,-0.74454 -0.918,-0.45373 -1.9237,-1.16307 -2.6186,-1.84694 -0.6205,-0.61065 -1.1494,-1.07961 -1.1752,-1.04213 -0.026,0.0375 -0.3335,0.525 -0.6837,1.08337 -0.8968,1.43038 -2.7963,3.17397 -4.1473,3.80704 -0.9971,0.4672 -1.3969,0.53778 -3.0462,0.53778 -1.7713,0 -1.9925,-0.0466 -3.3002,-0.69574 l -1.4016,-0.69574 -0.2516,0.99352 c -0.1383,0.54644 -0.4562,1.45998 -0.7064,2.03011 -1.5151,3.45228 -3.7997,4.81976 -8.0521,4.81976 h -1.9283 l 0.034,2.92816 c 0.027,2.33144 -0.039,3.1651 -0.3247,4.09081 -0.6595,2.14048 -2.7182,3.64908 -5.4795,4.01539 -0.5552,0.0736 -1.0094,0.17377 -1.0094,0.2225 0,0.0487 0.3508,0.6849 0.7795,1.4137 1.8688,3.1767 2.0692,5.97443 0.6348,8.86004 -1.3634,2.74285 -1.9175,3.31528 -15.7474,16.26844 l -5.2786,4.94402 0.6505,1.30936 c 0.9457,1.90355 1.3297,3.69246 1.3216,6.15747 -0.016,4.84645 -1.7857,9.04525 -5.5294,13.11793 l -1.3686,1.4889 -0.2338,2.39411 c -0.1286,1.31677 -0.4546,3.23744 -0.7244,4.26818 -0.7112,2.71645 -9.1327,30.84752 -9.6372,32.19208 -0.2344,0.62458 -0.8004,1.54437 -1.2578,2.04398 -1.0182,1.11216 -1.8781,1.32226 -2.8706,0.70146 z"
           style="fill:#1a1a1a;stroke:none;stroke-width:0.19851983;stroke-opacity:1"
           inkscape:connector-curvature="0" />
        <g
           id="g4335">
          <path
             style="fill:#c2c2c2;fill-opacity:1;stroke:none;stroke-width:0.19851983;stroke-opacity:1"
             d="m -1437.9919,-620.70382 c 3.7158,-0.62467 6.2376,-1.82258 8.5124,-4.04355 2.4964,-2.43723 4.0116,-4.80419 4.7123,-7.36111 0.4768,-1.73968 0.4766,-5.37607 -4e-4,-7.11666 -0.3676,-1.3417 -1.2178,-3.19173 -1.4653,-3.18873 -0.2154,0.003 -2.2877,1.80136 -4.2648,3.70183 l -1.7371,1.66972 v 1.23411 c -0.01,3.03319 -1.3513,6.43601 -3.3362,8.45436 -1.8653,1.89676 -4.1035,2.71548 -6.5245,2.38662 -0.6346,-0.0862 -1.2124,-0.0943 -1.2841,-0.0181 -0.2353,0.25021 -0.9615,2.94695 -0.9615,3.57036 0,1.114 0.4218,1.3038 2.5717,1.1573 1.0423,-0.071 2.7437,-0.2718 3.7809,-0.44618 z"
             id="path4248"
             inkscape:connector-curvature="0" />
          <path
             inkscape:connector-curvature="0"
             style="fill:#c2c2c2;fill-opacity:1;stroke:none;stroke-width:0.19851983;stroke-opacity:1"
             d="m -1441.8803,-583.50488 c 0.3489,-0.53808 9.3622,-31.98966 9.7618,-34.06361 0.1544,-0.8012 0.2807,-1.80971 0.2807,-2.24113 v -0.7844 l -1.1414,0.60842 c -0.6279,0.33464 -1.6775,0.79948 -2.3327,1.03298 -1.4903,0.5312 -2.0556,1.13082 -2.761,2.92896 -0.972,2.47747 -2.2092,3.45063 -4.395,3.45696 -2.2022,0.006 -4.2363,-1.5082 -4.9822,-3.70973 -0.9419,-2.77982 0.083,-7.9851 2.2453,-11.40296 0.364,-0.57535 0.6618,-1.09797 0.6618,-1.16139 0,-0.14032 -3.0304,-3.67762 -3.4463,-4.02281 -0.2519,-0.20908 -0.4872,0.0764 -1.5661,1.90026 -2.823,4.77209 -3.8841,8.63907 -3.3407,12.17412 0.219,1.42429 9.2959,33.75447 9.8507,35.08581 0.3138,0.7532 0.7565,0.82863 1.1651,0.19852 z"
             id="path4250" />
          <path
             inkscape:connector-curvature="0"
             style="fill:#c2c2c2;fill-opacity:1;stroke:none;stroke-width:0.19851983;stroke-opacity:1"
             d="m -1454.9609,-626.08738 c 0.3899,-1.34688 1.4864,-3.78183 2.0758,-4.60956 l 0.4163,-0.58472 -0.3936,-1.19901 c -0.2165,-0.65946 -0.4966,-1.90303 -0.6224,-2.76349 -0.6019,-4.11677 1.1166,-7.42822 6.514,-12.55185 l 2.0081,-1.90628 -1.2812,-1.54104 c -0.7047,-0.84757 -1.6691,-1.97243 -2.1431,-2.49969 l -0.8619,-0.95865 -1.7664,1.54202 c -3.7163,3.2444 -6.033,6.11432 -7.6313,9.45364 -1.5383,3.21382 -1.8731,4.65086 -1.8735,8.04005 -4e-4,2.62417 0.047,3.00721 0.5298,4.3346 0.7537,2.06982 1.6466,3.4687 3.2094,5.02789 0.7483,0.74667 1.3897,1.35758 1.4251,1.35758 0.035,0 0.2132,-0.51367 0.3949,-1.14149 z"
             id="path4246" />
          <path
             inkscape:connector-curvature="0"
             style="fill:#c2c2c2;fill-opacity:1;stroke:none;stroke-width:0.19851983;stroke-opacity:1"
             d="m -1437.8053,-628.2343 c 1,-0.90345 1.7986,-2.4906 1.7986,-3.57456 0,-0.73208 -0.1904,-1.0796 -1.6228,-2.96101 -2.8221,-3.70674 -5.5774,-6.47689 -8.3392,-8.38421 l -1.5004,-1.03623 -1.8281,2.47674 -1.828,2.47673 2.6459,2.76585 c 3.7217,3.89047 9.2238,8.94148 9.7424,8.94371 0.082,3.9e-4 0.5008,-0.31781 0.9316,-0.70702 z"
             id="path4244" />
          <path
             inkscape:connector-curvature="0"
             style="fill:#c2c2c2;fill-opacity:1;stroke:none;stroke-width:0.19851983;stroke-opacity:1"
             d="m -1429.4163,-643.1273 c 7.2199,-6.72424 9.794,-9.07421 14.363,-13.11236 6.0772,-5.37116 8.0345,-7.91837 8.6496,-11.25708 0.6198,-3.36383 -1.5162,-7.78419 -6.9702,-14.42434 -4.9925,-6.07836 -7.1711,-9.27662 -9.2465,-13.57418 -2.1009,-4.35036 -3.0011,-7.60407 -3.1975,-11.5563 -0.1297,-2.60992 0.1156,-4.907 0.7374,-6.90478 0.2054,-0.65987 0.3313,-1.24188 0.2798,-1.29335 -0.051,-0.0515 -0.9188,0.0157 -1.9275,0.14924 -3.8342,0.50767 -6.9407,2.05662 -9.4975,4.73569 -3.048,3.19366 -4.4453,7.39361 -3.9411,11.84602 0.6371,5.6262 4.3176,10.97856 11.5054,16.73133 4.2074,3.36747 6.0702,5.40804 7.3563,8.05841 2.2682,4.67392 1.0558,9.49368 -3.9564,15.72956 -0.6143,0.7643 -4.364,4.68244 -8.3326,8.70697 l -7.2156,7.31732 2.3519,2.42972 c 1.2935,1.33634 2.4142,2.4209 2.4904,2.41014 0.076,-0.0108 3.0242,-2.70717 6.5511,-5.99201 z"
             id="path4242" />
          <path
             inkscape:connector-curvature="0"
             style="fill:#c2c2c2;fill-opacity:1;stroke:none;stroke-width:0.19851983;stroke-opacity:1"
             d="m -1436.7503,-650.01874 2.5318,-2.42214 -3.6023,-4.66522 c -4.7914,-6.20495 -9.9209,-12.62554 -13.4602,-16.84824 -1.5897,-1.89649 -3.0343,-3.62893 -3.2103,-3.84988 -0.3176,-0.39871 -0.3271,-0.39683 -1.2664,0.24941 -1.2228,0.84134 -4.1503,3.31101 -5.1416,4.33755 l -0.7724,0.79992 3.43,3.83411 c 1.8864,2.10876 6.8794,7.69627 11.0954,12.41668 4.216,4.72041 7.7102,8.57973 7.7648,8.57626 0.055,-0.003 1.2386,-1.09627 2.6312,-2.42845 z"
             id="path4240" />
          <path
             inkscape:connector-curvature="0"
             style="fill:#c2c2c2;fill-opacity:1;stroke:none;stroke-width:0.19851983;stroke-opacity:1"
             d="m -1455.3979,-652.27768 c 0.8619,-0.89295 1.5351,-1.69928 1.4961,-1.79185 -0.039,-0.0926 -1.3595,-1.372 -2.9344,-2.84316 -8.116,-7.58127 -10.3084,-11.61159 -8.4736,-15.57688 1.0575,-2.28541 2.7439,-4.06181 8.7563,-9.22379 7.1522,-6.14047 9.5704,-9.20938 11.3482,-14.40183 0.7321,-2.13839 0.7478,-2.24554 0.7546,-5.16152 0.01,-2.63164 -0.047,-3.1278 -0.4572,-4.26818 -1.6259,-4.52032 -5.4384,-7.5309 -11.4302,-9.02581 -0.9919,-0.24749 -2.2373,-0.50619 -2.7674,-0.57488 -0.863,-0.11184 -0.9495,-0.0887 -0.8267,0.22157 0.7241,1.82995 0.9636,3.44792 0.9768,6.59985 0.02,4.71266 -0.7221,7.77679 -3.0687,12.67265 -2.011,4.19578 -4.5399,8.00219 -8.1333,12.24186 -5.3168,6.27297 -7.3922,10.03196 -7.6721,13.89611 -0.1377,1.90083 0.2217,3.52896 1.1783,5.33762 1.1626,2.19823 3.0893,3.90762 10.9658,9.72894 l 7.3452,5.42866 0.6877,-0.81791 c 0.3781,-0.44986 1.3927,-1.54851 2.2546,-2.44145 z"
             id="path4234" />
          <path
             inkscape:connector-curvature="0"
             style="fill:#c2c2c2;fill-opacity:1;stroke:none;stroke-width:0.19851983;stroke-opacity:1"
             d="m -1430.5361,-664.55286 c 2.3274,-2.77437 6.2421,-7.81816 6.2421,-8.04245 0,-0.37267 -1.9146,-2.63572 -3.7625,-4.44725 -1.7028,-1.6693 -2.0493,-1.92718 -2.2677,-1.68742 -0.1417,0.15566 -0.8229,1.22102 -1.5137,2.36748 -1.7868,2.96545 -4.1321,6.40673 -6.5819,9.65759 l -2.1165,2.80866 2.2152,2.6933 2.2152,2.6933 1.7866,-1.83162 c 0.9827,-1.0074 2.6852,-2.90261 3.7832,-4.21159 z"
             id="path4224" />
        </g>
        <g
           id="g4273">
          <path
             style="fill:#c2c2c2;fill-opacity:1;stroke:none;stroke-width:0.19851983;stroke-opacity:1"
             d="m -1522.7598,-648.88398 c 1.4061,-0.3068 4.5659,-1.4524 4.5659,-1.6554 0,-0.0694 -0.6341,-0.28949 -1.4091,-0.48914 -0.775,-0.19964 -2.0926,-0.70695 -2.9281,-1.12736 -3.9754,-2.00034 -6.2667,-5.19782 -7.6396,-10.66081 -0.4927,-1.96059 -0.8282,-2.86208 -1.3667,-3.67315 -0.74,-1.11457 -2.2341,-2.49592 -3.6604,-3.38433 l -0.8246,-0.5136 -0.1075,0.43709 c -0.3811,1.54997 -0.775,5.84137 -0.778,8.47714 -0.01,4.94951 0.7697,7.45632 3.0363,9.81676 2.7646,2.87895 6.4314,3.79398 11.1118,2.7728 z"
             id="path4238"
             inkscape:connector-curvature="0" />
          <path
             style="fill:#c2c2c2;fill-opacity:1;stroke:none;stroke-width:0.19851983;stroke-opacity:1"
             d="m -1538.4763,-652.09343 c -1.8497,-1.97803 -2.7459,-4.84357 -2.7459,-8.77979 0,-4.20407 0.4141,-5.75649 2.9309,-10.98777 1.5991,-3.32365 1.7079,-3.63215 1.7917,-5.07946 0.073,-1.26854 0.015,-1.70878 -0.331,-2.49065 l -0.4201,-0.94974 -0.745,0.55513 c -4.6273,3.44798 -8.2561,6.71627 -9.9846,8.99272 -1.2131,1.59765 -2.6587,4.5083 -2.9526,5.94481 -1.2113,5.92023 3.2871,11.15145 11.3981,13.25487 0.9827,0.25483 1.8213,0.46772 1.8635,0.47309 0.042,0.005 -0.32,-0.41457 -0.805,-0.93321 z"
             id="path4232"
             inkscape:connector-curvature="0" />
          <path
             style="fill:#c2c2c2;fill-opacity:1;stroke:none;stroke-width:0.19851983;stroke-opacity:1"
             d="m -1513.3658,-653.43249 c 0.6268,-0.16326 1.5166,-0.48611 1.9773,-0.71746 3.7021,-1.85903 6.694,-6.62623 6.694,-10.66621 v -1.2009 l -1.0423,1.00653 c -4.1061,3.96548 -8.1063,5.02758 -12.4014,3.29272 -0.6721,-0.27148 -2.0986,-0.99351 -3.17,-1.6045 -1.0714,-0.611 -2.4804,-1.24897 -3.1311,-1.41772 -1.2553,-0.32551 -3.0247,-0.40214 -3.4241,-0.1483 -0.1729,0.10987 0.1132,0.87488 1.0246,2.73967 2.0718,4.23933 4.1285,6.60854 6.8486,7.88929 2.3619,1.11205 4.5033,1.37935 6.6244,0.82688 z"
             id="path4228"
             inkscape:connector-curvature="0" />
          <path
             style="fill:#c2c2c2;fill-opacity:1;stroke:none;stroke-width:0.19851983;stroke-opacity:1"
             d="m -1553.8723,-665.69206 c -0.1564,-1.39604 0.4252,-4.13582 1.2357,-5.82093 1.3778,-2.86464 4.6755,-5.75199 9.5285,-8.34287 2.4807,-1.32441 6.6482,-4.08893 7.6829,-5.09651 1.0739,-1.04584 1.55,-2.03263 1.747,-3.62115 0.1885,-1.51937 0.061,-2.34707 -0.3367,-2.19428 -0.1572,0.0603 -2.2675,0.51741 -4.6895,1.01575 -8.8133,1.81335 -11.8816,2.79652 -14.8164,4.74756 -2.4414,1.623 -3.7293,3.47275 -4.4969,6.45827 -0.4402,1.71219 -0.4369,4.68131 0.01,6.34115 0.4234,1.58307 1.262,3.4557 2.111,4.71391 0.6771,1.00335 1.9553,2.64281 2.0604,2.64281 0.034,0 0.019,-0.37967 -0.033,-0.84371 z"
             id="path4222"
             inkscape:connector-curvature="0" />
          <path
             style="fill:#c2c2c2;fill-opacity:1;stroke:none;stroke-width:0.19851983;stroke-opacity:1"
             d="m -1512.5418,-665.34692 c 2.8971,-0.61369 5.6137,-2.42006 7.0837,-4.71021 0.6551,-1.02065 0.6643,-1.06672 0.6643,-3.32278 0,-2.74804 -0.4763,-4.46854 -1.7737,-6.40659 -1.8604,-2.77907 -6.4034,-5.29853 -9.6448,-5.3488 -2.0321,-0.0315 -4.4361,0.95463 -4.6781,1.91901 -0.2988,1.19055 0.072,1.90708 1.9423,3.74869 2.2911,2.25641 2.8185,3.30413 2.8124,5.58659 0,0.92219 -0.1505,2.08267 -0.353,2.76743 -0.457,1.54584 -1.5794,3.77104 -2.4313,4.82005 -0.6742,0.83014 -0.6763,0.83873 -0.2253,0.93817 1.6473,0.36324 4.9089,0.36741 6.6035,0.008 z"
             id="path4218"
             inkscape:connector-curvature="0" />
          <path
             style="fill:#c2c2c2;fill-opacity:1;stroke:none;stroke-width:0.19851983;stroke-opacity:1"
             d="m -1472.18,-691.59911 c 6.8354,-13.72439 7.4937,-15.25001 8.1111,-18.79816 0.4631,-2.66185 0.2882,-6.44348 -0.3955,-8.54794 -0.7039,-2.16651 -1.7687,-3.88282 -3.3086,-5.33299 -1.5312,-1.4419 -3.0999,-2.3184 -5.2646,-2.94149 -2.2264,-0.64085 -6.4954,-0.63173 -9.1746,0.0196 -1.0099,0.24554 -1.8363,0.48355 -1.8363,0.52893 0,0.0454 0.4871,0.6856 1.0823,1.42272 3.307,4.09523 4.8346,9.43151 4.6176,16.12997 -0.1689,5.21404 -0.8749,8.54789 -3.5106,16.5764 -2.1122,6.43369 -2.5576,9.10987 -1.8904,11.35678 0.3351,1.12811 1.4926,2.34586 2.4258,2.55193 0.303,0.0669 0.6402,0.15147 0.7494,0.18789 0.1092,0.0364 0.5577,0.0733 0.9966,0.0819 l 0.7981,0.0157 6.5997,-13.2512 z"
             id="path4214"
             inkscape:connector-curvature="0" />
          <path
             style="fill:#c2c2c2;fill-opacity:1;stroke:none;stroke-width:0.19851983;stroke-opacity:1"
             d="m -1556.74,-686.63611 c 1.8009,-2.65037 3.9755,-4.54466 6.6837,-5.82209 3.6125,-1.70399 7.1919,-2.15169 14.0726,-1.76015 5.4222,0.30855 6.8523,0.17319 8.8286,-0.83564 1.3324,-0.68016 2.2707,-1.70961 2.5055,-2.74886 0.1102,-0.48793 0.014,-0.53076 -5.6991,-2.53865 -9.5329,-3.35034 -12.2723,-4.04879 -15.8365,-4.03779 -6.1515,0.019 -10.5542,3.15806 -12.0321,8.57882 -0.5144,1.88693 -0.4695,4.8877 0.1179,7.87398 0.2631,1.33752 0.5021,2.43186 0.5311,2.43186 0.029,0 0.4017,-0.51367 0.8283,-1.14148 z"
             id="path4210"
             inkscape:connector-curvature="0" />
          <path
             style="fill:#c2c2c2;fill-opacity:1;stroke:none;stroke-width:0.19851983;stroke-opacity:1"
             d="m -1487.8664,-689.78337 0.5992,-0.11983 0.095,-7.37429 c 0.081,-6.28794 0.1626,-7.85685 0.5553,-10.64987 0.6585,-4.68425 0.674,-10.83189 0.034,-13.36638 -0.9583,-3.79279 -2.28,-6.17184 -4.6459,-8.36227 -2.4206,-2.2411 -5.1253,-3.28485 -8.5121,-3.28485 -2.1705,0 -4.1718,0.43591 -6.1782,1.34566 -1.4478,0.65645 -3.5393,1.9438 -3.5393,2.17847 0,0.0848 0.7316,0.55494 1.6258,1.0447 3.8953,2.13349 7.4232,6.87795 9.2079,12.38315 1.1524,3.55468 1.5968,6.2004 2.3689,14.10519 0.5103,5.22406 1.2136,7.92703 2.5845,9.93247 1.324,1.93686 3.2899,2.67096 5.8055,2.16785 z"
             id="path4206"
             inkscape:connector-curvature="0" />
          <path
             style="fill:#c2c2c2;fill-opacity:1;stroke:none;stroke-width:0.19851983;stroke-opacity:1"
             d="m -1500.2691,-696.61137 c 1.5291,-0.76532 1.5256,-0.72159 0.2683,-3.34966 -1.8343,-3.83406 -2.8793,-7.32664 -4.017,-13.42563 -0.6925,-3.71243 -1.8068,-6.41367 -3.9284,-9.52308 -6.5653,-9.62228 -14.9474,-10.49337 -23.3004,-2.42147 -0.7916,0.76496 -1.4392,1.45478 -1.4392,1.53294 0,0.0781 0.5127,0.20616 1.1394,0.28446 1.439,0.17979 4.0757,0.94005 5.9132,1.70498 3.1098,1.29464 6.3574,3.94409 8.7073,7.1036 1.6514,2.22048 2.6589,3.94171 4.8596,8.30276 3.227,6.39466 5.363,9.12481 7.8914,10.08645 1.0784,0.41017 2.7485,0.28388 3.9058,-0.29535 z"
             id="path4202"
             inkscape:connector-curvature="0" />
          <path
             style="fill:#c2c2c2;fill-opacity:1;stroke:none;stroke-width:0.19851983;stroke-opacity:1"
             d="m -1515.3418,-698.68476 c 0.5605,-0.27983 1.3296,-0.7684 1.7091,-1.08572 l 0.6901,-0.57694 -1.8589,-1.74988 c -1.0224,-0.96244 -3.6634,-3.76227 -5.869,-6.22184 -7.245,-8.07922 -9.8457,-10.16644 -14.1332,-11.3427 -1.849,-0.50729 -4.7306,-0.54561 -6.4695,-0.086 -3.4069,0.9004 -6.2929,3.41709 -8.0084,6.98366 -0.7612,1.58278 -1.7161,5.02669 -1.626,5.86444 l 0.057,0.53128 1.2904,-0.77898 c 2.5489,-1.53873 5.6964,-2.18348 8.7485,-1.79206 4.7056,0.60346 9.6188,2.81546 15.0653,6.78262 3.49,2.54211 4.791,3.35181 6.042,3.76054 1.5297,0.49975 2.9752,0.4042 4.3624,-0.28838 z"
             id="path4198"
             inkscape:connector-curvature="0" />
        </g>
        <g
           id="g4285">
          <path
             style="fill:#c2c2c2;fill-opacity:1;stroke:none;stroke-width:0.19851983;stroke-opacity:1"
             d="m -1355.4076,-648.89618 c 1.7356,-0.48372 3.2606,-1.40681 4.5605,-2.76055 2.263,-2.35666 3.0337,-4.85066 3.0335,-9.81675 -10e-5,-2.64297 -0.3906,-6.91345 -0.7751,-8.47715 l -0.1075,-0.43709 -0.8246,0.5136 c -2.9635,1.84585 -4.1812,3.56208 -5.0691,7.14498 -1.3288,5.36126 -3.6447,8.58427 -7.5976,10.57331 -0.8355,0.42041 -2.1531,0.92772 -2.9281,1.12737 -0.775,0.19964 -1.4091,0.41975 -1.4091,0.48913 0,0.15444 2.9476,1.27842 4.1467,1.5812 2.4351,0.61493 4.9074,0.63691 6.9704,0.062 z"
             id="path4236"
             inkscape:connector-curvature="0" />
          <path
             style="fill:#c2c2c2;fill-opacity:1;stroke:none;stroke-width:0.19851983;stroke-opacity:1"
             d="m -1342.7871,-652.37237 c 4.4459,-1.60037 7.762,-4.63191 8.8226,-8.06548 0.7016,-2.27181 0.4649,-4.40908 -0.7853,-7.09049 -1.7015,-3.64915 -5.2315,-7.27566 -11.961,-12.28813 l -0.7329,-0.54589 -0.4316,0.8459 c -0.3676,0.72057 -0.4188,1.0873 -0.346,2.47522 0.082,1.56885 0.1492,1.76088 1.801,5.17407 0.9435,1.94961 1.9601,4.34875 2.2591,5.33143 0.5035,1.65489 0.5444,2.05025 0.5545,5.36003 0.01,3.2028 -0.037,3.72776 -0.4517,5.06226 -0.5678,1.82691 -1.2266,3.0182 -2.2709,4.10612 l -0.7973,0.83054 1.3684,-0.30934 c 0.7526,-0.17013 2.0896,-0.56894 2.9711,-0.88624 z"
             id="path4230"
             inkscape:connector-curvature="0" />
          <path
             style="fill:#c2c2c2;fill-opacity:1;stroke:none;stroke-width:0.19851983;stroke-opacity:1"
             d="m -1367.279,-653.35659 c 1.4652,-0.30765 3.6551,-1.35773 4.7683,-2.28634 1.5983,-1.33341 3.0766,-3.39584 4.5282,-6.31754 1.0049,-2.02277 1.3102,-2.81179 1.1318,-2.92513 -0.8091,-0.51396 -3.9151,0.0679 -5.6981,1.06741 -4.0105,2.24833 -5.0781,2.67666 -7.1397,2.86463 -3.1488,0.28709 -6.1533,-1.0245 -9.2934,-4.057 -0.7425,-0.71706 -1.0475,-0.90983 -1.0606,-0.67031 -0.1037,1.89353 0.3577,3.92349 1.3345,5.87225 2.448,4.88328 6.9084,7.40131 11.429,6.45203 z"
             id="path4226"
             inkscape:connector-curvature="0" />
          <path
             style="fill:#c2c2c2;fill-opacity:1;stroke:none;stroke-width:0.19851983;stroke-opacity:1"
             d="m -1329.0842,-667.15215 c 2.5607,-3.8485 3.3386,-7.81895 2.2846,-11.66084 -0.8112,-2.95676 -1.9554,-4.56755 -4.3982,-6.1915 -2.9348,-1.95104 -6.0031,-2.93421 -14.8164,-4.74756 -2.422,-0.49834 -4.5323,-0.95542 -4.6895,-1.01575 -0.3981,-0.15279 -0.5252,0.67491 -0.3367,2.19428 0.197,1.58852 0.6731,2.57531 1.747,3.62115 1.0347,1.00758 5.2021,3.7721 7.6829,5.09651 7.4065,3.95416 10.6606,8.04301 10.707,13.45387 0.013,1.46885 0.026,1.51155 0.3803,1.19209 0.2019,-0.18224 0.8495,-1.05625 1.439,-1.94225 z"
             id="path4220"
             inkscape:connector-curvature="0" />
          <path
             style="fill:#c2c2c2;fill-opacity:1;stroke:none;stroke-width:0.19851983;stroke-opacity:1"
             d="m -1365.4856,-665.34892 c 0.3024,-0.1188 0.2623,-0.23548 -0.3292,-0.95893 -0.8459,-1.03474 -1.9553,-3.23853 -2.4132,-4.79407 -0.2039,-0.69273 -0.3524,-1.85563 -0.3549,-2.77928 -0.01,-2.28246 0.5213,-3.33018 2.8124,-5.58659 1.4158,-1.39441 1.82,-1.91894 1.9298,-2.50438 0.2883,-1.53648 -0.3016,-2.21601 -2.4819,-2.85925 -2.1069,-0.6216 -4.5904,-0.19949 -7.3718,1.25294 -2.9012,1.51493 -4.6316,3.41182 -5.6768,6.22317 -0.4926,1.32466 -0.5536,1.7522 -0.5536,3.87588 0,2.36856 0.01,2.39498 0.6643,3.42204 1.4394,2.24264 4.1444,4.06689 6.993,4.71609 1.2916,0.29436 6.0267,0.28903 6.7819,-0.008 z"
             id="path4216"
             inkscape:connector-curvature="0" />
          <path
             style="fill:#c2c2c2;fill-opacity:1;stroke:none;stroke-width:0.19851983;stroke-opacity:1"
             d="m -1403.0038,-678.7612 c 0.92,-0.47242 1.7508,-1.468 2.0413,-2.44624 0.6711,-2.25965 0.1912,-4.96928 -2.148,-12.12872 -2.4845,-7.60429 -3.3179,-11.86093 -3.3155,-16.93398 0,-6.00153 1.6417,-11.25053 4.6825,-14.99649 0.6065,-0.74713 1.0738,-1.38684 1.0384,-1.42158 -0.1716,-0.16853 -2.6415,-0.69819 -4.2332,-0.9078 -3.3624,-0.44277 -6.9712,0.11366 -9.5244,1.46851 -1.5812,0.83907 -3.6011,2.77184 -4.526,4.3308 -1.2513,2.10903 -1.7663,4.03487 -1.8777,7.0204 -0.111,2.97781 0.1876,5.10731 1.1289,8.05165 0.3983,1.24604 2.8128,6.32344 7.2029,15.14692 l 6.6037,13.27257 1.2396,-0.11307 c 0.6818,-0.0622 1.4412,-0.21652 1.6875,-0.34297 z"
             id="path4212"
             inkscape:connector-curvature="0" />
          <path
             style="fill:#c2c2c2;fill-opacity:1;stroke:none;stroke-width:0.19851983;stroke-opacity:1"
             d="m -1326.1735,-692.2443 c 0.03,-2.63992 -0.2832,-4.05144 -1.3814,-6.2321 -1.8412,-3.65631 -5.991,-5.8875 -10.9785,-5.90289 -3.5642,-0.011 -6.3036,0.68745 -15.8365,4.03779 -5.7132,2.00789 -5.8094,2.05072 -5.6991,2.53865 0.2348,1.03925 1.1731,2.0687 2.5055,2.74886 1.9772,1.00932 3.4066,1.14442 8.8286,0.83442 6.8364,-0.39086 10.4754,0.0646 14.0726,1.76137 2.7242,1.28496 4.8719,3.16147 6.7205,5.87172 l 0.8124,1.19111 0.4651,-2.28297 c 0.3098,-1.5209 0.4736,-3.04506 0.4908,-4.56596 z"
             id="path4208"
             inkscape:connector-curvature="0" />
          <path
             style="fill:#c2c2c2;fill-opacity:1;stroke:none;stroke-width:0.19851983;stroke-opacity:1"
             d="m -1392.973,-690.17456 c 2.4944,-1.24301 3.8268,-4.70408 4.512,-11.72119 0.7706,-7.89024 1.2157,-10.53985 2.3676,-14.09313 1.7848,-5.5052 5.3127,-10.24966 9.208,-12.38315 0.8942,-0.48976 1.6258,-0.95987 1.6258,-1.0447 0,-0.23467 -2.0915,-1.52202 -3.5393,-2.17847 -2.0064,-0.90975 -4.0078,-1.34566 -6.1782,-1.34566 -3.4471,0 -6.1115,1.04666 -8.6143,3.38405 -2.3583,2.20234 -3.5672,4.4092 -4.5568,8.31807 -0.6267,2.4756 -0.605,8.67607 0.047,13.31138 0.3928,2.79376 0.4745,4.36168 0.5554,10.65942 0.1088,8.46687 -0.1698,7.52715 2.2466,7.57736 1.036,0.0215 1.51,-0.0771 2.3265,-0.48398 z"
             id="path4204"
             inkscape:connector-curvature="0" />
          <path
             style="fill:#c2c2c2;fill-opacity:1;stroke:none;stroke-width:0.19851983;stroke-opacity:1"
             d="m -1379.9791,-696.58547 c 1.1923,-0.57717 2.9066,-2.29239 4.191,-4.1933 0.554,-0.81993 2.0615,-3.53871 3.35,-6.04175 1.2884,-2.50303 2.9399,-5.43955 3.6699,-6.5256 2.3042,-3.42829 5.0633,-6.03681 8.1991,-7.75165 1.6496,-0.90212 5.0612,-2.04359 7.0164,-2.34755 0.836,-0.12996 1.5199,-0.29452 1.5199,-0.36567 0,-0.0712 -0.6477,-0.75526 -1.4393,-1.52022 -3.7233,-3.598 -7.4717,-5.45484 -11.0674,-5.48244 -1.8762,-0.0144 -3.302,0.31952 -5.0355,1.17926 -2.6503,1.31438 -5.0108,3.51986 -7.1974,6.72465 -2.1216,3.10941 -3.2359,5.81065 -3.9284,9.52308 -1.134,6.07877 -2.144,9.4644 -3.9686,13.30288 -0.6114,1.28644 -1.1118,2.41414 -1.1118,2.50599 0,0.20744 1.2846,1.02506 2.0845,1.32682 0.8965,0.33816 2.6549,0.17995 3.7176,-0.3345 z"
             id="path4200"
             inkscape:connector-curvature="0" />
          <path
             style="fill:#c2c2c2;fill-opacity:1;stroke:none;stroke-width:0.19851983;stroke-opacity:1"
             d="m -1365.1064,-698.39129 c 1.4227,-0.43968 2.4558,-1.05256 5.0336,-2.98614 10.1688,-7.6276 18.6019,-9.58067 24.9142,-5.77005 l 1.2904,0.77898 0.057,-0.53128 c 0.09,-0.83637 -0.8643,-4.28059 -1.623,-5.85816 -1.3155,-2.73499 -3.3887,-4.92754 -5.8257,-6.16104 -3.2734,-1.6568 -7.7808,-1.53816 -11.428,0.30079 -3.1054,1.56571 -5.3695,3.61829 -11.3604,10.29905 -2.2056,2.45957 -4.8265,5.24038 -5.8242,6.17957 -0.9976,0.93919 -1.8139,1.75556 -1.8139,1.81414 0,0.2674 2.1563,1.64967 3.0618,1.96268 1.3077,0.4521 1.9805,0.44664 3.518,-0.0285 z"
             id="path4194"
             inkscape:connector-curvature="0" />
        </g>
      </g>
    </g>
  </g>
</svg>
