<?xml version="1.0" encoding="UTF-8" standalone="no"?>
<svg
   xmlns:dc="http://purl.org/dc/elements/1.1/"
   xmlns:cc="http://creativecommons.org/ns#"
   xmlns:rdf="http://www.w3.org/1999/02/22-rdf-syntax-ns#"
   xmlns:svg="http://www.w3.org/2000/svg"
   xmlns="http://www.w3.org/2000/svg"
   xmlns:sodipodi="http://sodipodi.sourceforge.net/DTD/sodipodi-0.dtd"
   xmlns:inkscape="http://www.inkscape.org/namespaces/inkscape"
   viewBox="0 0 967.55911 967.55911"
   version="1.1"
   id="svg8"
   sodipodi:docname="Riften.svg"
   inkscape:version="0.92.5 (2060ec1f9f, 2020-04-08)"
   width="256mm"
   height="256mm">
  <metadata
     id="metadata14">
    <rdf:RDF>
      <cc:Work
         rdf:about="">
        <dc:format>image/svg+xml</dc:format>
        <dc:type
           rdf:resource="http://purl.org/dc/dcmitype/StillImage" />
        <dc:title></dc:title>
      </cc:Work>
    </rdf:RDF>
  </metadata>
  <defs
     id="defs12" />
  <sodipodi:namedview
     pagecolor="#ffffff"
     bordercolor="#666666"
     borderopacity="1"
     objecttolerance="10"
     gridtolerance="10"
     guidetolerance="10"
     inkscape:pageopacity="0"
     inkscape:pageshadow="2"
     inkscape:window-width="3840"
     inkscape:window-height="2056"
     id="namedview10"
     showgrid="false"
     inkscape:zoom="1.3037281"
     inkscape:cx="123.25433"
     inkscape:cy="563.05446"
     inkscape:window-x="0"
     inkscape:window-y="50"
     inkscape:window-maximized="1"
     inkscape:current-layer="g5289"
     units="mm" />
  <g
     id="g5289"
     transform="translate(0,455.55911)">
    <path
       style="fill:#cea963;fill-opacity:1;stroke-width:30;stroke:#020202;stroke-opacity:1;stroke-miterlimit:4;stroke-dasharray:none;paint-order:stroke fill markers"
       d="m 778.0648,322.09922 c -57.61088,-76.68384 -64.89683,-85.74891 -68.98232,-85.82687 -6.14885,-0.1174 -14.44192,-3.78194 -18.26267,-8.07007 -1.72029,-1.93073 -4.22267,-3.51041 -5.56082,-3.51041 -1.33816,0 -12.09417,3.03658 -23.90224,6.74793 -20.77211,6.52885 -22.21756,6.75077 -44.51721,6.8348 -27.51082,0.1036 -41.21624,-2.95869 -64.09556,-14.32164 -21.93617,-10.89453 -23.41643,-12.47478 -25.45388,-27.17344 -0.93881,-6.77285 -2.04228,-14.34613 -2.45213,-16.82951 -0.72305,-4.38105 -0.51464,-4.51879 7.01279,-4.63509 4.2669,-0.066 11.65457,-0.67457 16.41708,-1.35257 6.60343,-0.94005 9.11371,-0.6849 10.57413,1.07481 2.75068,3.31438 18.6528,11.06531 29.20292,14.23395 11.83304,3.55397 41.04756,5.51062 41.04756,2.74919 0,-8.46606 -34.77518,-56.38739 -72.80131,-100.322556 C 530.34737,61.722462 487.089,14.528312 485.55728,14.528312 c -1.05615,0 -75.42448,83.730311 -91.87415,103.439868 -26.94787,32.28827 -53.56556,69.28009 -53.56556,74.44254 0,2.56502 27.67187,-0.0168 39.41148,-3.67712 5.873,-1.83115 15.71796,-6.369 21.87769,-10.08412 l 11.19952,-6.75474 14.73155,1.57329 c 8.10236,0.86531 15.16474,2.00647 15.69417,2.5359 0.52945,0.52943 0.0294,8.01391 -1.11132,16.63216 l -2.07395,15.66955 -12.14376,7.56888 c -22.19038,13.83066 -45.83063,21.51774 -70.91708,23.06003 -13.024,0.8007 -16.69208,0.24476 -44.10394,-6.68467 -16.44418,-4.15692 -31.59073,-7.52358 -33.65901,-7.4815 -2.06828,0.042 -7.59816,1.7045 -12.28864,3.69428 -8.26259,3.50511 -10.55354,6.25062 -73.57742,88.17576 -35.77709,46.50689 -66.29626,85.79882 -67.82034,87.3154 -2.59488,2.58209 -5.53767,2.50761 -46.281491,-1.17138 -23.93073,-2.16084 -43.571576,-3.95582 -43.646299,-3.98884 -0.07471,-0.033 -1.499353,-19.65588 -3.165835,-43.60634 -2.257091,-32.4384 -2.555458,-44.02081 -1.169725,-45.40655 1.023136,-1.02313 39.657029,-30.37653 85.85308,-65.22976 l 83.99282,-63.36951 0.51869,-7.16991 c 0.36759,-5.08126 2.03321,-9.05454 5.71772,-13.6394 l 5.199,-6.46948 -3.55352,-8.75531 c -17.71615,-43.6498 -13.82024,-96.658582 9.9418,-135.2705983 l 7.92788,-12.882365 16.73454,-2.02821 c 13.09044,-1.58653 17.00206,-1.59529 17.96314,-0.0402 0.67574,1.09336 1.74043,8.132235 2.36598,15.6419153 1.11749,13.41532 1.05205,13.76301 -3.74397,19.890078 -9.48225,12.113893 -16.70273,36.904195 -16.73263,57.448635 -0.007,4.687697 0.58752,8.893858 1.32075,9.347023 3.19223,1.97291 33.55494,-19.26272 80.75198,-56.477826 16.19658,-12.771081 95.71091,-82.970395 96.52523,-85.217405 0.25515,-0.70405 -18.21626,-15.88835 -41.04757,-33.74289 -31.97727,-25.006867 -45.28253,-34.351067 -57.9305,-40.684177 l -16.41903,-8.22137 -55.82469,-99.34059 c -68.37274,-121.66997 -70.73646,-125.95683 -68.84055,-124.8506 0.83738,0.4886 49.17876,27.65088 107.42526,60.36062 58.2465,32.70972 108.53148,61.16646 111.74441,63.23718 4.10891,2.64819 6.44581,5.78137 7.8784,10.56295 3.76307,12.55999 43.17141,66.99466 69.77204,96.37598 l 7.13748,7.8836 5.58419,-6.3067 c 27.96245,-31.58039 64.49854,-82.18658 69.91989,-96.84614 l 2.98231,-8.06426 112.29186,-63.81064 c 61.76052,-35.09585 112.59355,-63.50895 112.96229,-63.14021 0.36873,0.36874 -28.20161,51.29391 -63.48964,113.16706 l -64.16006,112.49663 -11.03846,4.65741 c -8.13622,3.43287 -22.90998,13.85694 -56.19079,39.647027 -24.83378,19.24428 -45.15233,35.57402 -45.15233,36.28831 0,0.7143 20.43598,19.42476 45.41329,41.5788297 35.19171,31.2139193 54.68321,46.9803893 86.59847,70.0485973 22.65184,16.37266 41.66738,29.768468 42.25678,29.768468 0.58939,0 0.64811,-7.203847 0.13053,-16.008551 C 722.79869,62.574662 719.02852,49.974306 710.31399,35.34492 704.34816,25.329922 703.949,22.698672 705.6555,4.6368217 l 1.01211,-10.712485 16.60806,1.68202 16.60805,1.68199 8.38367,13.4021853 c 15.41827,24.647787 23.46328,58.105316 21.45257,89.216745 -1.12018,17.332393 -3.74882,28.623553 -10.22422,43.917613 -4.85795,11.47384 -4.62711,16.04362 1.42702,28.24943 3.16116,6.37327 14.37588,15.61257 87.36376,71.97505 46.05538,35.56475 85.1322,65.66405 86.83738,66.88733 3.03504,2.17733 3.02189,3.15122 -0.6251,46.24194 -2.04901,24.20979 -3.8136,44.12216 -3.92131,44.24972 -0.10771,0.12758 -19.97388,1.62214 -44.14705,3.32126 l -43.95121,3.08934 -64.41438,-85.73972 z"
       id="path1309"
       inkscape:connector-curvature="0" />
  </g>
</svg>
