<?xml version="1.0" encoding="UTF-8" standalone="no"?>
<!-- Created with Inkscape (http://www.inkscape.org/) -->

<svg
   xmlns:dc="http://purl.org/dc/elements/1.1/"
   xmlns:cc="http://creativecommons.org/ns#"
   xmlns:rdf="http://www.w3.org/1999/02/22-rdf-syntax-ns#"
   xmlns:svg="http://www.w3.org/2000/svg"
   xmlns="http://www.w3.org/2000/svg"
   xmlns:sodipodi="http://sodipodi.sourceforge.net/DTD/sodipodi-0.dtd"
   xmlns:inkscape="http://www.inkscape.org/namespaces/inkscape"
   width="256mm"
   height="256mm"
   viewBox="0 0 256.00001 256.00002"
   version="1.1"
   id="svg952"
   inkscape:version="0.92.5 (2060ec1f9f, 2020-04-08)"
   sodipodi:docname="Tear.svg">
  <defs
     id="defs946" />
  <sodipodi:namedview
     id="base"
     pagecolor="#ffffff"
     bordercolor="#666666"
     borderopacity="1.0"
     inkscape:pageopacity="0.0"
     inkscape:pageshadow="2"
     inkscape:zoom="1.2179915"
     inkscape:cx="-166.74447"
     inkscape:cy="549.08113"
     inkscape:document-units="mm"
     inkscape:current-layer="layer1"
     showgrid="false"
     units="mm"
     inkscape:window-width="3840"
     inkscape:window-height="2056"
     inkscape:window-x="0"
     inkscape:window-y="50"
     inkscape:window-maximized="1"
     showguides="true"
     inkscape:guide-bbox="true" />
  <metadata
     id="metadata949">
    <rdf:RDF>
      <cc:Work
         rdf:about="">
        <dc:format>image/svg+xml</dc:format>
        <dc:type
           rdf:resource="http://purl.org/dc/dcmitype/StillImage" />
        <dc:title></dc:title>
      </cc:Work>
    </rdf:RDF>
  </metadata>
  <g
     inkscape:label="Layer 1"
     inkscape:groupmode="layer"
     id="layer1"
     transform="translate(0,-40.999976)">
    <g
       transform="matrix(8.2379792,0,0,8.2379792,1755.3987,-890.62365)"
       id="g4884"
       style="fill:#231a1b;fill-opacity:1">
      <path
         inkscape:connector-curvature="0"
         id="path4768"
         d="m -197.36617,114.06364 a 4.4999999,4.4999999 0 0 0 -3.591,1.55908 4.4999999,4.4999999 0 0 0 0,5.8751 4.4999999,4.4999999 0 0 0 5.80999,0.86816 4.4999999,4.4999999 0 0 0 1.71772,-5.61826 l -0.91932,0.40462 a 3.4999998,3.4999998 0 0 1 0.30075,1.40767 3.4999998,3.4999998 0 0 1 -3.50004,3.50005 3.4999998,3.4999998 0 0 1 -3.50005,-3.50005 3.4999998,3.4999998 0 0 1 3.50005,-3.50004 3.4999998,3.4999998 0 0 1 1.86552,0.54363 l 0.53537,-0.84904 a 4.4999999,4.4999999 0 0 0 -2.21899,-0.69092 z"
         style="fill:#231a1b;fill-opacity:1;stroke:none;stroke-width:0.48721156;stroke-miterlimit:4;stroke-dasharray:none;stroke-opacity:1;paint-order:stroke fill markers" />
      <path
         inkscape:connector-curvature="0"
         id="rect4829"
         d="m -198.63169,125.58549 c -0.7479,0 -1.35031,0.6024 -1.35031,1.3503 v 3.38223 c 0,0.7479 0.60241,1.34978 1.35031,1.34978 h 2.16731 c 0.7479,0 1.34979,-0.60188 1.34979,-1.34978 v -3.38223 c 0,-0.7479 -0.60189,-1.3503 -1.34979,-1.3503 z m 0.48472,0.76791 h 1.19786 c 0.55903,0 1.00873,0.45021 1.00873,1.00924 v 2.52801 c 0,0.55903 -0.4497,1.00924 -1.00873,1.00924 h -1.19786 c -0.55903,0 -1.00924,-0.45021 -1.00924,-1.00924 v -2.52801 c 0,-0.55903 0.45021,-1.00924 1.00924,-1.00924 z"
         style="fill:#231a1b;fill-opacity:1;stroke:none;stroke-width:0.25052464;stroke-miterlimit:4;stroke-dasharray:none;stroke-opacity:1;paint-order:stroke fill markers" />
      <rect
         y="122.95998"
         x="-198.06081"
         height="2.7249999"
         width="1.0250504"
         id="rect4847"
         style="fill:#231a1b;fill-opacity:1;stroke:none;stroke-width:0.51939487;stroke-miterlimit:4;stroke-dasharray:none;stroke-opacity:1;paint-order:stroke fill markers" />
      <rect
         y="131.56798"
         x="-198.06081"
         height="2.7249999"
         width="1.0250504"
         id="rect4847-9"
         style="fill:#231a1b;fill-opacity:1;stroke:none;stroke-width:0.51939487;stroke-miterlimit:4;stroke-dasharray:none;stroke-opacity:1;paint-order:stroke fill markers" />
      <path
         inkscape:connector-curvature="0"
         id="path4768-7"
         d="m -197.73041,143.18965 a 4.5,4.5 0 0 0 3.591,-1.55908 4.5,4.5 0 0 0 0,-5.8751 4.5,4.5 0 0 0 -5.80999,-0.86816 4.5,4.5 0 0 0 -1.71772,5.61826 l 0.91932,-0.40462 a 3.4999999,3.4999999 0 0 1 -0.30075,-1.40767 3.4999999,3.4999999 0 0 1 3.50004,-3.50005 3.4999999,3.4999999 0 0 1 3.50005,3.50005 3.4999999,3.4999999 0 0 1 -3.50005,3.50004 3.4999999,3.4999999 0 0 1 -1.86552,-0.54363 l -0.53537,0.84904 a 4.5,4.5 0 0 0 2.21899,0.69092 z"
         style="fill:#231a1b;fill-opacity:1;stroke:none;stroke-width:0.48721156;stroke-miterlimit:4;stroke-dasharray:none;stroke-opacity:1;paint-order:stroke fill markers" />
    </g>
  </g>
</svg>
